<svg version="1.2" xmlns="http://www.w3.org/2000/svg" viewBox="0 0 1500 1000" width="1500" height="1000">
	<title>3569283-ai</title>
	<style>
		.s0 { fill: #ebebeb } 
		.s1 { fill: #e0e0e0 } 
		.s2 { fill: #f5f5f5 } 
		.s3 { fill: #42a1f6 } 
		.s4 { opacity: .5;fill: #000000 } 
		.s5 { fill: #263238 } 
		.s6 { fill: #ffbe9d } 
		.s7 { fill: #eb996e } 
		.s8 { fill: #455a64 } 
		.s9 { fill: #000000 } 
	</style>
	<g id="Background Complete">
		<g id="&lt;Group&gt;">
			<g id="&lt;Group&gt;">
				<g id="&lt;Group&gt;">
					<g id="&lt;Group&gt;">
						<path id="&lt;Path&gt;" class="s0" d="m398.1 384.6c0 0-11.2-9.2-28.8 18-17.6 27.3-24.8 43.3-24.8 43.3 0 0-4.5 5.6-8.2 1.2-3.8-4.3-8.3-16.1-15.5-14.8-7.5 1.4-10.7 9.2-10.6 21.3 0.2 12.1-0.4 38.6-0.5 41 0 2.4-1.7 5.7-4.7 3.1-3.1-2.6-19.6-25.3-29.9-16.8-10.3 8.5-4.3 42.1-3.7 45.8 0.6 3.7-0.3 5.2-2.1 5.9-1.8 0.7-6.6-7.5-11.6-13.7-5-6.3-11.8-12.7-17.3-7.3-5.6 5.4-9.7 29.7 9.6 71.9l10.2 19 21.6 1c46.3-0.7 66.6-14.8 69.1-22.1 2.5-7.3-6.2-10.8-14-12.6-7.8-1.8-17.2-2.7-17.4-4.6-0.1-1.9 0.9-3.3 4.4-4.4 3.6-1 36.6-10 39.8-22.9 3.3-13-24.3-18.2-27.9-19.8-3.6-1.7-1.3-4.6 0.8-5.7 2.1-1 25.8-12.9 36.8-18 11-5 16.7-11.3 14.7-18.6-1.9-7.1-14.4-6.2-20-7.7-5.5-1.5-2.4-7.9-2.4-7.9 0 0 11.4-13.4 28.5-41 17.1-27.5 3.6-33.8 3.6-33.8"/>
					</g>
				</g>
				<g id="&lt;Group&gt;">
					<g id="&lt;Group&gt;">
						<g id="&lt;Group&gt;">
							<path id="&lt;Path&gt;" class="s1" d="m256.4 606c12.6-20.2 35.6-55.7 55.2-86.2 19.6-30.6 37.4-58.2 50.1-78.3 6.3-10.1 11.5-18.2 15-23.8 1.8-2.8 3.2-5 4.1-6.5q0.7-1.1 1.1-1.7 0.4-0.6 0.4-0.6 0 0-0.3 0.6-0.4 0.6-1.1 1.7c-0.9 1.6-2.2 3.8-4 6.6-3.4 5.7-8.5 13.8-14.8 23.9-12.6 20.2-30.3 47.9-49.9 78.5-19.6 30.5-42.7 65.9-55.4 86"/>
						</g>
					</g>
				</g>
				<g id="&lt;Group&gt;">
					<g id="&lt;Group&gt;">
						<g id="&lt;Group&gt;">
							<path id="&lt;Path&gt;" class="s1" d="m326.5 449c0 0 0.1 0.5 0.3 1.5 0.3 1 0.5 2.4 0.8 4.2 0.7 3.5 1.4 8.4 2.1 13.8 0.7 5.3 1.3 10.1 1.8 13.8q0.3 2.5 0.5 4.2c0.2 1 0.2 1.6 0.2 1.6-0.1 0-0.2-0.6-0.4-1.5-0.2-1-0.5-2.4-0.8-4.2-0.6-3.5-1.3-8.4-2-13.8-0.7-5.4-1.3-10.2-1.8-13.9q-0.4-2.5-0.6-4.2c-0.1-1-0.2-1.5-0.1-1.5z"/>
						</g>
					</g>
				</g>
				<g id="&lt;Group&gt;">
					<g id="&lt;Group&gt;">
						<g id="&lt;Group&gt;">
							<path id="&lt;Path&gt;" class="s1" d="m334.1 488.6c0-0.1 10-2.1 22.4-4.3 12.3-2.2 22.4-3.9 22.4-3.7 0.1 0.2-9.9 2.1-22.3 4.3-12.4 2.3-22.5 3.9-22.5 3.7z"/>
						</g>
					</g>
				</g>
				<g id="&lt;Group&gt;">
					<g id="&lt;Group&gt;">
						<g id="&lt;Group&gt;">
							<path id="&lt;Path&gt;" class="s1" d="m301.9 534.2c0 0 0.5 0 1.6 0.1q1.7 0.2 4.2 0.4c3.7 0.4 8.7 0.9 14.2 1.3 5.6 0.3 10.6 0.5 14.3 0.6q2.5 0 4.3 0.1c1 0 1.6 0 1.6 0.1 0 0-0.6 0.1-1.6 0.1-1 0.1-2.5 0.1-4.3 0.1-3.7 0.1-8.7 0-14.3-0.4-5.6-0.3-10.6-0.9-14.2-1.4-1.8-0.2-3.3-0.5-4.3-0.7-1-0.1-1.5-0.3-1.5-0.3z"/>
						</g>
					</g>
				</g>
				<g id="&lt;Group&gt;">
					<g id="&lt;Group&gt;">
						<g id="&lt;Group&gt;">
							<path id="&lt;Path&gt;" class="s1" d="m287.1 499.8c0 0 0.2 0.5 0.7 1.3q0.7 1.5 1.7 3.6c1.4 3.1 3.4 7.3 5.5 12 2.1 4.7 3.9 9 5.2 12.1q0.9 2.2 1.6 3.7c0.3 0.9 0.5 1.4 0.4 1.4 0 0-0.3-0.5-0.7-1.3q-0.7-1.5-1.7-3.6c-1.4-3.1-3.4-7.3-5.5-12-2.1-4.7-3.9-9-5.2-12.1q-0.9-2.2-1.6-3.7c-0.3-0.8-0.5-1.3-0.4-1.4z"/>
						</g>
					</g>
				</g>
				<g id="&lt;Group&gt;">
					<g id="&lt;Group&gt;">
						<g id="&lt;Group&gt;">
							<path id="&lt;Path&gt;" class="s1" d="m253.5 536.5c0-0.1 0.3 0.5 0.9 1.6q0.9 1.8 2.2 4.6c1.9 3.9 4.4 9.3 7.1 15.3 2.8 6 5.2 11.5 7 15.4q1.2 2.9 2 4.7c0.5 1.1 0.7 1.8 0.7 1.8-0.1 0-0.4-0.6-0.9-1.7q-0.9-1.8-2.3-4.6c-1.8-3.9-4.3-9.3-7.1-15.3-2.7-6-5.2-11.4-6.9-15.4q-1.3-2.8-2.1-4.7c-0.4-1.1-0.7-1.7-0.6-1.7z"/>
						</g>
					</g>
				</g>
				<g id="&lt;Group&gt;">
					<g id="&lt;Group&gt;">
						<g id="&lt;Group&gt;">
							<path id="&lt;Path&gt;" class="s1" d="m273.2 578.7c0 0 0.7 0 2 0.1q2.1 0.1 5.5 0.3c4.6 0.4 11 0.8 18 1 7.1 0.3 13.5 0.4 18.1 0.4q3.3 0 5.5 0c1.3 0 2 0.1 2 0.1 0 0-0.7 0.1-2 0.2-1.3 0-3.2 0.1-5.5 0.2-4.6 0.1-11 0.1-18.1-0.2-7.1-0.3-13.5-0.8-18.1-1.2-2.3-0.2-4.1-0.4-5.4-0.6-1.3-0.1-2-0.3-2-0.3z"/>
						</g>
					</g>
				</g>
			</g>
			<g id="&lt;Group&gt;">
				<g id="&lt;Group&gt;">
					<g id="&lt;Group&gt;">
						<g id="&lt;Group&gt;">
							<path id="&lt;Path&gt;" class="s1" d="m221.8 460.9c0 0 0.3 3.4-0.5 9.8-0.9 6.4-2.9 15.9-9 26.5l-0.2-0.4h0.4l-0.2 0.4c-13 23.1-32.6 57.8-56 99.3l-0.4 0.7-0.4-0.6c-17.8-28.5-37.9-60.6-59.2-94.5-1-1.6-2-3.2-2.9-4.7l-0.4-0.7h0.8l-0.4 0.7c-4.5-7.7-7.5-16.3-8.9-24.9-0.7-4.3-1.1-8.7-0.9-13q0.2-3.2 0.4-6.4 0.4-3.2 0.9-6.3c3.3-16.7 12.3-31.3 24.2-41.4 6-5 12.6-8.8 19.5-11.4l2.5-1 1.3-0.5 1.3-0.3q2.7-0.7 5.3-1.4c3.5-0.5 6.9-1.2 10.4-1.2 3.4-0.4 6.8 0 10.1 0.1 1.7 0.2 3.3 0.5 4.9 0.8q1.2 0.2 2.4 0.4c0.8 0.1 1.6 0.4 2.4 0.6q2.3 0.6 4.6 1.2 2.2 0.8 4.3 1.7c0.7 0.2 1.4 0.5 2.1 0.8q1 0.5 2.1 1 2 1 3.9 2c10.2 5.9 17.8 13.6 23 21.2 5.3 7.7 8.2 15.2 10 21.5 0.8 3.2 1.6 6 1.8 8.5 0.4 2.4 0.7 4.5 0.7 6.3q0.1 2.5 0.1 3.9 0 1.3 0 1.3 0 0-0.1-1.3-0.1-1.4-0.2-3.9c0-1.7-0.4-3.8-0.8-6.3-0.2-2.5-1-5.3-1.8-8.4-1.9-6.2-4.8-13.7-10.1-21.3-5.3-7.5-12.8-15.1-22.9-20.9q-1.9-1-3.9-2-1-0.5-2-1c-0.7-0.3-1.4-0.5-2.2-0.8q-2.1-0.8-4.3-1.6-2.2-0.6-4.5-1.2c-0.8-0.2-1.5-0.5-2.3-0.6q-1.2-0.2-2.4-0.4c-1.6-0.2-3.2-0.6-4.8-0.7-3.3-0.2-6.7-0.5-10.1-0.2-3.4 0.1-6.8 0.8-10.3 1.3q-2.5 0.7-5.1 1.4l-1.3 0.3-1.3 0.5-2.5 0.9c-6.8 2.7-13.4 6.5-19.3 11.4-11.7 9.9-20.6 24.4-23.8 40.8q-0.5 3.1-0.9 6.3-0.2 3.1-0.4 6.3c-0.1 4.3 0.3 8.6 0.9 12.8 1.4 8.6 4.3 17 8.8 24.7l0.4 0.7h-0.8l0.4-0.8c0.9 1.5 1.9 3.1 2.9 4.7 21.3 33.9 41.4 66.1 59.2 94.5h-0.8c23.6-41.4 43.3-76.1 56.4-99.1l0.2 0.3h-0.4l0.2-0.3c6.1-10.5 8.2-20 9.1-26.3 0.5-3.2 0.6-5.7 0.7-7.3q0.1-1.2 0.1-1.9 0-0.6 0-0.6z"/>
						</g>
					</g>
					<g id="&lt;Group&gt;">
						<g id="&lt;Group&gt;">
							<path id="&lt;Path&gt;" class="s1" d="m196.7 460.1q0 0-0.1-0.7 0-0.8-0.1-2.1-0.1-0.7-0.1-1.5c-0.1-0.6-0.2-1.2-0.3-1.9-0.2-1.3-0.4-2.8-0.9-4.5-0.8-3.3-2.4-7.3-4.9-11.5-2.5-4.3-6.1-8.7-11-12.4-4.9-3.7-11.1-6.8-18.3-8.1-7.1-1.3-15.1-1.1-22.7 1.8-2 0.7-3.8 1.6-5.7 2.5-1.8 1.1-3.7 2.1-5.3 3.4-1.8 1.2-3.3 2.7-4.9 4.2-1.5 1.6-3 3.2-4.3 5-2.6 3.6-4.8 7.5-6.2 11.9-1.4 4.3-2.2 9-2.3 13.7 0.1 4.7 0.8 9.3 2.2 13.6 1.4 4.4 3.6 8.4 6.2 12 1.2 1.8 2.8 3.4 4.2 5 1.6 1.5 3.2 3 4.9 4.2 1.7 1.4 3.5 2.4 5.3 3.4 1.9 0.9 3.7 1.9 5.7 2.5 7.6 3 15.6 3.2 22.7 2 7.2-1.2 13.4-4.4 18.3-8 5-3.7 8.6-8.1 11.1-12.3 2.5-4.2 4.1-8.2 4.9-11.6 0.5-1.6 0.7-3.2 1-4.5 0.1-0.6 0.2-1.2 0.3-1.8q0-0.8 0.1-1.5 0.1-1.3 0.1-2.1 0.1-0.7 0.1-0.7 0 0 0 0.7 0 0.8-0.1 2.1 0 0.7 0 1.5c-0.1 0.6-0.2 1.2-0.3 1.9-0.2 1.3-0.3 2.8-0.8 4.5-0.8 3.4-2.3 7.5-4.8 11.8-2.5 4.2-6.2 8.7-11.2 12.5-5 3.8-11.2 7-18.5 8.3-7.3 1.2-15.4 1-23.2-1.9-2-0.7-3.9-1.7-5.8-2.6-1.8-1.1-3.7-2.1-5.4-3.5-1.8-1.2-3.4-2.7-5-4.2-1.5-1.7-3.1-3.3-4.4-5.2-2.6-3.6-4.9-7.7-6.3-12.2-1.4-4.4-2.2-9.1-2.2-13.9 0.1-4.8 0.8-9.6 2.3-14 1.4-4.5 3.7-8.5 6.4-12.2 1.3-1.8 2.8-3.4 4.3-5.1 1.7-1.5 3.3-3 5.1-4.2 1.7-1.4 3.6-2.4 5.4-3.5 1.9-0.9 3.8-1.9 5.8-2.5 7.8-2.9 16-3.1 23.2-1.8 7.3 1.4 13.5 4.6 18.5 8.4 5 3.8 8.6 8.3 11.1 12.6 2.5 4.3 4 8.3 4.7 11.7 0.5 1.7 0.7 3.3 0.9 4.6 0.1 0.7 0.2 1.3 0.2 1.9q0 0.8 0.1 1.5 0 1.3 0 2.1 0 0.7 0 0.7z"/>
						</g>
					</g>
				</g>
				<g id="&lt;Group&gt;">
					<path id="&lt;Path&gt;" class="s1" d="m152.1 480.5l-25.5-17.8 6.2-8.9 17.1 11.9 22-28 8.5 6.7z"/>
				</g>
			</g>
			<g id="&lt;Group&gt;">
				<g id="&lt;Group&gt;">
					<g id="&lt;Group&gt;">
						<g id="&lt;Group&gt;">
							<g id="&lt;Group&gt;">
								<g id="&lt;Group&gt;">
									<g id="&lt;Group&gt;">
										<g id="&lt;Group&gt;">
											<path id="&lt;Compound Path&gt;" fill-rule="evenodd" class="s2" d="m864.2 151.7c7.5 1 14.8 2.9 21.6 5.7l15.9-13.3 27.3 20.8-8.6 18.9c4.6 5.8 8.4 12.3 11.3 19.3l20.7 1.9 4.6 34-19.4 7.3c-1 7.5-2.9 14.7-5.8 21.6l13.4 15.9-20.8 27.3-18.9-8.6c-5.9 4.6-12.3 8.4-19.3 11.3l-1.9 20.7-34 4.6-7.3-19.5c-7.5-0.9-14.8-2.8-21.6-5.7l-15.9 13.4-27.3-20.8 8.6-18.9c-4.6-5.9-8.4-12.4-11.3-19.4l-20.7-1.8-4.6-34 19.4-7.3c1-7.5 2.9-14.8 5.8-21.6l-13.4-15.9 20.8-27.4 18.9 8.7c5.9-4.6 12.4-8.4 19.4-11.3l1.8-20.7 34-4.6zm-10.2 46.9c-23.4 0.9-40.1 22.7-34.6 45.5 4 16.9 19.7 28.8 37 28.2 23.4-0.9 40-22.7 34.6-45.5-4-16.8-19.7-28.8-37-28.2z"/>
										</g>
									</g>
								</g>
							</g>
						</g>
					</g>
				</g>
			</g>
			<g id="&lt;Group&gt;">
				<g id="&lt;Group&gt;">
					<g id="&lt;Group&gt;">
						<g id="&lt;Group&gt;">
							<g id="&lt;Group&gt;">
								<g id="&lt;Group&gt;">
									<g id="&lt;Group&gt;">
										<g id="&lt;Group&gt;">
											<path id="&lt;Compound Path&gt;" fill-rule="evenodd" class="s0" d="m554.3 260.5c4.9 0.6 9.6 1.9 14 3.7l10.4-8.6 17.7 13.5-5.6 12.2c3 3.8 5.4 8.1 7.3 12.6l13.5 1.2 2.9 22.1-12.6 4.7c-0.6 4.9-1.8 9.6-3.7 14l8.7 10.4-13.5 17.7-12.3-5.6c-3.8 3-8 5.4-12.5 7.3l-1.2 13.4-22.1 3-4.7-12.6c-4.9-0.6-9.6-1.8-14.1-3.7l-10.3 8.7-17.7-13.5 5.6-12.3c-3-3.8-5.5-8-7.4-12.5l-13.4-1.2-3-22.1 12.6-4.7c0.6-4.9 1.9-9.6 3.7-14.1l-8.6-10.3 13.5-17.7 12.3 5.5c3.7-2.9 8-5.4 12.5-7.3l1.2-13.4 22.1-3zm-6.6 30.5c-15.2 0.5-26 14.7-22.5 29.5 2.6 10.9 12.8 18.7 24 18.3 15.2-0.6 26-14.8 22.5-29.5-2.6-11-12.8-18.7-24-18.3z"/>
										</g>
									</g>
								</g>
							</g>
						</g>
					</g>
				</g>
			</g>
			<g id="&lt;Group&gt;">
				<g id="&lt;Group&gt;">
					<g id="&lt;Group&gt;">
						<g id="&lt;Group&gt;">
							<g id="&lt;Group&gt;">
								<g id="&lt;Group&gt;">
									<path id="&lt;Path&gt;" class="s0" d="m739.6 422c0 0 3.3 1.2 8 5.3 4.6 4 10.6 11.5 12.4 22.7 0.9 5.5 0.7 11.9-1.4 18.1-2.1 6.3-5.7 12.6-11.4 17.5-2.7 2.5-6 4.6-9.5 6.3-3.5 1.6-7.4 2.8-11.4 3.3-8.1 1.2-16.8-0.4-24.4-4.5-7.5-4.2-13.5-10.7-16.8-18.1-1.8-3.6-2.9-7.5-3.4-11.4-0.5-3.9-0.5-7.7 0.2-11.4 1.1-7.4 4.5-13.9 8.6-19 4.2-5.2 9.4-8.7 14.5-10.9 10.4-4.5 20-3.5 25.9-1.8 6 1.8 8.7 3.9 8.7 3.9-0.1 0.2-3-1.6-8.9-3.1-5.8-1.4-15.1-2.1-25 2.4-4.9 2.2-9.9 5.7-13.8 10.6-3.9 5-7 11.2-8 18.2-0.6 3.5-0.6 7.2-0.1 10.8 0.5 3.7 1.6 7.3 3.2 10.8 3.2 7 8.9 13.1 16 17.1 7.2 3.8 15.4 5.3 23 4.3 3.8-0.5 7.4-1.6 10.8-3.2 3.4-1.5 6.4-3.4 9.1-5.8 5.4-4.6 8.9-10.6 11-16.5 2-6 2.3-12 1.6-17.3-1.6-10.8-7.1-18.3-11.5-22.4-4.4-4.2-7.5-5.7-7.4-5.9z"/>
								</g>
							</g>
						</g>
					</g>
				</g>
				<g id="&lt;Group&gt;">
					<g id="&lt;Group&gt;">
						<g id="&lt;Group&gt;">
							<g id="&lt;Group&gt;">
								<g id="&lt;Group&gt;">
									<path id="&lt;Path&gt;" class="s0" d="m780.9 390.8q-0.1 0 0.3-1.3 0.4-1.4 1-4 1.5-5.4 4.3-15.7l0.2 0.4c-8.1-4.4-18.8-10.1-31.7-17.1l0.7-0.1c-4.3 4.9-9.2 10.4-14.3 16.3l-0.3 0.3-0.4-0.1c-7.1-1.7-14.9-2.7-23.2-2.4h-0.4l-0.2-0.4c-3.3-5.9-6.9-12.3-10.6-19l0.9 0.4c-10.9 3.2-22.5 6.6-34.6 10.1l0.6-0.9c0.5 6.8 0.9 14.2 1.4 21.8l0.1 0.5-0.5 0.3c-6.2 3.7-12.5 8.7-18.1 14.6l-0.4 0.4-0.6-0.2c-6.5-1.8-13.6-3.9-20.9-5.9l1.1-0.5c-5.4 9.9-11.3 20.6-17.3 31.6l-0.2-1.3c5.1 4.5 10.7 9.4 16.3 14.4l0.5 0.5-0.1 0.6c-1.8 7-2.8 15-2.5 23v0.7l-0.6 0.3c-6 3.3-12.5 6.9-19 10.6l0.5-1.3c3.2 11 6.6 22.7 10.1 34.6l-1.1-0.8c6.8-0.4 14.2-0.9 21.7-1.3l0.7-0.1 0.3 0.6c3.8 6.3 8.7 12.6 14.5 18.1 0.1 0.5-0.3-1.1 0.3 1.1v0.1 0.1l-0.1 0.1-0.1 0.4-0.2 0.6-0.3 1.3-0.8 2.7-1.5 5.2q-1.5 5.2-3 10.4l-0.5-1.2q16 8.7 31.6 17.3l-1.4 0.2q7.3-8.2 14.4-16.3l0.5-0.5 0.6 0.2c7.6 1.9 15.4 2.7 23.1 2.5h0.6l0.3 0.6q5.4 9.6 10.6 19l-1.2-0.5q17.7-5.1 34.6-10l-0.8 1q-0.6-11-1.3-21.7v-0.6l0.5-0.3c6.8-4.1 12.9-9 18.2-14.5l0.4-0.4 0.5 0.1q10.8 3.1 20.9 6l-1 0.5c6.1-11.1 11.9-21.6 17.4-31.6l0.1 1.1c-5.7-5.1-11-9.9-16.2-14.5l-0.4-0.3 0.1-0.5c2-8 2.8-15.8 2.6-23.1v-0.4l0.4-0.3c6.9-3.8 13.2-7.2 19.1-10.5l-0.3 0.8c-3.9-13.4-7.2-24.8-10-34.6l0.5 0.3c-8.6 0.5-15.8 0.9-21.7 1.2h-0.2l-0.1-0.2c-4.1-6.8-7.9-11.3-10.5-14.2q-1.9-2-2.9-3.2-1.1-1.1-1-1.1 0 0 1.1 1c0.7 0.6 1.8 1.6 3.1 3.1 2.7 2.8 6.6 7.3 10.8 14.1l-0.3-0.2c5.9-0.4 13-0.9 21.7-1.5h0.4l0.1 0.4c2.9 9.8 6.3 21.2 10.2 34.5l0.2 0.5-0.5 0.3c-5.9 3.3-12.1 6.8-19 10.6l0.4-0.6c0.2 7.4-0.5 15.3-2.5 23.5l-0.3-0.8c5.2 4.6 10.6 9.4 16.4 14.4l0.5 0.5-0.4 0.6c-5.4 10-11.1 20.5-17.2 31.6l-0.4 0.6-0.7-0.2q-10.2-2.9-20.9-5.9l0.9-0.3c-5.3 5.6-11.5 10.7-18.5 14.9l0.5-0.9q0.7 10.6 1.4 21.7v0.8l-0.8 0.2q-16.8 5-34.5 10.2l-0.8 0.2-0.4-0.7q-5.3-9.4-10.6-19.1l0.9 0.6c-7.8 0.2-15.8-0.7-23.6-2.6l1.1-0.3q-7.2 8-14.4 16.3l-0.6 0.6-0.8-0.4q-15.6-8.5-31.6-17.3l-0.8-0.4 0.3-0.9q1.5-5.2 3-10.4l1.5-5.3 0.7-2.6 0.4-1.3 0.2-0.7 0.1-0.3v-0.2h0.1v-0.1c0.6 2.2 0.1 0.6 0.3 1.1-6-5.6-11-12.1-14.9-18.5l1 0.5c-7.4 0.4-14.8 0.9-21.7 1.3l-0.9 0.1-0.2-0.9c-3.5-11.9-6.9-23.6-10.1-34.6l-0.2-0.8 0.7-0.4c6.6-3.7 13.1-7.3 19.1-10.6l-0.6 1c-0.2-8.3 0.8-16.4 2.6-23.6l0.3 1c-5.6-5-11.2-9.9-16.3-14.4l-0.6-0.6 0.4-0.7c6.1-11 11.9-21.6 17.4-31.6l0.4-0.7 0.7 0.3c7.3 2.1 14.5 4.1 20.9 6l-0.9 0.2c5.7-6 12.2-11 18.5-14.8l-0.4 0.9c-0.5-7.6-0.9-15-1.3-21.8v-0.7l0.6-0.2c12.2-3.5 23.7-6.8 34.6-10l0.6-0.1 0.3 0.5c3.7 6.7 7.3 13.1 10.6 19.1l-0.7-0.4c8.4-0.2 16.3 0.8 23.5 2.7l-0.6 0.2c5.2-5.9 10.1-11.4 14.5-16.3l0.3-0.3 0.4 0.2c12.8 7.1 23.4 13 31.4 17.5l0.3 0.1-0.1 0.3q-3 10.1-4.6 15.5-0.8 2.5-1.2 4-0.5 1.3-0.5 1.3z"/>
								</g>
							</g>
						</g>
					</g>
				</g>
			</g>
			<g id="&lt;Group&gt;">
				<g id="&lt;Group&gt;">
					<path id="&lt;Path&gt;" class="s0" d="m865.6 427l-31.4-124.8 127.7-2.1z"/>
				</g>
				<g id="&lt;Group&gt;">
					<path id="&lt;Path&gt;" class="s0" d="m1157.1 501.7l-43.8 57.8-233.8-177.4 43.9-57.8z"/>
				</g>
			</g>
		</g>
	</g>
	<g id="Character">
		<g id="&lt;Group&gt;">
			<path id="&lt;Path&gt;" class="s3" d="m1094 746l16.2 36.8c0 0-31.9 28.9-29.6 36l72.5-28.9-23-58.4z"/>
			<path id="&lt;Path&gt;" class="s4" d="m1094 746l16.2 36.8c0 0-31.9 28.9-29.6 36l72.5-28.9-23-58.4z"/>
			<path id="&lt;Path&gt;" class="s5" d="m1153.1 789.9l-2.6-5.8-68.5 29.8c0 0-2.6 2.7-1.4 4.9z"/>
			<path id="&lt;Path&gt;" class="s3" d="m1221.6 798.1l20.3 34.7c0 0-28.5 32.3-25.3 39.1l68.6-37-29.4-55.3z"/>
			<path id="&lt;Path&gt;" class="s4" d="m1221.6 798.1l20.3 34.7c0 0-28.5 32.3-25.3 39.1l68.6-37-29.4-55.3z"/>
			<path id="&lt;Path&gt;" class="s5" d="m1285.2 834.9l-3.1-5.4-64.7 37.5c0 0-2.3 2.9-0.8 4.9z"/>
			<g id="&lt;Group&gt;">
				<g id="&lt;Group&gt;">
					<g id="&lt;Group&gt;">
						<g id="&lt;Group&gt;">
							<g id="&lt;Group&gt;">
								<g id="&lt;Group&gt;">
									<g id="&lt;Group&gt;">
										<g id="&lt;Group&gt;">
											<g id="&lt;Group&gt;">
												<g id="&lt;Group&gt;">
													<path id="&lt;Path&gt;" class="s6" d="m1133 311.5l-44.6 3.5-1.4-24.9c0 0-18-0.3-20.7-17.8-2.7-17.5-5.3-58.3-5.3-58.3 19.1-11.6 43-12 62.4-0.9l2.9 1.6z"/>
												</g>
											</g>
										</g>
									</g>
								</g>
								<g id="&lt;Group&gt;">
									<g id="&lt;Group&gt;">
										<g id="&lt;Group&gt;">
											<g id="&lt;Group&gt;">
												<g id="&lt;Group&gt;">
													<path id="&lt;Path&gt;" class="s7" d="m1086.9 289.8c0 0 11.2-0.6 22-9.7 0 0-3.9 13.8-21.7 14.7z"/>
												</g>
											</g>
										</g>
									</g>
								</g>
							</g>
						</g>
					</g>
					<g id="&lt;Group&gt;">
						<g id="&lt;Group&gt;">
							<g id="&lt;Group&gt;">
								<g id="&lt;Group&gt;">
									<g id="&lt;Group&gt;">
										<g id="&lt;Group&gt;">
											<path id="&lt;Path&gt;" class="s6" d="m1126.7 233.2c0.3-0.2 11.6-5.3 12.9 6.8 1.3 12.1-11.1 10.9-11.1 10.6-0.1-0.4-1.8-17.4-1.8-17.4z"/>
										</g>
									</g>
								</g>
							</g>
						</g>
						<g id="&lt;Group&gt;">
							<g id="&lt;Group&gt;">
								<g id="&lt;Group&gt;">
									<g id="&lt;Group&gt;">
										<g id="&lt;Group&gt;">
											<g id="&lt;Group&gt;">
												<path id="&lt;Path&gt;" class="s7" d="m1131.7 245.6c0-0.1 0.2 0.1 0.6 0.2 0.3 0.2 0.9 0.2 1.5-0.1 1.2-0.6 2.1-2.7 1.9-4.9-0.1-1.1-0.4-2.2-0.9-3-0.5-0.8-1.1-1.4-1.7-1.4-0.7-0.1-1.1 0.3-1.2 0.7-0.1 0.3 0 0.6-0.1 0.6 0 0-0.3-0.2-0.2-0.7 0-0.2 0.1-0.5 0.4-0.8 0.2-0.3 0.6-0.4 1.1-0.4 0.9-0.1 1.8 0.7 2.4 1.6 0.6 0.9 1 2.1 1.1 3.3 0.2 2.4-0.8 4.8-2.5 5.5-0.9 0.4-1.6 0.2-2-0.1-0.4-0.2-0.5-0.5-0.4-0.5z"/>
											</g>
										</g>
									</g>
								</g>
							</g>
						</g>
					</g>
					<g id="&lt;Group&gt;">
						<g id="&lt;Group&gt;">
							<g id="&lt;Group&gt;">
								<g id="&lt;Group&gt;">
									<g id="&lt;Group&gt;">
										<g id="&lt;Group&gt;">
											<g id="&lt;Group&gt;">
												<g id="&lt;Group&gt;">
													<g id="&lt;Group&gt;">
														<g id="&lt;Group&gt;">
															<g id="&lt;Group&gt;">
																<path id="&lt;Path&gt;" class="s5" d="m1068.6 241.6c0.1 1.3 1.4 2.3 2.8 2.2 1.4-0.1 2.4-1.3 2.2-2.6-0.1-1.4-1.4-2.4-2.7-2.2-1.4 0.1-2.5 1.3-2.3 2.6z"/>
															</g>
														</g>
													</g>
												</g>
											</g>
											<g id="&lt;Group&gt;">
												<g id="&lt;Group&gt;">
													<g id="&lt;Group&gt;">
														<g id="&lt;Group&gt;">
															<g id="&lt;Group&gt;">
																<g id="&lt;Group&gt;">
																	<path id="&lt;Path&gt;" class="s5" d="m1067.8 238.2c0.4 0.3 2.1-1.4 4.8-1.7 2.7-0.4 4.8 0.7 5.1 0.3 0.1-0.2-0.3-0.7-1.2-1.2-1-0.5-2.5-0.9-4.2-0.7-1.7 0.3-3 1.1-3.7 1.8-0.8 0.8-1 1.4-0.8 1.5z"/>
																</g>
															</g>
														</g>
													</g>
												</g>
											</g>
										</g>
										<g id="&lt;Group&gt;">
											<g id="&lt;Group&gt;">
												<g id="&lt;Group&gt;">
													<g id="&lt;Group&gt;">
														<g id="&lt;Group&gt;">
															<g id="&lt;Group&gt;">
																<path id="&lt;Path&gt;" class="s5" d="m1094.8 238.6c0.2 1.3 1.4 2.3 2.8 2.1 1.4-0.1 2.4-1.2 2.3-2.6-0.2-1.3-1.4-2.3-2.8-2.2-1.4 0.1-2.4 1.3-2.3 2.7z"/>
															</g>
														</g>
													</g>
												</g>
											</g>
											<g id="&lt;Group&gt;">
												<g id="&lt;Group&gt;">
													<g id="&lt;Group&gt;">
														<g id="&lt;Group&gt;">
															<g id="&lt;Group&gt;">
																<g id="&lt;Group&gt;">
																	<path id="&lt;Path&gt;" class="s5" d="m1094.4 235c0.4 0.3 2.1-1.4 4.8-1.8 2.7-0.4 4.8 0.7 5.1 0.4 0.1-0.2-0.3-0.7-1.2-1.2-1-0.6-2.5-1-4.2-0.7-1.7 0.2-3 1-3.7 1.8-0.8 0.8-1 1.4-0.8 1.5z"/>
																</g>
															</g>
														</g>
													</g>
												</g>
											</g>
										</g>
										<g id="&lt;Group&gt;">
											<g id="&lt;Group&gt;">
												<g id="&lt;Group&gt;">
													<g id="&lt;Group&gt;">
														<g id="&lt;Group&gt;">
															<g id="&lt;Group&gt;">
																<path id="&lt;Path&gt;" class="s5" d="m1087.4 256.4c0-0.1-1.7-0.2-4.5-0.2-0.7 0.1-1.3 0-1.5-0.4-0.3-0.5-0.1-1.3 0.2-2.1q0.6-2.7 1.3-5.6c1.7-7.9 2.9-14.3 2.6-14.4-0.3 0-2 6.3-3.8 14.2q-0.6 2.9-1.2 5.5c-0.2 0.8-0.5 1.8 0 2.8 0.3 0.5 0.8 0.8 1.3 0.8 0.5 0.1 0.8 0.1 1.2 0 2.7-0.2 4.4-0.4 4.4-0.6z"/>
															</g>
														</g>
													</g>
												</g>
											</g>
										</g>
										<g id="&lt;Group&gt;">
											<g id="&lt;Group&gt;">
												<g id="&lt;Group&gt;">
													<g id="&lt;Group&gt;">
														<g id="&lt;Group&gt;">
															<g id="&lt;Group&gt;">
																<path id="&lt;Path&gt;" class="s5" d="m1095.6 257.2c-0.4 0 0 2.9-2.2 5.4-2.2 2.4-5.4 2.5-5.4 2.9 0 0.2 0.8 0.5 2.1 0.3 1.3-0.1 3.2-0.8 4.5-2.3 1.4-1.5 1.8-3.3 1.7-4.5 0-1.2-0.5-1.9-0.7-1.8z"/>
															</g>
														</g>
													</g>
												</g>
											</g>
										</g>
									</g>
								</g>
							</g>
							<g id="&lt;Group&gt;">
								<g id="&lt;Group&gt;">
									<g id="&lt;Group&gt;">
										<g id="&lt;Group&gt;">
											<g id="&lt;Group&gt;">
												<path id="&lt;Path&gt;" class="s5" d="m1092.2 224.5c0.4 0.7 3 0 6.3-0.1 3.2-0.1 5.9 0.5 6.2-0.2 0.1-0.4-0.4-1-1.5-1.6-1.2-0.5-2.9-1-4.8-0.9-1.9 0-3.6 0.6-4.7 1.2-1.1 0.6-1.6 1.3-1.5 1.6z"/>
											</g>
										</g>
									</g>
								</g>
							</g>
							<g id="&lt;Group&gt;">
								<g id="&lt;Group&gt;">
									<g id="&lt;Group&gt;">
										<g id="&lt;Group&gt;">
											<g id="&lt;Group&gt;">
												<path id="&lt;Path&gt;" class="s5" d="m1067.7 230.3c0.6 0.5 2.3-0.4 4.6-0.7 2.2-0.4 4.2-0.2 4.5-0.9 0.1-0.3-0.2-0.9-1.1-1.4-0.9-0.4-2.4-0.7-3.9-0.4-1.5 0.2-2.8 1-3.5 1.7-0.7 0.7-0.9 1.4-0.6 1.7z"/>
											</g>
										</g>
									</g>
								</g>
							</g>
						</g>
					</g>
				</g>
				<g id="&lt;Group&gt;">
					<g id="&lt;Group&gt;">
						<g id="&lt;Group&gt;">
							<path id="&lt;Path&gt;" class="s5" d="m1050.9 204.1c-0.5-2.2 0-4.6 1.6-6.1 1.6-1.6 4.3-1.9 6-0.4-1.2-2.8 0.7-6.6 3.7-7.2 2.8-0.6 5.6 1.3 8.5 1.6 2.8 0.4 5.6-0.7 8-2.1 2.5-1.4 4.7-3.2 7.2-4.5 5.2-2.8 11.5-3.4 17.2-1.7 5.6 1.7 10.6 5.7 13.4 10.8 3.7-1.7 8.3-0.4 11.1 2.6 2.9 2.9 4.1 7.1 4.2 11.1 0 2.8-0.4 5.5-0.9 8.2q0 0.3 0.1 0.7c1.1 9.7 1.6 21.2-2.5 21.8-7.1 1.1-7.3-12.7-7.3-12.7-9.3-2.1-7.9-15.8-10.4-17.5-2.5-1.7-7.7-5.7-24.9 6.3-6.6 4.7-16.2 5.9-21.5 5.5q-0.3 0-0.5 0-0.1 0-0.1 0-0.1-0.1-0.2-0.1c-1.7-0.2-3.4-0.6-5-1.3-1.8-0.9-3.5-2.1-4.5-3.8-1-1.8-1-4.1 0.2-5.7-1.6-1.5-2.9-3.3-3.4-5.5z"/>
						</g>
					</g>
				</g>
			</g>
			<g id="&lt;Group&gt;">
				<path id="&lt;Path&gt;" class="s0" d="m1086.9 305.4l2 69.7 43.4-93.4-1.1-8.7z"/>
			</g>
			<g id="&lt;Group&gt;">
				<g id="&lt;Group&gt;">
					<path id="&lt;Path&gt;" class="s5" d="m1115.7 513.9c-1.6 0.5-92 91.9-89.9 108.3 2 16.4 66.3 137.9 66.3 137.9l45.9-22.6-43-106.5 0.5-6.7 52.6-43.1-2.8-69.3z"/>
				</g>
				<g id="&lt;Group&gt;">
					<path id="&lt;Path&gt;" class="s5" d="m1135.2 531.9c1 1.6 16.7 145.1 20.9 152.5 4.2 7.5 67 130 67 130l46.7-18.8-57-134.7 6.5-127.4-3.5-36-70.5 14.4z"/>
				</g>
				<g id="&lt;Group&gt;">
					<g id="&lt;Group&gt;">
						<path id="&lt;Path&gt;" class="s8" d="m1155.2 681.9q0 0-0.3-1.4-0.2-1.6-0.6-4.2c-0.6-3.7-1.4-8.9-2.4-15.2-1.8-13-4.4-30.8-7.2-50.5-2.7-19.6-5.2-37.4-7-50.4-0.8-6.4-1.5-11.6-2-15.4q-0.3-2.6-0.5-4.1-0.1-1.5-0.1-1.5 0.1 0 0.3 1.4 0.3 1.6 0.7 4.2c0.6 3.7 1.4 8.9 2.3 15.3 1.9 13 4.5 30.7 7.3 50.4 2.7 19.7 5.2 37.5 6.9 50.5 0.9 6.4 1.6 11.6 2 15.3q0.4 2.6 0.5 4.2 0.2 1.4 0.1 1.4z"/>
					</g>
				</g>
				<g id="&lt;Group&gt;">
					<g id="&lt;Group&gt;">
						<path id="&lt;Path&gt;" class="s8" d="m1211.6 656.8c0.3 0.1-0.9 5.2-2.7 11.4-1.8 6.2-3.4 11.2-3.7 11.1-0.2-0.1 1-5.2 2.7-11.4 1.8-6.2 3.4-11.2 3.7-11.1z"/>
					</g>
				</g>
				<g id="&lt;Group&gt;">
					<g id="&lt;Group&gt;">
						<path id="&lt;Path&gt;" class="s8" d="m1218.7 689.3c-0.1 0.1-1.2-1.2-2.6-3.5-1.3-2.3-2.8-5.8-3.7-9.9-0.9-4-0.9-7.8-0.6-10.5 0.3-2.7 0.7-4.3 0.9-4.3 0.3 0.1-1.1 6.7 0.7 14.6 1.6 8 5.6 13.5 5.3 13.6z"/>
					</g>
				</g>
				<g id="&lt;Group&gt;">
					<g id="&lt;Group&gt;">
						<path id="&lt;Path&gt;" class="s8" d="m1079.9 615.5c0.1-0.2 3.9 1.3 7.6 4.7 3.6 3.3 5.5 6.9 5.3 7.1-0.2 0.1-2.5-3.1-6-6.4-3.6-3.2-7-5.1-6.9-5.4z"/>
					</g>
				</g>
				<g id="&lt;Group&gt;">
					<g id="&lt;Group&gt;">
						<path id="&lt;Path&gt;" class="s8" d="m1087 611.3c0.2-0.2 2.5 1.8 4.4 5 2 3.2 2.8 6.2 2.6 6.2-0.3 0.1-1.5-2.6-3.4-5.7-1.9-3.1-3.8-5.3-3.6-5.5z"/>
					</g>
				</g>
			</g>
			<g id="&lt;Group&gt;">
				<g id="&lt;Group&gt;">
					<g id="&lt;Group&gt;">
						<path id="&lt;Path&gt;" class="s3" d="m1093.2 401.8l11.6 57.3 9.4 80c0 0 38.7-5.4 55.3-10.6 19.1-6.1 60.8-11.3 60.8-11.3l-7 7c14.9-4.2 24.4-18.4 24.4-18.4-25.7-23.9-47.7-72.9-47.7-72.9l-19.5-97.1c0 0-3-13.6-4.8-19.7-1.7-6.1-31.4-25.8-35.5-28.2l-2.6-1.3-0.8-7.7-3.1-1.9-32.1 29.2c-6.3 5.7-10.3 13.4-11.2 21.8-1 8.9-1.9 21.5-1.4 36.5 0.4 11.4 4.2 37.3 4.2 37.3z"/>
					</g>
				</g>
				<g id="&lt;Group&gt;">
					<g id="&lt;Group&gt;">
						<path id="&lt;Path&gt;" class="s3" d="m1115.3 302.6c0 0-17 9.1-19.9 16.8-3 7.7 5.8 92.3 5.8 92.3l-61 1.2-0.1 36.3c0 0 96.7 7.7 100.5 2.4 5.1-7.1 11-73.2 11-73.2l2.2-47.6c0 0-5.6-36.3-38.5-28.2z"/>
					</g>
					<g id="&lt;Group&gt;" style="opacity: .3">
						<g id="&lt;Group&gt;">
							<path id="&lt;Path&gt;" class="s9" d="m1104.8 459.1c8.2 2.7 15.8 3.1 24.4 2.3 8.6-0.8 17.3-5.5 20.5-13.5 2.5-6.1 1.5-13 1.9-19.6 0.3-5.7 1.7-11.3 2.6-17 0.8-5.6-2.1-16-4-21.5 0 0-2.1 39.3-8.3 55.8-0.8 2.3-1.9 4.5-3.8 6-2.1 1.8-5.1 2-7.9 2.2-7.8 0.9-26.6-0.5-26.6-0.5"/>
						</g>
					</g>
					<g id="&lt;Group&gt;">
						<g id="&lt;Group&gt;">
							<path id="&lt;Path&gt;" class="s5" d="m1153.7 335.9q0 0.1 0 0.9 0 0.9-0.1 2.5c-0.1 2.3-0.2 5.6-0.4 9.8-0.3 4.2-0.5 9.4-0.9 15.3-0.3 6-0.5 12.9-1.3 20.4-0.6 7.5-1.4 15.8-2.3 24.6-1 8.8-2.1 18.3-3.7 28.1-0.5 2.5-0.9 5-1.7 7.5-0.9 2.5-2.3 4.9-4.4 6.6-2.1 1.7-4.8 2.9-7.6 2.7-2.7 0.1-5.4 0-8.1 0-10.9-0.3-22.1-0.9-33.6-1.5-17.3-0.9-34-2-49.6-3.1l-0.4-0.1v-0.4c0.1-12.9 0.1-25 0.2-36.3v-0.4h0.4c24.3-0.5 44.6-0.9 58.8-1.2 7.1-0.2 12.6-0.3 16.5-0.3q2.8-0.1 4.3-0.1c1 0 1.5 0.1 1.5 0.1 0 0-0.5 0-1.5 0.1q-1.5 0-4.3 0.1c-3.9 0.2-9.4 0.3-16.5 0.6-14.2 0.3-34.4 0.9-58.8 1.6l0.5-0.4c-0.1 11.2-0.1 23.3-0.2 36.2l-0.4-0.5c15.6 1.1 32.2 2.2 49.5 3.1 11.5 0.6 22.8 1.2 33.6 1.5 2.7 0 5.4 0.1 8.1 0 2.6 0.2 5-0.9 7-2.4 1.9-1.6 3.3-3.8 4.1-6.2 0.8-2.4 1.2-4.9 1.6-7.3 1.7-9.8 2.8-19.3 3.8-28.1 1-8.8 1.8-17 2.5-24.6 0.8-7.5 1.1-14.3 1.5-20.3 0.4-6 0.7-11.1 1-15.4 0.2-4.1 0.5-7.4 0.6-9.7q0.1-1.6 0.2-2.5 0.1-0.8 0.1-0.9z"/>
						</g>
					</g>
					<g id="&lt;Group&gt;">
						<g id="&lt;Group&gt;">
							<path id="&lt;Path&gt;" class="s5" d="m1052 448.7c-0.3 0-0.4-7.9-0.4-17.6 0.1-9.8 0.3-17.6 0.6-17.6 0.3 0 0.5 7.8 0.4 17.6 0 9.7-0.3 17.6-0.6 17.6z"/>
						</g>
					</g>
					<g id="&lt;Group&gt;">
						<g id="&lt;Group&gt;">
							<path id="&lt;Path&gt;" class="s5" d="m1045.6 419c-0.2-0.1 0.4-0.8 1.6-0.4 0.5 0.2 1.2 0.8 1.2 1.6 0.1 0.8-0.3 1.8-1.2 2.2-0.9 0.4-1.9 0.1-2.4-0.5-0.7-0.5-0.8-1.3-0.6-1.9 0.2-1.1 1-1.4 1.1-1.2 0.1 0.1-0.4 0.5-0.4 1.3 0 0.4 0.1 0.9 0.5 1.2 0.3 0.3 0.9 0.4 1.4 0.2 0.4-0.2 0.7-0.8 0.7-1.2 0-0.5-0.3-0.8-0.6-1-0.7-0.5-1.3-0.2-1.3-0.3z"/>
						</g>
					</g>
				</g>
				<g id="&lt;Group&gt;">
					<path id="&lt;Path&gt;" class="s3" d="m1180.8 344.2c0 0 31.7 41.4 35.5 52.7 3.9 11.3 0.9 27.5-5.5 35.3-6.5 7.7-11.7 4.6-11.7 4.6z"/>
				</g>
				<g id="&lt;Group&gt;">
					<g id="&lt;Group&gt;">
						<path id="&lt;Path&gt;" class="s5" d="m1198 433.5c0 0.2-3.6 1.1-8 1.8-4.4 0.8-8.1 1.2-8.1 0.9 0-0.3 3.5-1.1 7.9-1.9 4.5-0.7 8.1-1.1 8.2-0.8z"/>
					</g>
				</g>
				<g id="&lt;Group&gt;">
					<g id="&lt;Group&gt;">
						<path id="&lt;Path&gt;" class="s5" d="m1204.1 464c0 0 0.3 0.8 0.8 2.2 0.5 1.4 1.2 3.5 2.2 6 1.8 5.1 4.7 11.9 8.5 19.2 3.8 7.3 7.7 13.6 10.6 18.1 1.5 2.3 2.7 4.1 3.6 5.3 0.8 1.3 1.3 2 1.2 2 0 0.1-0.6-0.5-1.5-1.7-1-1.2-2.3-2.9-3.9-5.2-3.1-4.4-7.1-10.7-10.9-18-3.8-7.4-6.6-14.3-8.3-19.5-0.9-2.5-1.5-4.6-1.9-6.1-0.3-1.4-0.5-2.3-0.4-2.3z"/>
					</g>
				</g>
				<g id="&lt;Group&gt;" style="opacity: .3">
					<g id="&lt;Group&gt;">
						<path id="&lt;Path&gt;" class="s9" d="m1206.2 468.9c5 9 10.2 18.1 17.8 25 2.7 2.4 5.8 4.5 7.8 7.5 2.1 3 3 7.1 1 10.2-0.7 1.1-1.9 2-3.1 1.7-0.9-0.2-1.5-1-2.1-1.7-9.5-12.3-16.7-26.4-21.1-41.3"/>
					</g>
				</g>
				<g id="&lt;Group&gt;" style="opacity: .3">
					<g id="&lt;Group&gt;">
						<path id="&lt;Path&gt;" class="s9" d="m1202 436.6c4.4-3.1 5.9-9 5.2-14.3-0.6-5.3-3-10.2-5.2-15.1-6.8-15.1-11.4-28.8-15.5-45.3l-3.1-11.5 15.7 82z"/>
					</g>
				</g>
				<g id="&lt;Group&gt;">
					<g id="&lt;Group&gt;">
						<path id="&lt;Path&gt;" class="s5" d="m1123.5 298.9c-0.1-0.3 2.7-2.7 5.9-5.9 3.3-3.3 5.7-6.1 6-5.9 0.2 0.1-1.9 3.3-5.2 6.6-3.3 3.3-6.5 5.4-6.7 5.2z"/>
					</g>
				</g>
				<g id="&lt;Group&gt;">
					<g id="&lt;Group&gt;">
						<path id="&lt;Path&gt;" class="s5" d="m1120.3 305.9c0.1 0.2-1.8 0.7-4.6 2.1-2.8 1.4-6.5 3.7-9.8 7.1-3.4 3.4-5.7 7.1-7 10-1.4 2.8-1.9 4.7-2.1 4.6-0.1 0 0-0.5 0.2-1.4 0.2-0.8 0.6-2.1 1.2-3.5 1.2-3 3.5-6.9 7-10.4 3.4-3.5 7.3-5.8 10.2-7 1.5-0.6 2.7-1.1 3.6-1.3 0.8-0.2 1.3-0.3 1.3-0.2z"/>
					</g>
				</g>
				<g id="&lt;Group&gt;">
					<g id="&lt;Group&gt;">
						<path id="&lt;Path&gt;" class="s5" d="m1205.5 444.9q-0.1 0-0.5-0.8-0.5-1-1.3-2.4c-1.1-2.2-2.7-5.2-4.6-8.9v-0.1c-2-9.1-4.8-22.3-7.8-37.1-2.8-13.9-5.4-26.4-7.3-35.7-0.8-4.5-1.5-8.1-2-10.9q-0.3-1.7-0.6-2.9-0.1-1-0.1-1.1 0.1 0 0.3 1 0.3 1.2 0.7 3c0.6 2.7 1.5 6.3 2.4 10.8 2 9.2 4.6 21.8 7.6 35.6 3 14.8 5.7 28 7.5 37.2v-0.1c1.7 3.7 3.2 6.8 4.2 9q0.7 1.5 1.2 2.5 0.3 0.8 0.3 0.9z"/>
					</g>
				</g>
				<g id="&lt;Group&gt;">
					<g id="&lt;Group&gt;">
						<path id="&lt;Path&gt;" class="s5" d="m1100.1 411.7c0 0-0.2-1-0.4-3-0.3-2.1-0.6-4.9-0.9-8.2-0.7-7-1.7-16.6-2.6-27.2-0.9-10.6-1.7-20.2-2.3-27.2-0.2-3.3-0.4-6.1-0.6-8.2-0.1-2-0.1-3.1 0-3.1 0 0 0.2 1.1 0.4 3 0.3 2.1 0.6 4.9 0.9 8.3 0.7 6.9 1.7 16.5 2.6 27.1 0.9 10.6 1.7 20.3 2.3 27.2 0.2 3.4 0.4 6.1 0.6 8.3 0.1 1.9 0.1 3 0 3z"/>
					</g>
				</g>
			</g>
			<g id="&lt;Group&gt;">
				<g id="&lt;Group&gt;">
					<g id="&lt;Group&gt;">
						<path id="&lt;Path&gt;" class="s6" d="m1041 417.1c0 0-13.1-9.9-16.3-10.5-2.5-0.5-17.2-0.2-23.9-0.1-2.6 0-4.9 2.1-4.8 4.7q0 0.2 0 0.5c0.5 2.7 3.2 3.3 3.2 3.3 0 0-3.5 1-3.5 4.8-0.1 3.8 4.5 4.6 4.5 4.6 0 0-0.3 0.2-0.7 0.6-2.5 2.5-1.2 6.8 2.3 7.6l2.1 0.5c0 0-2.9 1.2-2.8 3.8 0.1 5 11.3 5.9 11.3 5.9 0 0 27.9 4.5 28.5 4.3 0.6-0.2 0.1-30 0.1-30z"/>
					</g>
					<g id="&lt;Group&gt;">
						<path id="&lt;Path&gt;" class="s6" d="m1003.4 400.6c0.1 1.6 0.5 5.1 3.3 6.7l15.5-0.6c0 0-11.5-4-13.2-5.9-0.5-0.7-1.3-1.6-2.2-2.2-1.5-1.1-3.5 0.1-3.4 2z"/>
					</g>
				</g>
				<g id="&lt;Group&gt;">
					<g id="&lt;Group&gt;">
						<path id="&lt;Path&gt;" class="s7" d="m1014.9 406.6c0 0.2-3.1 0.5-7.1 0.5-3.9-0.1-7-0.3-7-0.5 0-0.3 3.1-0.6 7.1-0.5 3.9 0 7 0.2 7 0.5z"/>
					</g>
				</g>
				<g id="&lt;Group&gt;">
					<g id="&lt;Group&gt;">
						<path id="&lt;Path&gt;" class="s7" d="m1011.4 415.2c0.1 0.3-2.7 0.8-6.1 0.7-3.4-0.2-6.1-0.8-6-1.1 0-0.3 2.7-0.1 6.1 0.1 3.3 0.1 6 0 6 0.3z"/>
					</g>
				</g>
				<g id="&lt;Group&gt;">
					<g id="&lt;Group&gt;">
						<path id="&lt;Path&gt;" class="s7" d="m1019.3 414.1c0.3 0.2 0 1-0.9 1.6-0.9 0.5-1.8 0.5-1.8 0.2-0.1-0.3 0.6-0.6 1.2-1.1 0.7-0.4 1.3-0.8 1.5-0.7z"/>
					</g>
				</g>
				<g id="&lt;Group&gt;">
					<g id="&lt;Group&gt;">
						<path id="&lt;Path&gt;" class="s7" d="m1013.1 425.1c0 0.2-3 0.4-6.6 0.3-3.7-0.2-6.7-0.5-6.7-0.8 0-0.2 3-0.4 6.7-0.3 3.7 0.2 6.7 0.5 6.6 0.8z"/>
					</g>
				</g>
				<g id="&lt;Group&gt;">
					<g id="&lt;Group&gt;">
						<path id="&lt;Path&gt;" class="s7" d="m1022 420.9c0.1 0 0.4 0.3 0.5 0.9 0 0.6-0.1 1.5-0.7 2.3-0.6 0.7-1.5 1.1-2.1 1.2-0.6 0-0.9-0.1-0.9-0.3 0-0.2 1.3-0.4 2.2-1.5 0.9-1.2 0.8-2.5 1-2.6z"/>
					</g>
				</g>
				<g id="&lt;Group&gt;">
					<g id="&lt;Group&gt;">
						<path id="&lt;Path&gt;" class="s7" d="m1015.5 434.7c0 0.3-2.7 0.2-6-0.2-3.3-0.4-6-1-6-1.3 0.1-0.3 2.8-0.1 6.1 0.3 3.3 0.4 5.9 0.9 5.9 1.2z"/>
					</g>
				</g>
				<g id="&lt;Group&gt;">
					<g id="&lt;Group&gt;">
						<path id="&lt;Path&gt;" class="s7" d="m1024.2 429.8c0.1 0 0.3 0.3 0.3 0.9-0.1 0.6-0.3 1.4-0.9 2.1-1.1 1.4-2.4 1.9-2.5 1.7-0.2-0.2 0.8-1.1 1.7-2.3 1-1.1 1.1-2.3 1.4-2.4z"/>
					</g>
				</g>
			</g>
			<g id="&lt;Group&gt;">
				<path id="&lt;Path&gt;" class="s3" d="m1218 525c5.5-0.5 10.7-3.7 13.5-8.5 0.3-0.5 0.6-1.2 0.1-1.7-0.2-0.3-0.7-0.3-1.1-0.4-4.4 0-8.7 0.8-12.8 2.2-0.5 0.2-1 0.4-1.1 0.9-0.2 0.3-0.1 0.7 0 1q0.8 3.2 1.7 6.4"/>
			</g>
			<g id="&lt;Group&gt;" style="opacity: .4">
				<g id="&lt;Group&gt;">
					<path id="&lt;Path&gt;" class="s9" d="m1218 525c5.5-0.5 10.7-3.7 13.5-8.5 0.3-0.5 0.6-1.2 0.1-1.7-0.2-0.3-0.7-0.3-1.1-0.4-4.4 0-8.7 0.8-12.8 2.2-0.5 0.2-1 0.4-1.1 0.9-0.2 0.3-0.1 0.7 0 1q0.8 3.2 1.7 6.4"/>
				</g>
			</g>
			<g id="&lt;Group&gt;">
				<g id="&lt;Group&gt;">
					<path id="&lt;Path&gt;" class="s0" d="m1086.9 305.4c0 0-6.4 21.4-4.6 20.2 1.7-1.2 5.5-4.6 5.5-4.6z"/>
				</g>
				<g id="&lt;Group&gt;">
					<path id="&lt;Path&gt;" class="s5" d="m1087.3 315.3l-3.5 8.3q-0.5 1.3-0.7 2.7c-0.3 2.4-0.6 6.6 0.8 6.9 1.9 0.5 3.7-1.5 3.7-1.5z"/>
				</g>
				<g id="&lt;Group&gt;">
					<g id="&lt;Group&gt;">
						<path id="&lt;Path&gt;" class="s5" d="m1195.7 316.6c0 0-34.2-13.4-53.2-1.6-18.9 11.8-22.3 30.6-33.6 30.6-22 0-21.3-15.5-21.3-15.5l-4.7 1.4c-0.1 3.2-5.1 26 18.1 28.8 23.2 2.8 32.9-28.8 53.8-28.8 20.8 0 36.6 11.3 36.6 11.3l15-9.5z"/>
					</g>
					<g id="&lt;Group&gt;">
						<path id="&lt;Path&gt;" class="s8" d="m1107.9 359.9c0 0 8.6-4.4 13.2-15.1 5.3-12.3 16.7-26.3 26.3-29.8 9.5-3.5 31.5-6 46.7 4l9.8 13.1-12.7 8.2c0 0-10-5.5-22.3-8.9-15.7-4.4-25.3 0.6-34.4 9.2q-0.9 0.8-1.5 1.6c-2.4 2.6-8.7 8.7-14.5 12.8-4.5 3.2-8.5 4.9-10.6 4.9z"/>
					</g>
				</g>
			</g>
		</g>
	</g>
	<g id="Flag">
		<g id="&lt;Group&gt;">
			<g id="&lt;Group&gt;">
				<path id="&lt;Path&gt;" class="s3" d="m399.9 173.7c-20.2 3.2-35.1-13.9-39.8-29-4.4-14-6.5-28.6-12.6-41.9-8.6-18.6-31.4-27.2-51.8-25.5-20.5 1.7-41 12-59.1 21.6l5 112.1c0 0 39.3-41.9 58.2-42.7 31.6-1.3 29.9 50.6 60.5 58.2 0 0 43 11.7 72-25.8 18.4-23.8 20.1-52.8 20.1-52.8 0 0-14.1 19.9-52.5 25.8z"/>
			</g>
			<g id="&lt;Group&gt;">
				<g id="&lt;Group&gt;">
					<path id="&lt;Path&gt;" class="s5" d="m235.8 80.3c0.2 0 5.8 119 12.3 265.7 6.5 146.8 11.6 265.8 11.3 265.8-0.3 0-5.8-118.9-12.3-265.7-6.5-146.8-11.6-265.7-11.3-265.8z"/>
				</g>
			</g>
			<g id="&lt;Group&gt;" style="opacity: .2">
				<g id="&lt;Group&gt;">
					<path id="&lt;Path&gt;" class="s9" d="m344.1 136.9c2.8 10.5 9.1 24.5 14.9 33.7 5.8 9.1 14.7 16.8 25.3 19 1.9 0.4 3.9 0.6 5.7 1.5 1.8 0.8 3.3 2.5 3.4 4.4 0.1 3-3 4.9-5.6 6.2-3.7 1.8-7.5 3.7-11.7 4.5-4.1 0.7-7.3 1.2-10.1-1.9-2.4-2.6-5.5-5.7-7.3-8.8-9.3-15.8-13.9-38.3-14.6-56.2"/>
				</g>
			</g>
			<g id="&lt;Group&gt;">
				<g id="&lt;Group&gt;">
					<path id="&lt;Path&gt;" class="s5" d="m371.5 208.9q0 0-0.9-0.6-0.9-0.5-2.4-1.7c-2-1.7-4.8-4.3-7.5-8.2-2.7-3.8-5.4-8.7-7.5-14.5-2.2-5.8-3.9-12.4-5.5-19.3-3.3-13.8-4.7-26.7-5.2-36-0.3-4.6-0.3-8.4-0.3-11q0-1.8 0.1-3 0-1 0-1 0.1 0 0.2 1 0 1.2 0.1 3c0.1 2.6 0.2 6.4 0.6 11 0.7 9.2 2.2 22 5.4 35.8 1.6 6.9 3.4 13.4 5.5 19.2 2 5.7 4.6 10.6 7.2 14.4 2.6 3.9 5.2 6.5 7.1 8.3 2 1.7 3.2 2.5 3.1 2.6z"/>
				</g>
			</g>
		</g>
	</g>
	<g id="Stairs">
		<g id="&lt;Group&gt;">
			<path id="&lt;Path&gt;" class="s1" d="m113.5 635.4l267.9 43.9v-43.9z"/>
		</g>
		<g id="&lt;Group&gt;">
			<path id="&lt;Path&gt;" class="s1" d="m425.6 734.5l268 43.9v-43.9z"/>
		</g>
		<g id="&lt;Group&gt;">
			<path id="&lt;Path&gt;" class="s1" d="m735.7 829.3l267.9 43.9v-43.9z"/>
		</g>
		<g id="&lt;Group&gt;">
			<path id="&lt;Path&gt;" class="s1" d="m1045.3 904.8l267.9 43.8v-43.8z"/>
		</g>
		<g id="&lt;Group&gt;">
			<g id="&lt;Group&gt;">
				<path id="&lt;Path&gt;" class="s3" d="m381.4 635.4h-267.9v-32.8h267.9z"/>
			</g>
			<g id="&lt;Group&gt;" style="opacity: .3">
				<path id="&lt;Path&gt;" class="s9" d="m381.4 635.4h-83.6v-32.8h83.6z"/>
			</g>
		</g>
		<g id="&lt;Group&gt;">
			<g id="&lt;Group&gt;">
				<path id="&lt;Path&gt;" class="s3" d="m693.6 734.5h-268v-32.8h268z"/>
			</g>
			<g id="&lt;Group&gt;" style="opacity: .3">
				<path id="&lt;Path&gt;" class="s9" d="m693.6 734.5h-83.6v-32.8h83.6z"/>
			</g>
		</g>
		<g id="&lt;Group&gt;">
			<g id="&lt;Group&gt;">
				<path id="&lt;Path&gt;" class="s3" d="m1003.6 829.3h-267.9v-32.8h267.9z"/>
			</g>
			<g id="&lt;Group&gt;" style="opacity: .3">
				<path id="&lt;Path&gt;" class="s9" d="m1003.6 829.3h-83.6v-32.8h83.6z"/>
			</g>
		</g>
		<g id="&lt;Group&gt;">
			<g id="&lt;Group&gt;">
				<path id="&lt;Path&gt;" class="s3" d="m1313.6 904.8h-267.9v-32.9h267.9z"/>
			</g>
			<g id="&lt;Group&gt;" style="opacity: .3">
				<path id="&lt;Path&gt;" class="s9" d="m1313.6 904.8h-83.6v-32.9h83.6z"/>
			</g>
		</g>
		<g id="&lt;Group&gt;">
			<g id="&lt;Group&gt;">
				<path id="&lt;Path&gt;" class="s0" d="m1148.5 752.3c0 4 3.3 7.3 7.3 7.3 4 0 7.3-3.3 7.3-7.3 0-4-3.3-7.3-7.3-7.3-4 0-7.3 3.3-7.3 7.3z"/>
			</g>
		</g>
	</g>
</svg>
