<svg version="1.2" xmlns="http://www.w3.org/2000/svg" viewBox="0 0 2600 2000" width="2600" height="2000">
	<title>Business people writing agreement, shaking hands-ai</title>
	<style>
		.s0 { fill: #d4e8ff } 
		.s1 { fill: #80c3fc } 
		.s2 { fill: #a6d9fd } 
		.s3 { fill: #42a1f6 } 
		.s4 { fill: #fcb4b4 } 
		.s5 { fill: #eb5648 } 
		.s6 { fill: #3a72aa } 
		.s7 { fill: #8a9edd } 
		.s8 { fill: #7689d6 } 
		.s9 { fill: #ffffff } 
		.s10 { fill: #f5faff } 
		.s11 { fill: #b1d2ef } 
		.s12 { fill: #f49f9f } 
		.s13 { fill: #f9c0c0 } 
		.s14 { fill: #f99370 } 
		.s15 { fill: #103663 } 
		.s16 { fill: #e8c0a6 } 
		.s17 { fill: #0f2e54 } 
		.s18 { fill: #1d3f70 } 
		.s19 { fill: #e57d61 } 
		.s20 { fill: #23659b } 
		.s21 { fill: #ce3932 } 
		.s22 { opacity: .1;fill: #ffffff } 
		.s23 { opacity: .2;fill: #ffffff } 
		.s24 { fill: #8e4a35 } 
		.s25 { fill: #c16256 } 
		.s26 { fill: #f9f8f3 } 
		.s27 { fill: #c92828 } 
		.s28 { fill: #a523a2 } 
		.s29 { fill: #ce4abf } 
		.s30 { fill: #163860 } 
		.s31 { fill: #d8b09a } 
		.s32 { fill: #d1a68f } 
		.s33 { fill: #f4d4be } 
		.s34 { fill: #8c4225 } 
		.s35 { fill: #7f341c } 
		.s36 { fill: #99452b } 
		.s37 { fill: #163260 } 
	</style>
	<g id="321353356351 1">
		<g id="&lt;Group&gt;">
			<g id="5">
				<path id="&lt;Path&gt;" class="s0" d="m519.5 1652.9c0 0-283.7-716.3-79.5-875.8 136.5-106.6 281.1 128.4 453.8 4.1 153.7-110.7-60.6-389.5 195.9-462.5 269.6-76.6 490.4 544.3 716.6 458.4 274.5-104.1 547.5 107.3 311.6 877.2z"/>
				<path id="&lt;Compound Path&gt;" class="s1" d="m1198.3 90.8l-2.1 11.2c14.4 2.5 28.5 7.4 42.1 14.5l5.5-10c-14.7-7.7-30-13-45.5-15.7zm-48.4-0.5c-16.2 2.5-31.4 8.1-45.2 16.7l6.3 9.5c12.4-7.7 26.1-12.8 40.7-15zm162.4 74q-1.2-1.4-2.5-2.9-8.8-10.2-17.8-18.9-4.6-4.5-9.2-8.6l-7.8 8.4q4.2 3.7 8.4 7.8c5.7 5.5 11.3 11.5 16.9 18q1.6 1.7 3.1 3.6 1.4 1.7 2.8 3.4l9.1-7.1q-1.5-1.9-3-3.7zm-243-25.3c-9.1 11.2-17.6 24.6-25.2 39.7l10.4 5.1c7.3-14.4 15.4-27.1 24-37.8zm290.7 95.4c-5.7-10-11.5-19.6-17.3-28.5l-3.9 2.4-5.9 3.7q2.8 4.3 5.6 8.8 5.8 9.3 11.5 19.5 3.1 5.4 6.1 11l10.3-5.4q-3.2-5.8-6.4-11.5zm-334-12.6c-4.8 13.6-9.3 28.5-13.3 44.4l11.3 2.8c3.9-15.6 8.3-30.3 13-43.6zm361.4 65.5l-10.5 4.8c6.1 13.1 12.4 27.1 18.7 41.8l10.8-4.4c-6.4-14.8-12.7-29-19-42.2zm-384.8 24.1c-2.7 14.3-5.3 29.6-7.7 45.5l11.6 1.6c2.3-15.7 4.9-30.9 7.6-45zm437.4 103.7c-3.8-10.3-7.4-19.9-11-29.2q-2.6-6.9-5.3-13.6l-6.3 2.3-4.5 1.7c4.4 11.4 8.9 23.1 13.5 35.7q1.3 3.5 2.7 7.2l11-3.9q-0.1-0.1-0.1-0.2zm-451.1-12.5c-1.6 14.4-3.2 29.8-4.7 45.7l11.6 1c1.5-15.8 3-31.1 4.7-45.5zm1008.2 43.7l-1.1 11.3c14.4 1.4 29 5 43.4 11l4.6-10.5c-15.6-6.4-31.3-10.4-46.9-11.8zm-48.4 5.4c-14.3 4.5-28.7 11.7-43.1 21.5l6.7 9.3c13.4-9.1 26.8-15.9 39.9-20zm-482.6 37c-3.8-11-7.2-20.8-10.4-29.9l-11 3.7c4.1 11.7 8.5 24.4 13.7 39.6q0.6 1.9 1.3 3.8l11-3.7c-1.6-4.7-3.1-9.2-4.6-13.5zm619.7-7.3l-6.9 9.2c11.7 8.3 23.3 18.2 34.5 29.4l8.4-7.9c-11.7-11.7-23.8-22-36-30.7zm-1604.2 32.3l-1.5 11.3c13.6 1.8 27.9 6.3 42.5 13.4l5.1-10.2c-15.6-7.6-31.1-12.5-46.1-14.5zm499-19.5c-1.1 14.4-2.1 29.4-3.1 45.9l11.6 0.7c1-16.5 2-31.5 3.1-45.8zm888.7 9.3c-10.3 10.1-20.7 21.4-31.6 34.6l9 7.1c10.7-12.8 20.8-23.8 30.9-33.7zm-1436.5 14c-14.6 4.4-29.1 11.8-43 22.2l7.1 9c12.8-9.5 26-16.3 39.3-20.3zm1719.9 29.8l-9.3 6.9c8.9 11.5 17.6 24.1 26 37.4l9.9-6c-8.5-13.6-17.5-26.5-26.6-38.3zm-1584.5 6l-7.1 9c11.1 8.4 22.8 18.4 34.7 29.7l8.2-8.1c-12.3-11.6-24.3-21.9-35.8-30.6zm917.4-7.6l-10.8 3.6h-0.3q0 0.1 0.1 0.1c2.4 7.2 5.1 15.1 7.9 23.3 2.3 6.6 4.7 13.4 7 20.1l8.2-2.7 2.9-0.9c-5.4-15.3-10.6-30.5-15-43.5zm-1130.3 26.6c-9.5 10.9-18.9 23.6-28.1 37.5l9.9 6.2c8.8-13.6 18-25.8 27.1-36.4zm1453.8 2.6c-8.2 11.2-16.9 23.7-26.6 38l9.7 6.3c9.7-14.3 18.3-26.6 26.4-37.7zm-834.2 11.1c-0.9 15.4-1.7 30.6-2.4 45.8l11.6 0.6c0.8-15.2 1.5-30.4 2.4-45.8zm-338.3 31.4l-8.7 7.6c9.7 10.6 19.5 22 30.1 34.8l9-7.1c-10.6-13-20.6-24.5-30.4-35.3zm1565.8 8.6l-10.4 5.1c6.8 13 13.4 26.9 19.7 41.1l10.7-4.5c-6.3-14.4-13.1-28.5-20-41.7zm-686.3 6.4l-11 3.8c5.9 16.1 11.4 30.2 16.7 43.1l10.8-4.2c-5.2-12.8-10.6-26.8-16.5-42.7zm240.8 19c-8.7 13.2-17.2 26.2-25.5 38.5l9.7 6.2c8.3-12.3 16.9-25.4 25.6-38.5zm-1453.3-1.5q-10.8 20.4-20.4 41.6l10.7 4.5q9.4-20.8 20.1-40.9zm666.4 27.7c-1 17.5-1.9 32.4-2.8 45.7l9.4 0.6 2.3 0.2q0.1-1.5 0.2-2.9c0.8-12.7 1.6-26.7 2.5-43zm-274 11.4l-9.3 6.8c8.4 10.9 17.3 22.5 27.9 36.7l9.5-6.7c-10.7-14.2-19.7-25.9-28.1-36.8zm1543.7 21.6l-10.9 3.8c5.2 13.9 10.2 28.4 14.9 43.1l11.1-3.3c-4.7-14.9-9.8-29.6-15.1-43.6zm-688.7 6.2l-10.5 4.9c7.8 16.2 15.3 29.5 22.8 40.9l9.8-6.2c-7.3-10.9-14.5-23.9-22.1-39.6zm154 10.7c-9.7 13-18.4 23.6-26.5 32.5q-1.2 1.4-2.5 2.7l8.6 7.7q2.1-2.3 4.3-4.7c7.9-8.8 16.3-19.2 25.5-31.6zm-1439.5 6.8c-5.4 14.2-10.5 28.9-15.1 43.6l11.1 3.4c4.6-14.6 9.6-29.1 14.9-43.1zm1376 55.6c-13.5 6.3-26 6.3-38.8-1.6l-6.2 9.6c8.5 5.3 17.4 7.9 26.5 7.9 7.6 0 15.5-1.9 23.6-5.6zm-889.8-26.9l-9.5 6.7c8.5 11.3 18.3 24.5 27.8 37l9.4-6.8c-9.5-12.4-19.3-25.6-27.7-36.9zm212.1 6.1c-1.5 17-3.1 31.8-4.9 45.4l1.9 0.2 9.6 1.2q0.8-6.1 1.6-12.6c1.2-10.2 2.3-21.2 3.4-33.2zm1304 29.3l-11.3 2.9c3.9 14.3 7.7 29.2 11.1 44.2l11.4-2.4c-3.5-15.2-7.3-30.2-11.2-44.7zm-2030 23.9c-3.8 14.7-7.2 29.8-10.2 45l11.4 2.2c3-15 6.4-30 10.1-44.4zm587.2 34.7q-2-2.3-4.1-4.8-6.3-7.5-13.2-16l-9.2 7q4.9 6 9.4 11.5 0 0 0 0 2.3 2.7 4.4 5.2c5.8 6.8 11.3 13.1 16.6 18.8l8.6-7.6c-4-4.4-8.2-9.1-12.5-14.1zm132.2 3.4l-6-1.2q0 0.2-0.1 0.5-1.5 6.9-3.3 13.1-1.2 4.6-2.6 8.8c-2.5 7.6-5.1 14.2-8 19.6l10.4 5.2q2.3-4.5 4.4-9.6c3-7.3 5.7-15.7 8.2-25.3q1.3-4.8 2.4-9.9zm-59.5 58.8c-8.8-3.3-17-8.9-27.3-16.8l-7.4 8.8c11.6 8.9 20.9 15.1 31.2 18.9 4.1 1.4 8.4 2.5 12.9 3.2l1.3-11.3c-3.8-0.6-7.3-1.5-10.7-2.8zm1390.8-31.3l-11.5 2.1c2.8 14.7 5.5 29.8 7.9 44.9l11.5-1.7c-2.4-15.3-5.1-30.5-7.9-45.3zm-2068.8 24.6c-2.2 15-4.1 30.3-5.7 45.7l11.6 1.1c1.5-15.2 3.4-30.4 5.7-45.1zm2083.2 66.1l-11.5 1.4c1.9 14.8 3.7 30.1 5.2 45.3l11.6-1.1c-1.6-15.4-3.3-30.7-5.3-45.6zm-2092.7 25.4c-0.9 15-1.5 30.5-1.9 45.9l11.7 0.2c0.3-15.3 0.9-30.6 1.8-45.5zm2102.1 66l-11.6 0.8c1.1 15 2.1 30.3 2.9 45.6l11.6-0.6c-0.8-15.4-1.8-30.8-2.9-45.8zm-2092.4 25.7l-11.7 0.2c0.3 15.1 0.8 30.5 1.6 45.9l11.6-0.5c-0.8-15.3-1.3-30.6-1.5-45.6zm2097.2 65.9l-11.6 0.3c0.4 15 0.7 30.4 0.9 45.7l11.6-0.1c-0.1-15.4-0.4-30.8-0.9-45.9zm-2092.7 25.2l-11.6 0.9c1.3 15 2.8 30.4 4.5 45.7l11.6-1.3c-1.7-15.1-3.2-30.4-4.5-45.3zm2081.9 66.4c-0.2 15-0.5 30.4-0.9 45.7l11.6 0.3c0.5-15.4 0.8-30.8 1-45.9zm-2071.7 24.2l-11.5 1.6c2.2 15 4.6 30.2 7.1 45.4l11.5-1.9c-2.5-15-4.9-30.2-7.1-45.1zm2069 67.1c-0.8 15-1.6 30.4-2.6 45.6l11.6 0.7c1-15.3 1.9-30.7 2.6-45.8zm-2053.5 22.9l-11.5 2.2c3 14.9 6.2 30 9.5 44.9l11.4-2.4c-3.3-14.9-6.5-29.9-9.4-44.7zm2055.7 68.9l-8.1-0.6q-0.4 4.4-0.7 9c-1.1 12-2.2 24.3-3.4 36.5l11.6 1c1.5-15.2 2.9-30.6 4.1-45.6zm-2035.7 20.2l-11.3 2.7c3.7 14.8 7.6 29.8 11.7 44.5l11.3-3c-4.1-14.6-8-29.4-11.7-44.2zm2018.8 70.1c-1.1 9.6-2.3 19.3-3.4 29.1q-1 8.1-2 16.2l11.5 1.4q1-8.1 2-16.1c1.2-9.9 2.4-19.7 3.5-29.4zm-1990.4 31q-2-6.4-4-12.9l-11.1 3.2q1.9 6.2 3.8 12.3c3.3 10.7 6.7 21.3 10.2 31.5l11-3.5c-3.3-10-6.6-20.2-9.9-30.6z"/>
				<path id="&lt;Path&gt;" class="s2" d="m2369 1418.7c-96.7-14-80.9 112.3-218.7 112.3-126 0-166.3-481-258-343.5-469.9 704.8-197-299.7-570.8-312.5-169-5.8-281.6 170-323.1 481.3-60.2 281.4-199.8-214.6-343.5-168.5-91.3 29.3-80.8 343.2-206.8 343.2-137.8 0-122-126.3-218.7-112.3-104.1 15-135.2 238.6-135.2 238.6h2410c0 0-31.1-223.6-135.2-238.6z"/>
				<path id="&lt;Path&gt;" class="s1" d="m2283.4 1555.4c-88.9-6-74.4 47.9-201.2 47.9-115.9 0-112.7-120.8-190.3-146.5-142.8-47.3-260.6 192.1-316 71.9-105.1-318.8-411.9-478.7-553.4 0-55.4 120.2-184.9-94.2-316-71.9-80.7 13.7-74.4 146.5-190.3 146.5-126.8 0-112.2-53.9-201.2-47.9-95.7 6.4-124.3 101.9-124.3 101.9h2217c0 0-28.6-95.5-124.3-101.9z"/>
				<path id="&lt;Path&gt;" class="s3" d="m94.2 1657.3c0 0-14.5 49 55 62.5 180.5 35 454.4-10.9 264.4 103.8-92.7 56.1 431.9 90.8 1036.6 85.6 682.7-6 1023.2-46.5 806.4-102.4-216.7-55.9 301.4-33.2 247.6-149.5z"/>
			</g>
			<g id="4">
				<path id="&lt;Path&gt;" class="s4" d="m675.1 797.7c-1.4 15.5-1.2 29.2 0.1 36.8q-10.3-11.4-19.5-21c5.6-7.3 0.6-83.3-7.6-83.5-7.9 0.8-3.2 65.7 1.4 77.1-7-7.1-13.5-13.4-19.5-19 5.7-5.4-18.1-86.3-25.7-84-7.4 2.5 12.3 67.8 19.1 77.9-7.9-7.2-14.9-13.1-20.9-17.8 4.4-6.2-36.1-83.7-42.8-80.1-6.5 3.4 24.9 63.3 33.7 73.1-17.6-12.2-22.7-17.4-50.9-31.5-56.8-28.4-62.7-18.3-5.3 10.1 27.7 14.8 35.4 11.2 55.8 27.5-11.7-3.9-87.6-5.4-88.3 1.9 0.6 7.4 87.9 8.3 94.3 2.7 6.3 5 13.7 11.3 22.3 19.1-10.4-3.4-88.7 2.6-88.5 10.2 1.3 7.4 86.8-0.1 92.6-6.4 6.3 5.8 13 12.3 20.3 19.7-11.4-2.9-87.1 3-86.9 10.5 1.8 7.3 83.3 0 91.5-5.9 6.5 6.8 13.4 14.1 20.7 22.2-11.5-2.9-87.2 2.9-87 10.5 1.9 7.2 82.7 0 91.2-5.8q9 10.1 18.8 21.7c-10.7-3.2-88.2 2.7-88 10.3 1.7 7.3 84 0 91.7-5.9 6.1 7.4 12.6 14.8 19 21.2-10.4-2-85.9 14.6-84.5 22.4 2.8 7.1 81.9-11.5 88.2-18.6 7.5 7.5 15.1 14.2 22.5 20.2-8.1-2.9-86.1 20.8-83.6 28.6 2.3 7.4 85-18.9 86.4-26.5 10.7 8.4 21.1 15.2 31.1 20.8-10.2 0.2-76.2 34.5-72.5 41.9 4.4 6.6 74.1-30.9 77.1-39.4 12.8 6.9 24.7 11.7 35 15-10.3 2.3-66 46.6-61 53.3 5.7 5.9 65.2-42.7 66.4-51.7 31.4 9.2 52.6 7 53.5 6.9l-0.5-4.9c-0.3 0-20.8 2.1-50.9-6.6 6.1-8.5 12.3-78.9 4.2-80.6-8.5-0.2-13.7 69.1-9.7 79-10-3.2-21.4-7.8-33.9-14.4 7.3-4.8 20.6-79.3 12.4-81.2-8.6-1.1-20.3 70.6-16.2 79.2-9.8-5.5-20.1-12.1-30.7-20.3 7.7-4 28-76.7 19.8-79.3-8.4-1.7-26.5 66.9-23.5 76.4-7.1-5.6-14.3-12-21.5-19.1 7.8-1.6 29-77.8 20.7-79.9-8.5-1.8-27 68.3-23.6 77.1-6.1-6.2-12.4-13.1-18.5-20.5 7.6-6.2 26.9-75.2 18.9-78.2-8-1.5-24.8 60.6-23.7 72.5q-9.7-11.6-18.8-21.7c7-5.2 13.7-81.6 5.4-82.7-3.6-0.7-8.2 17.6-10.1 40.7z"/>
				<path id="&lt;Path&gt;" class="s5" d="m1943.2 346.4c-14.8 0-27.7 1.1-34.5 2.8q9-9.2 16.5-17.4c6.5 4 77.1-5 76.6-12-1.7-6.3-61.5 1.9-71.8 6.6 5.5-6.2 10.4-12 14.7-17.3 4.4 4.6 76.8-20.2 74-26.7-0.9-2.8-18.5 0.7-39.1 7.9-13.2 4.6-24.4 9.5-30.6 13.3 5.5-7.1 9.9-13.3 13.4-18.6 5 3.9 71.7-34.5 67.7-40.3-3.8-5.1-54.8 24.5-63 32.9 8.5-15 12.7-19.1 21.5-44 17.2-48.4 6.8-52.1-10.3-3.6-9.4 24-4.7 30.1-16.5 47.6 1.8-10.3-9.4-72.4-16.1-72-6.9 1.5 6.9 73.1 12.9 77-3.6 5.5-8.3 12-14.2 19.6 1.4-9.4-17.2-72.8-24-71.5-6.7 2.2 14.8 71.6 21.2 75-4.4 5.5-9.4 11.5-15.1 18 0.8-10.3-17.3-71.4-24-70.2-6.5 2.6 14 68.7 20.5 74.1-5.2 5.8-11 11.9-17.3 18.4 0.8-10.3-17.3-71.3-24-70.2-6.4 2.7 13.9 68.2 20.3 73.9q-8 8.1-17.2 16.9c1.2-9.7-17.2-72.3-24-71.1-6.5 2.6 14.2 69.3 20.6 74.3-5.8 5.5-11.6 11.2-16.7 17 0.1-9.3-28.1-69.5-34.6-67.3-6.1 3.5 24.7 66.8 31.8 70.5q-8.4 9.7-15.2 19.8c1.3-7.5-34.1-69.4-40.4-66.2-6.3 3.2 32.5 69 38.9 68.5-5.6 8.6-10.4 17.5-14.3 26.9-2.1-9-45.2-60.2-50.9-56.3-5.2 4.8 42 59.1 49.4 60.1-3.8 9.8-6.6 19.7-8.2 29.7-4-8.6-54.8-50.9-59.8-46.1-4.2 5.6 51.7 50.8 59.2 50.4-3.5 26.4 2 43.5 2.3 44.2l4.1-1.3c0-0.2-5.3-16.7-2.2-41.6 8 4.3 75.2 4.7 76-2.1-0.9-6.9-66.6-6.5-75.4-2.4 1.4-8.3 3.8-18.1 7.9-28.7 4.7 5.5 77.1 11.5 77.8 4.5-0.1-7-69.3-11.7-76.6-7.6 3.5-8.4 8-17.3 14-26.6 4.2 5.9 75.9 17.7 77.2 10.8 0.3-7-67.1-17-75.2-13.8 4.1-6.2 8.9-12.6 14.4-19 2 6.2 77.1 18.4 77.8 11.4 0.5-7-68.3-17.3-75.8-13.7 4.8-5.5 10.3-11.1 16.2-16.6 6.5 5.6 74.3 16.7 75.9 10 0.2-6.6-60.6-16-71.5-14.2q9.3-8.8 17.3-16.9c4.9 5.2 77.8 5.7 78-1.3 0-3-17.8-5.5-39.6-5.5z"/>
				<path id="&lt;Path&gt;" class="s6" d="m864.7 514.4c17.9-20.8 30.1-39.7 27.3-42.1-7.2-4.8-60.9 58.4-64 69.9-4.2-12-9.7-23.6-16.5-34.9 8.9-2.7 55.5-80.2 48.1-85-7.9-3.5-50.2 69-50.9 80.6-6.8-10.7-14.7-20.7-23.5-30.2 8-0.7 41.9-90.5 33.4-93.1-8.5-2.5-38.9 81.5-35.7 90.7q-10.6-11.1-23-21.3c7.9-6 32.4-91.2 24.1-94.1-8.6-1.3-30.5 79.1-28.3 90.7-7.6-6-16-11.9-24.4-17.3 6.8-7.6 18-94.7 9.4-96.4-8.6 0.1-17.9 81.2-14.3 93.1q-13.3-8.9-24.9-17.1c6.7-8.4 17.7-94 9.1-95.8-8.4 0.1-17.6 79.3-14.5 91.9-9.2-6.6-17.6-13-25.3-19 6.8-8 17.9-94.4 9.3-96.1-8.5 0.1-17.7 79.4-14.5 92-8.5-6.8-16-13.1-22.7-19 7.2-5.5 18.9-96.1 10.1-97.4-8.6 0-18 82.3-14.2 93.7-9-8.1-16.1-15.1-21.9-21.2 6.6-6 8.3-97.7-0.6-98-8.3 1-8.8 80.1-4.4 92.6-18.3-19.1-13.9-27.8-30.7-55.4-31.6-56.3-43.7-49.5-11.9 6.7 16.3 28.9 22.3 32.9 36.1 49.7-11.9-8.5-81.6-34.2-85.1-27-3.7 8.1 87.2 41.2 92.5 35.3 5.5 5.7 12.2 12.4 20.6 20-12.2-6.4-88.6-19.1-90.9-11.1-2 8.6 93 23.6 97.5 17 6.4 5.6 13.7 11.7 21.8 18.2-13.7-3.6-89.6-0.8-90.2 7.3 0.9 8.8 90.1 4.8 97.4-1.7q11 8.6 24.1 18c-12.8-2.5-91.5 10.9-91.1 19.3 1.8 8.7 91.7-7.7 96.8-15.2q11.7 8.3 25 17.2c-13.7 0.1-87.1 24.9-85.4 33 3.6 8 84.9-20.4 91.8-28.7 8.5 5.5 16.4 11.2 23.6 17-9.9-2.8-93 24.8-90.8 33.3 2.4 8.5 92.7-22.8 93.8-30.8 8.2 6.7 15.5 13.5 21.9 20.3-10.7-2.3-92 24.8-90 33.3 3.1 8.3 89.2-21.8 93.2-30 9.3 10.2 16.9 20.2 22.9 29.9-9.7-3.6-94.5 17.3-93 25.9 2.4 8.5 90.5-14.5 95.2-22.4 7.5 12.3 12.5 23.8 16 33.9-11.6-3.2-93.2 10.5-92.7 19.2 2.5 8.3 85.3-6.8 94.4-13.8 9.2 30.1 6.3 51.7 6.3 51.9 1.3 0.2 4.1 0.6 5.4 0.8 0.2-1 3.3-23.4-6.7-55.2 6-2.6 20.1-15.8 35-33.1z"/>
				<path id="&lt;Path&gt;" class="s7" d="m2052.2 675c-17.6-7.5-33.6-12.6-42.5-14.1q15.3-6.5 28.4-12.5c5.7 8.1 94.7 32.9 97.5 24.2 1.2-8.3-74.4-28.6-89.1-28.2 9.8-4.7 18.5-9.1 26.3-13.3 2.9 7.7 101.9 14.6 101.9 5.4 0.2-3.8-22.5-8.4-50.8-10.2-18-1.2-33.9-0.9-43.2 0.4 10.2-5.7 18.5-10.8 25.3-15.4 4.1 7.2 103.1-5.1 101.2-14-1.9-8.1-77.8 1.7-91.8 7.5 17.7-13.7 24.8-16.4 47.8-41.7 45-49.1 34.4-58.8-10.4-9.5-23.3 23.9-20.8 33.6-43.7 48.6 7.3-11.5 25.2-91.2 16.9-94.1-8.9-1.8-28.5 90.8-23.2 98.4-7.2 4.8-16 10.2-26.9 16.3 6.5-10.5 16.1-95.6 7.4-97.6-9.1-0.7-18.4 93.1-12.4 100.3-8.1 4.4-17.1 9-27.2 13.9 6.1-11.9 15.2-93.9 6.7-95.9-9-0.2-17.8 89.2-12.8 98.8-9.2 4.3-19.1 8.7-30 13.3 6.2-11.9 15.2-93.9 6.7-95.9-9 0-17.7 88.4-12.9 98.5q-13.6 5.6-29 11.5c6.3-11 15.7-95 7.1-97-9.1-0.2-17.9 89.9-12.8 99.1-9.8 3.6-19.5 7.6-28.6 11.9 4.9-11.1 1.5-97.2-7.4-97.8-9.1 1.1-4.1 92.2 2.5 100.2q-15 7.4-28.1 16c5.3-8.4-5.9-100.1-14.9-99.4-9.2 0.7 4.1 98.7 12 101.4-11.1 7.4-21.3 15.7-30.7 24.9 2-11.8-23.7-94.6-32.5-92.8-8.5 3.1 20.4 91.7 28.8 96.5-9.5 9.8-17.8 20.3-24.7 31.4-0.5-12.3-39.9-88.4-48.2-85.2-7.9 4.6 36.1 86.7 45.2 90.1-17.3 29.7-19.4 52.9-19.5 53.9l5.7 0.5c0-0.2 2-22.6 18.3-50.8 7.4 9.2 87.4 43.6 91.7 35.7 2.5-8.6-76.3-41.2-88.7-40.7 5.8-9.3 13.5-19.7 23.8-30.4 2.9 9 86.3 52.6 90.7 44.6 3.4-8.4-76.9-48.9-87.6-47.6 8.3-8.3 18.2-16.7 29.9-24.7 2.1 9.1 81.8 59.3 86.8 51.7 4-8.2-71.4-54.1-82.8-54.4 8.1-5.3 16.9-10.5 26.7-15.4-0.7 8.4 82.9 60.8 87.3 52.8 4.1-8.1-73-55-83.6-54.5 8.5-4.1 17.8-8.1 27.6-11.7 4.9 9.9 80.3 57.4 85.7 50.2 3.5-7.8-64.4-49.7-78.2-53q15.4-5.9 29-11.5c3.4 8.7 90.1 46 93.8 37.7 1.5-3.6-18.4-15.4-44.5-26.4z"/>
			</g>
			<g id="3">
				<path id="&lt;Path&gt;" class="s7" d="m1851.1 358.1v1276.7c0 21.9-17.8 39.7-39.8 39.7h-983.1c-22.1 0.2-39.9-18.1-39.8-39.7v-1276.7c0-22 17.8-39.8 39.8-39.8h983.1c22 0 39.8 17.8 39.8 39.8z"/>
				<path id="&lt;Path&gt;" class="s8" d="m1851.1 358.1v1276.7c0 21.9-17.8 39.7-39.8 39.7h-983.1c-20.4 0-37.2-15.3-39.5-35l-0.3-4.7c0 0 988.1-49.5 988.1-1316.5h4.1c39.5-2.4 68.3-1.4 70.5 39.8z"/>
				<path id="&lt;Path&gt;" class="s9" d="m1776.5 378.9v1200.5h-913.5v-1200.5z"/>
				<path id="&lt;Path&gt;" class="s10" d="m1776.5 378.9v1200.5h-738.7c285.2-102.3 718.6-390.8 738.1-1200.5z"/>
				<path id="&lt;Compound Path&gt;" fill-rule="evenodd" class="s11" d="m1608.5 995.8c-80.2-1.4-80.2-120.6 0-122.1 80.2 1.5 80.2 120.7 0 122.1zm0-112.2c-67.3 1.2-67.3 101.2 0 102.4 67.3-1.2 67.3-101.3 0-102.4z"/>
				<path id="&lt;Path&gt;" class="s5" d="m1615 963.3c-5.8 2.1-35.4-32.9-39.7-35.7-9-9.1 4.8-22.9 13.9-13.8 0 0 25.8 25.8 25.8 25.8l58.2-58.1c9.1-9.1 22.9 4.7 13.9 13.8-2.7 1.3-69.1 73.1-72.1 68z"/>
				<path id="&lt;Compound Path&gt;" fill-rule="evenodd" class="s11" d="m1608.5 1245.8c-80.2-1.4-80.2-120.6 0-122 80.2 1.4 80.2 120.6 0 122zm0-112.2c-67.3 1.2-67.3 101.2 0 102.4 67.3-1.2 67.3-101.2 0-102.4z"/>
				<path id="&lt;Path&gt;" class="s5" d="m1615 1212.4c-5.8 2.2-35.4-32.9-39.7-35.7-9-9.1 4.8-22.9 13.9-13.8 0 0 25.8 25.8 25.8 25.8l58.2-58.1c9.1-9.1 22.9 4.7 13.9 13.8-2.9 1.4-69 73-72.1 68z"/>
				<path id="&lt;Compound Path&gt;" fill-rule="evenodd" class="s11" d="m1608.5 1495.8c-80.2-1.4-80.2-120.6 0-122 80.2 1.4 80.2 120.6 0 122zm0-112.2c-67.3 1.2-67.3 101.2 0 102.4 67.3-1.2 67.3-101.2 0-102.4z"/>
				<path id="&lt;Path&gt;" class="s5" d="m1615 1461.5c-5.8 2.2-35.4-32.9-39.7-35.6-9-9.2 4.8-23 13.9-13.9 0 0 25.8 25.8 25.8 25.8l58.2-58.1c9.1-9 22.9 4.7 13.9 13.9-2.9 1.3-69 72.9-72.1 67.9z"/>
				<path id="&lt;Compound Path&gt;" fill-rule="evenodd" class="s4" d="m1636.3 321.1v78.5c0 15.1-12.2 27.3-27.2 27.3h-578.7c-15.1 0-27.3-12.2-27.3-27.3-3-140-2.2-99.5 134.7-105.8v-62.3c0-15.1 12.2-27.3 27.3-27.3h309.3c15.1 0 27.3 12.2 27.3 27.3v62.3h107.4c15 0 27.2 12.2 27.2 27.3zm-316.6-80.4c-23.3 0.4-23.3 35.2 0 35.6 23.4-0.4 23.4-35.2 0-35.6z"/>
				<path id="&lt;Path&gt;" class="s12" d="m1636.3 321.1v78.5c0 15.1-12.2 27.3-27.2 27.3h-578.7c-15.1 0-27.3-12.2-27.3-27.3 0 0 471.3 25.9 471.3-195.4 15.1 0 27.3 12.2 27.3 27.3v62.3h107.4c15 0 27.2 12.2 27.2 27.3z"/>
				<path id="&lt;Path&gt;" class="s13" d="m1319.7 204.2c-169.2 0-181.9 89.6-181.9 89.6v-62.3c0-15.1 12.2-27.3 27.3-27.3z"/>
				<path id="&lt;Path&gt;" class="s8" d="m1264.5 498v304.7h-311.8v-304.7z"/>
				<g id="&lt;Group&gt;">
					<path id="&lt;Path&gt;" class="s1" d="m1175.3 608.2c0 36.8-29.9 66-66.7 66-36.8 0-66.7-29.2-66.7-66 0-36.8 29.9-65.9 66.7-65.9 36.8 0 66.7 29.1 66.7 65.9z"/>
				</g>
				<path id="&lt;Path&gt;" class="s1" d="m1208.2 784.7v18.3h-199.2v-18.3c0-55 44.6-99.6 99.6-99.6 27.5 0 52.4 11.2 70.4 29.2 18 18 29.2 42.9 29.2 70.4z"/>
				<path id="&lt;Path&gt;" class="s7" d="m1705.7 561.7h-169.8c-6.9 0-12.5-5.6-12.5-12.5 0-6.9 5.6-12.5 12.5-12.5h169.8c6.9 0 12.5 5.6 12.5 12.5 0 6.9-5.6 12.5-12.5 12.5z"/>
				<path id="&lt;Path&gt;" class="s7" d="m1491.6 561.7h-122.1c-6.9 0-12.5-5.6-12.5-12.5 0-6.9 5.6-12.5 12.5-12.5h122.1c6.9 0 12.5 5.6 12.5 12.5 0 6.9-5.6 12.5-12.5 12.5z"/>
				<path id="&lt;Path&gt;" class="s7" d="m1705.7 640.1h-336.2c-6.9 0-12.5-5.6-12.5-12.5 0-6.9 5.6-12.5 12.5-12.5h336.2c6.9 0 12.5 5.6 12.5 12.5 0 6.9-5.6 12.5-12.5 12.5z"/>
				<path id="&lt;Path&gt;" class="s7" d="m1705.7 796.9h-336.2c-6.9 0-12.5-5.6-12.5-12.5 0-6.9 5.6-12.5 12.5-12.5h336.2c6.9 0 12.5 5.6 12.5 12.5 0 6.9-5.6 12.5-12.5 12.5z"/>
				<path id="&lt;Path&gt;" class="s7" d="m1705.7 718.5h-84.2c-6.9 0-12.5-5.6-12.5-12.5 0-6.9 5.6-12.5 12.5-12.5h84.2c6.9 0 12.5 5.6 12.5 12.5 0 6.9-5.6 12.5-12.5 12.5z"/>
				<path id="&lt;Path&gt;" class="s7" d="m1580.5 718.5h-211c-6.9 0-12.5-5.6-12.5-12.5 0-6.9 5.6-12.5 12.5-12.5h211c6.9 0 12.5 5.6 12.5 12.5 0 6.9-5.6 12.5-12.5 12.5z"/>
				<path id="&lt;Path&gt;" class="s7" d="m1474.6 909h-318.5c-6.9 0-12.5-5.6-12.5-12.5 0-6.9 5.6-12.5 12.5-12.5h318.5c6.9 0 12.5 5.6 12.5 12.5 0 6.9-5.6 12.5-12.5 12.5z"/>
				<path id="&lt;Path&gt;" class="s7" d="m1108.6 909h-156.5c-6.9 0-12.5-5.6-12.5-12.5 0-6.9 5.6-12.5 12.5-12.5h156.5c6.9 0 12.5 5.6 12.5 12.5 0 6.9-5.6 12.5-12.5 12.5z"/>
				<path id="&lt;Path&gt;" class="s7" d="m1474.6 1005.6h-137.7c-6.9 0-12.5-5.6-12.5-12.5 0-6.9 5.6-12.5 12.5-12.5h137.7c6.9 0 12.5 5.6 12.5 12.5 0 6.9-5.6 12.5-12.5 12.5z"/>
				<path id="&lt;Path&gt;" class="s7" d="m1286.9 1005.6h-334.8c-6.9 0-12.5-5.6-12.5-12.5 0-6.9 5.6-12.5 12.5-12.5h334.8c6.9 0 12.5 5.6 12.5 12.5 0 6.9-5.6 12.5-12.5 12.5z"/>
				<path id="&lt;Path&gt;" class="s7" d="m1474.6 1488.3h-522.5c-6.9 0-12.5-5.6-12.5-12.5 0-6.9 5.6-12.5 12.5-12.5h522.5c6.9 0 12.5 5.6 12.5 12.5 0 6.9-5.6 12.5-12.5 12.5z"/>
				<path id="&lt;Path&gt;" class="s7" d="m1474.6 1391.8h-261.3c-6.9 0-12.5-5.6-12.5-12.5 0-6.9 5.6-12.5 12.5-12.5h261.3c6.9 0 12.5 5.6 12.5 12.5 0 6.9-5.6 12.5-12.5 12.5z"/>
				<path id="&lt;Path&gt;" class="s7" d="m1175.3 1391.8h-223.2c-6.9 0-12.5-5.6-12.5-12.5 0-6.9 5.6-12.5 12.5-12.5h223.2c6.9 0 12.5 5.6 12.5 12.5 0 6.9-5.6 12.5-12.5 12.5z"/>
				<path id="&lt;Path&gt;" class="s7" d="m1474.6 1295.2h-522.5c-6.9 0-12.5-5.6-12.5-12.5 0-6.9 5.6-12.5 12.5-12.5h522.5c6.9 0 12.5 5.6 12.5 12.5 0 6.9-5.6 12.5-12.5 12.5z"/>
				<path id="&lt;Path&gt;" class="s7" d="m1474.6 1198.7h-134.6c-6.9 0-12.5-5.6-12.5-12.5 0-6.9 5.6-12.5 12.5-12.5h134.6c6.9 0 12.5 5.6 12.5 12.5 0 6.9-5.6 12.5-12.5 12.5z"/>
				<path id="&lt;Path&gt;" class="s7" d="m1299.2 1198.7h-130.8c-6.9 0-12.5-5.6-12.5-12.5 0-6.9 5.6-12.5 12.5-12.5h130.8c6.9 0 12.5 5.6 12.5 12.5 0 6.9-5.6 12.5-12.5 12.5z"/>
				<path id="&lt;Path&gt;" class="s7" d="m1122.4 1198.7h-170.3c-6.9 0-12.5-5.6-12.5-12.5 0-6.9 5.6-12.5 12.5-12.5h170.3c7 0 12.5 5.6 12.5 12.5 0 6.9-5.5 12.5-12.5 12.5z"/>
				<path id="&lt;Path&gt;" class="s7" d="m1474.6 1102.1h-522.5c-6.9 0-12.5-5.6-12.5-12.5 0-6.9 5.6-12.5 12.5-12.5h522.5c6.9 0 12.5 5.6 12.5 12.5 0 6.9-5.6 12.5-12.5 12.5z"/>
			</g>
			<g id="2 5 ">
				<path id="&lt;Path&gt;" class="s14" d="m2135 1861.5l1.2-0.6c0 0.8 1 3.7 1.9 3.7l35.1 0.7c0.8 0 1.4-1.5 1.4-2.4l3-0.8c0-5.3-0.5-7.2-2.8-11.3-8.6-11.3 1.7-62.1 1.4-75.4 2.1-3.6-37.1-0.8-37.6-1.6-0.9 0-1.6 0.7-1.5 1.6l4.6 58c2.1 11-6.4 17.7-6.7 28.1z"/>
				<path id="&lt;Path&gt;" class="s14" d="m1961.1 1866.6h70.1c6.1-0.3 6-6.5 4.9-11.4-3.9-17.4 3-57.4 4.2-75.3 0.4-3.3-2.2-6.1-5.5-6.1-51.7-0.6-34.8-4.7-30.8 51 3 19.5-20.2 23.2-33.4 25.4-8.7 0.6-23.3 12.5-9.5 16.4z"/>
				<path id="&lt;Path&gt;" class="s15" d="m2038.8 1859.3c-0.2 3.4-1.9 7.3-5.9 7.3 0 0-72.6 0-72.6 0-17.2-6.4 7.4-29.1 41-29 15.3 4.2 33.6 1.3 33.6 1.3 0 0 5 6.3 3.9 20.4z"/>
				<path id="&lt;Path&gt;" class="s15" d="m2172 1866.6h-31.1c-15.1-2.1-4.3-29 15.6-29.8 19.9-0.8 30.6 27.7 15.5 29.8z"/>
				<path id="&lt;Path&gt;" class="s16" d="m1977.6 1856.7c-0.6 0-1.2-0.3-1.5-0.9-2.7-6.9-7.8-9-8-9.1-3.9-6.2 7.5-1.8 10.9 7.9 0.4 1-0.4 2.1-1.4 2.1z"/>
				<path id="&lt;Path&gt;" class="s16" d="m1989.6 1855.3c-0.7 0-1.3-0.4-1.5-1.1-2.5-8-9.4-11.7-9.5-11.7-3.5-7.2 9.7 0.5 12.4 10.8 0.4 1-0.4 2-1.4 2z"/>
				<path id="&lt;Path&gt;" class="s16" d="m2003.2 1853.6c-0.6 0-1.2-0.4-1.4-1-2.9-8.3-9.6-12.8-9.6-12.9-4-10.6 17.8 11.1 11 13.9z"/>
				<path id="&lt;Path&gt;" class="s16" d="m2167.6 1846.8c-8.6-5.2-21.9-0.5-21.9-0.1-9-2 12.3-9.6 22.7-2.8 1.3 0.8 0.7 3-0.8 2.9z"/>
				<path id="&lt;Path&gt;" class="s17" d="m1955.2 1859.3h83.6c-0.3 2.5-1 5-2.3 7.3h-76.2c-3.8 0-6.5-3.8-5.1-7.3z"/>
				<path id="&lt;Path&gt;" class="s17" d="m2172 1866.6h-31.1c-3.9 0-7.1-3.4-6.8-7.3h44.8c0.2 3.9-3 7.3-6.9 7.3z"/>
				<path id="&lt;Path&gt;" class="s18" d="m2011.1 1328.4c-68.3 52.2-153.9 40.5-202.4 4.2l-2.5-24.8c111.8 8.7 139.5-52.5 211-77.5l-7.8 23.1c0 0 2.5 73.3 1.7 75z"/>
				<path id="&lt;Path&gt;" class="s6" d="m1994.9 1820.1c26.4 9.9 55.6 2.3 55.6 2.3q-0.6-5.3-1-10.8c-10-123.3 23.3-297.1 26.7-309.7q0 0 0.1 0 0.2-1 0.2-0.7c21.9 142.9 43.5 261.4 53.7 316.7 26 12.1 52.3-5.2 52.3-5.2q0.2-7.5 0.4-14.8c6-96-7.7-390.6-57.3-448.1-57.5 28.5-136.6 33-136.6 33-13.2 251.1-12.6 371.1 5.9 437.3z"/>
				<path id="&lt;Path&gt;" class="s14" d="m2024 1227.7c-3.3-17.3-11.2-48.5 1.8-56.2 9.2-5 22.1 1.3 21 12.8-1-0.4 1.5 31.4 4.9 39.8 27 3.4-46.1 41.8-27.7 3.6z"/>
				<path id="&lt;Path&gt;" class="s19" d="m2046.8 1182.9q0 0.7 0 1.4c-0.7-0.3 0.4 17.3 2.5 29.9-10.9 7.3-24.1 7-26.6 7-3.5-18.5-9.4-41.2 3.1-49.7 8.6-5.5 20.9 1.1 21 11.4z"/>
				<path id="&lt;Path&gt;" class="s20" d="m2012.5 1815.1c-32.5-151.7 0.6-350.9 5.5-352.3 2.6 1.2-26.3 201.3-5.5 352.3z"/>
				<path id="&lt;Path&gt;" class="s20" d="m2155.4 1812.7l-2.3-1.1c-25.4-161.4-53.2-354.7-49.7-357.4 3.8 0.5 33.7 193.2 52 358.5z"/>
				<path id="&lt;Path&gt;" class="s15" d="m2157 1433.8c-38.3 29-132.1 38-170.3 24.2-12.9-5.5-14.7-48.9-13.2-91.5 2.3-56.9 16.1-97.9 42.3-135.9 0.4-0.2 5.3-2.4 8.2-2.9-0.1 5.2 1.1 20.2 27.7-3.6 0.1 0.1 6.8-0.4 9.7 0.3 3.1 0.7 32.1 20.5 32.8 23.6 2.2 9.1 11.9 31.6 22.5 57.9 12.3 30.8 25 62.3 30.4 91.1 2.1 12 17.5 25.5 9.9 36.8z"/>
				<path id="&lt;Path&gt;" class="s20" d="m2038.8 1810.1l10.7 1.5c-10-123.3 23.3-297.1 26.7-309.7-2 5.1-15.6 39.9-25.7 104.6-11 70.3-14.4 167.9-11.7 203.6z"/>
				<path id="&lt;Path&gt;" class="s18" d="m2061.7 1224.4c-8.8 15-47.5 38.2-45.9 6.2 0.3-0.2 5.3-2.4 8.2-2.9-0.1 0.9-1.6 22.9 27.7-3.6 0 0.2 4.5-1.5 10 0.3z"/>
				<path id="&lt;Path&gt;" class="s20" d="m2050.5 1822.4c0 0-29.2 7.6-55.6-2.3l-3.4-13.9c0 0 32.9 11.5 57.4-1.2q0.7 8.8 1.6 17.4z"/>
				<path id="&lt;Path&gt;" class="s20" d="m2182.9 1797.9q-0.2 7.3-0.4 14.8c0 0-26.3 17.3-52.3 5.2 0 0-0.8-4.5-2.4-12.9 0 0 28 8.4 55.1-7.1z"/>
				<path id="&lt;Path&gt;" class="s18" d="m2061.7 1224.4c0 0 75.4 0 97.9 95.9 18.2 77.7-23.6 121.5-103.6 143.2 0 0-2.5-9.9-13.2-13 0 0 38.2-29.6 47.9-64.9 9.6-35.4 0.6-76.7-13.4-106.4 0 0-21.1-32.5-15.6-54.8z"/>
				<path id="&lt;Path&gt;" class="s5" d="m2119.5 1565.3l-374.3-273.5 16.7-22.8 374.3 273.5z"/>
				<path id="&lt;Path&gt;" class="s21" d="m2119.5 1565.3l-195.9-143.1 16.7-22.9 195.9 143.2z"/>
				<path id="&lt;Path&gt;" class="s22" d="m1714.5 1042.9c76.4 54.8 93.8 161.2 39 237.5-54.8 76.3-161.1 93.8-237.4 39-76.4-54.8-93.8-161.1-39-237.5 54.8-76.3 161.1-93.8 237.4-39z"/>
				<path id="&lt;Path&gt;" class="s23" d="m1441.7 1243c6 16.9 14.5 32.9 25.3 47.6l10.1-10.1 10.2-10.2 217.2-217.2 20.2-20.2q-0.9-0.8-1.9-1.5c-14.4-10.3-29.7-18.2-45.6-23.9l-11.1 11.2-11.5 11.5-190.2 190.2-11.5 11.5z"/>
				<path id="&lt;Path&gt;" class="s23" d="m1484 1310.5c7.2 7.3 15.1 14.2 23.8 20.4 14.8 10.6 30.6 18.7 47 24.4l11.2-11.2 11.6-11.6 189.1-189.1 11.5-11.5 11.2-11.2c-9.2-26.9-24.5-51-44.7-70.9l-20.1 20-220.6 220.7-10 10z"/>
				<path id="&lt;Compound Path&gt;" fill-rule="evenodd" class="s21" d="m1465.6 1073.7c93.9-133.4 307.8-81.3 331.6 77.6 26.5 133.5-117.6 252.4-242.4 204-113.3-37-162.1-183.7-89.2-281.6zm-1.2 146.7c13.1 54 59.3 99.6 113.2 112.1 151.7 38.4 260-152 147-262.7-111.6-110-300.2-0.7-260.2 150.6z"/>
				<path id="&lt;Path&gt;" class="s14" d="m1792.6 1330.8c-7.2 5.8-13.5-4.2-3.5-5.3l-0.1 0.1c4-3.1 7.4 2.4 3.6 5.2z"/>
				<path id="&lt;Path&gt;" class="s14" d="m1787.6 1327.2c-9.3 5-12-7.6-3-5.9-0.2 0 0.9-0.2 0.7-0.2 4.5-2.3 6.3 4.2 2.3 6.1z"/>
				<path id="&lt;Path&gt;" class="s14" d="m1782.2 1323.5l-3.5 0.7c-4.9 0.7-4.2-6.4-0.1-6.9 0 0 3.4-0.6 3.4-0.6 4.9-0.8 4.3 6.3 0.2 6.8z"/>
				<path id="&lt;Path&gt;" class="s14" d="m1778 1319.6l-3.5 0.7c-4.9 0.7-4.2-6.4-0.1-6.9 0 0 3.4-0.6 3.4-0.6 4.9-0.8 4.2 6.3 0.2 6.8z"/>
				<path id="&lt;Path&gt;" class="s14" d="m2014.6 1455.1l6.8 4.9q-0.1 0.1-0.1 0.2c-2.9 4.5-6.9 8.2-11.5 10.9-4.5 2.6-8.9 5.1-13.9 7.1-6.5 9.7 20.1-2 23.4-2.7 0 0.1 0 0.1 0 0.1-6.1 5.4-12.5 10.3-19.3 14.7-4.4 11.6 21.2-7.9 24.3-9.7 0 0.1 0 0.1 0 0.1-4.8 6-10.4 11.5-16.5 16.2-3.4 12.1 21-9.8 23.4-12.5q0 0 0 0c-3 5.4-6.8 10.3-10.8 15-1.6 12 16.7-10.3 18.5-13 2-1.1 11.5-10 17.1-22.9 1.9-4.2-9.5-15.4-13.2-13-2.9 1.7-12 1.7-14 2.3-4.6 0.7-9.4 0.5-14.2 2.3z"/>
				<path id="&lt;Path&gt;" class="s18" d="m2030 1273.7c-12.1 0-18.9-2.3-19.3-2.4l1.5-4.4c0.1 0.1 14.7 4.8 39.2-0.1l0.9 4.6c-8.7 1.7-16.2 2.3-22.3 2.3z"/>
				<path id="&lt;Path&gt;" class="s18" d="m2031.9 1291.5c-15.1 0-24-3.5-24.6-3.8l1.8-4.2c0.1 0 16.6 6.4 42.3 1.4l0.9 4.5c-7.7 1.5-14.5 2.1-20.4 2.1z"/>
				<path id="&lt;Path&gt;" class="s18" d="m2029 1309.1c-13.5 0-22.7-3.8-23.3-4.1l1.8-4.2c0.2 0.1 20 8.1 43.6-0.1l1.5 4.4c-8.6 3-16.6 4-23.6 4z"/>
				<path id="&lt;Path&gt;" class="s24" d="m1998.7 1159.7c0 0 1-14.8 6.2-24.7l8.2 4.6z"/>
				<path id="&lt;Path&gt;" class="s14" d="m1996.2 1202.9c12.5 13.5 33.1 16.5 48.4 8.8q1.7-1 3.3-2.1c49.6-45-10.4-126-43.1-59.8-10.9 18.6-28.6 27.9-8.6 53.1z"/>
				<path id="&lt;Path&gt;" class="s25" d="m2018.5 1165.5c-0.4-1 0-2.1 1-2.5 0.9-0.4 2 0 2.5 0.9 0.4 1 0 2.1-1 2.5-0.9 0.5-2.1 0-2.5-0.9z"/>
				<path id="&lt;Path&gt;" class="s25" d="m2002.8 1162c-0.5-1 0-2.1 0.9-2.5 1-0.4 2.1 0 2.5 0.9 0.4 1 0 2.1-0.9 2.5-1 0.5-2.1 0-2.5-0.9z"/>
				<path id="&lt;Path&gt;" class="s25" d="m2006.8 1178.6c1.1 0.2 2.3 0.2 3.2-0.1 0.4-0.1 0.7-0.5 0.5-0.9-0.1-0.3-0.4-0.6-0.8-0.5-2.5 0.7-5.8-0.7-6.2-1.8-0.1-0.4 0.4-0.7 0.9-1 4.1-2 7.2-9.5 7.4-9.8 0.1-0.4-0.1-0.8-0.4-0.9-0.4-0.2-0.8 0-1 0.4 0 0-3 7.3-6.7 9-2 1-1.7 2.3-1.5 2.8 0.4 1.3 2.5 2.4 4.6 2.8z"/>
				<path id="&lt;Path&gt;" class="s19" d="m2007.2 1145.3c10.6-4.9 28.9 1 38 1.4 0 0-2.7 15.5 12.4 27.4 0.6 14.4 2.6 20.8-13 37.6q1.7-1 3.3-2.1c47.7-42.9-7.3-123.2-40.7-64.3z"/>
				<path id="&lt;Path&gt;" class="s24" d="m2001.1 1113.8c6.5-11.3 24.3-16.7 38.6-1.6 11 11.7 23.5 12.2 22.7 23.8 22.7 11.8 9.8 36.8 9.8 36.8l-11.6-2c-12.7-11.4-11.5-27.2-11.5-27.2-3-0.1-6.1-0.3-8.8-1.2-8.5-2.6-21.2-4.4-31-1.3-9.9 3.1-15.4-14.7-8.2-27.3z"/>
				<path id="&lt;Path&gt;" class="s14" d="m2073.4 1182.3c-1.6 5.9-6.7 9.7-11.5 8.4-4.8-1.2-7.4-7-5.8-13 1.6-5.9 6.7-9.7 11.5-8.4 4.7 1.3 7.3 7.1 5.8 13z"/>
				<path id="&lt;Path&gt;" class="s25" d="m2062.3 1173.8c0.2-0.1 4.7-1.5 7.1 0.9q0.9 0.9 1.2 2.4 0 0 0 0 0 0.1 0 0.3 0 0 0 0 0 0 0 0 0.4 2.7-1.2 7.1c-0.1 0.4-0.4 0.6-0.8 0.5q0 0-0.1 0c-0.4-0.2-0.6-0.6-0.4-0.9q1.3-3.6 1.2-5.9c-4.2 0.5-6.5 5-6.5 5.1-0.2 0.3-0.5 0.4-0.8 0.4q-0.1-0.1-0.2-0.1c-0.3-0.2-0.5-0.6-0.3-1 0.1-0.2 2.6-5.2 7.5-5.9q-0.2-0.6-0.6-1c-1.8-1.8-5.6-0.6-5.6-0.6-0.4 0.2-0.8 0-0.9-0.4-0.1-0.4 0.1-0.8 0.4-0.9z"/>
				<path id="&lt;Path&gt;" class="s25" d="m2028.4 1163.3q0.2 0.1 0.4 0c0.4-0.2 0.6-0.7 0.5-1.1-0.1-0.3-2.8-6.4-10.4-8.2-0.5-0.1-0.9 0.2-1 0.7-0.2 0.4 0.1 0.9 0.6 1 6.8 1.5 9.1 6.9 9.2 7.1 0.1 0.3 0.4 0.5 0.7 0.5z"/>
				<path id="&lt;Path&gt;" class="s25" d="m2002.4 1156c0.3 0.1 0.6 0 0.8-0.2 2.3-2.3 6.8-1.8 6.9-1.8 0.5 0 0.9-0.3 0.9-0.7 0.1-0.5-0.3-0.9-0.7-1-0.2 0-5.4-0.5-8.3 2.3-0.3 0.3-0.3 0.9 0 1.2q0.2 0.2 0.4 0.2z"/>
				<g id="&lt;Group&gt;">
					<path id="&lt;Path&gt;" class="s26" d="m2002.5 1187l18.1-8.2c0 0 0.6 9.6-6.5 11.9-6.8 2.2-11.6-3.7-11.6-3.7z"/>
				</g>
				<path id="&lt;Path&gt;" class="s25" d="m2002.3 1187.8q0.3 0 0.5-0.1l18.1-8.2c0.4-0.1 0.6-0.6 0.4-1.1-0.2-0.4-0.7-0.6-1.1-0.4l-18.1 8.2c-0.4 0.2-0.6 0.7-0.4 1.1 0.1 0.3 0.4 0.5 0.6 0.5z"/>
			</g>
			<g id="1">
				<path id="&lt;Path&gt;" class="s7" d="m716.6 1573.2l-91.1 33.6c-1.6 0.6-3.3-0.2-3.9-1.8 0.9-1.9-30.9-74.3-24.4-73.9 0.1-0.3 91.3-33.5 91.5-33.7 1.6-0.6 3.3 0.2 3.9 1.8l25.8 70.2c0.6 1.5-0.2 3.3-1.8 3.8z"/>
				<path id="&lt;Path&gt;" class="s9" d="m713.2 1568.5l-85.7 31.5-24-65.2 85.7-31.6z"/>
				<path id="&lt;Compound Path&gt;" fill-rule="evenodd" class="s4" d="m712.1 1546.6c0 0 2.8 7.7 2.8 7.7 1.1 2.8-3.8 3.3-5.4 4.2-1.4 0.6-3.5 1.1-4.1-0.7 0 0-15.2-41.3-15.2-41.3-0.8-1.9 1.2-2.9 2.7-3.2l4.1-1.6c1.1-0.4 2.3 0.2 2.7 1.3l2.8 7.6c1.8-0.3 6.1-3.3 7.1-0.4 2 5.5 6.1 16.6 8.1 22.1 1.2 2.9-4.1 3.4-5.6 4.3zm-1.8-12.6c1.6-0.6 0.7-3.2-1-2.6-1.6 0.6-0.7 3.2 1 2.6z"/>
				<path id="&lt;Path&gt;" class="s12" d="m713.6 1556.9c-1.8 0.3-7.2 4.1-8.2 0.9 0 0-15.2-41.3-15.2-41.3-0.4-1.1 0.1-2.3 1.2-2.7 0 0 10.5 34.3 26.3 28.5 1.2 2.9-4.1 3.4-5.6 4.3l2.8 7.7c0.4 1-0.2 2.2-1.3 2.6z"/>
				<path id="&lt;Path&gt;" class="s27" d="m561.1 1246.9c0 0-1.7 30 12.7 47.7 14.3 17.6-92.4-4.1-92.4-4.1l11.6-55.8z"/>
				<path id="&lt;Path&gt;" class="s28" d="m635.9 1493c0 0-7 8.5-18.1 12.5-12.3-16-28.3-36.7-37.9-55.1-15.3-42.7-31.9-128.9-40.5-166.1 75.1 12.5 73.6 148.5 96.5 208.7z"/>
				<path id="&lt;Path&gt;" class="s14" d="m663.1 1514.3c-0.4 1.2-1.8 1.7-2.8 1.1-3.1-1.7-7.3-2.8-10.7-3.6l-26.6 9.7c0 0-4.6-9.9-4.3-15.1 0.3-5 13.3-14.3 17.6-12.9 0 0 3.5 5.3 12.2 10.8 2.8 1.7 16.1 5.8 14.6 10z"/>
				<path id="&lt;Path&gt;" class="s29" d="m636.3 1493.5c0 0-6.5 8.9-17.6 12.9 0 0-3.1-1.7-5-6.2 0 0 15.3-5.6 19.4-14.8 1.3 1.3 3.2 5.2 3.2 8.1z"/>
				<path id="&lt;Path&gt;" class="s19" d="m705.8 1390.5c0 0 12-1.7 19.6-1.3l-8.6 17.2c0 0-16.9-8.1-17.7-10-0.8-1.9 6.7-5.9 6.7-5.9z"/>
				<path id="&lt;Path&gt;" class="s14" d="m483 1861.5c-0.7 2.8-3.2 5-6.3 5.1h-31c-4.4 0-7.5-4.5-6.2-8.6 2.4-8 7.9-16 6.8-24.6-0.2-16.9 0.1-50.9 0-61.9h34.9c-0.7 9.4-3.9 47-5 63.1-1.3 9.9 7 17.5 6.8 26.9z"/>
				<path id="&lt;Path&gt;" class="s14" d="m528.1 1331.7c-8.2 20.6-13.7 53.6 10.8 65.1 37.1 14.7 80.1 12.4 118 1.3 2.2-0.6 4.3-1.4 6.4-2.1 0.1-0.1 0.2-0.1 0.3-0.1l4.1-0.2c10-0.7 14 13.8 5.2 18.4-1 0.5-2.9 1.7-3.9 2.2-43.9 23.2-121.4 40.4-165.3 10.6-35.7-24.5-39.1-74-28.6-112.4 11.2-36.1 65.1-18.7 53 17.2z"/>
				<path id="&lt;Path&gt;" class="s14" d="m650 1861.5c-0.3 2.6-2.5 5.1-5.6 5.1h-77.3c-0.8-7.9 1.8-15.1 1.4-23.7q0 0 0 0c0.3-22.9-4.3-50.7-6-71.4h44.4c-0.5 8.8-6.9 45.7-7 61.5 4.7 17.8 30.4 12.3 42.2 19.3 3.6 1.9 8.1 4.8 7.9 9.2z"/>
				<path id="&lt;Path&gt;" class="s5" d="m650.4 1861.5c-0.1 2.6-2.3 5.1-5.3 5.1h-78c-0.9-7.9 1.1-15.8 1.4-23.7q0 0 0 0 0.2-3 0-6c25.1 30.3 70.4 1.9 81.3 22.2 0.4 0.8 0.6 1.6 0.6 2.4z"/>
				<path id="&lt;Path&gt;" class="s5" d="m483.1 1861.5c-0.7 2.8-3.3 5.1-6.4 5.1h-31c-8.9-0.7-6.8-10.5-3.3-16.2 0 0 17.3-14 37.6 0 1.7 3.3 3.6 7.2 3.1 11.1z"/>
				<path id="&lt;Path&gt;" class="s18" d="m438.9 1831.2c0 0 25.1 9.3 42.6 1.7 10.6-56.8 41.4-171.4 51.9-282 0-4.5 34.7 155.6 25.8 278.4 11.1 3.9 35.2 9.9 46.4 0.6 8.1-57.8 29.7-221.6-3.8-395.2 0 0-71.3 9-134.4-7.5 0 0-27.6 47.5-20.6 149.1 5.8 98.6 1.4 196.7-7.9 254.9z"/>
				<path id="&lt;Path&gt;" class="s19" d="m939.7 1296.2c-9.4 14.1-25.5 35.3-35.6 49.3-23.4 31.8-40 61.4-80.7 73.3-24.3 7.4-49.4 6.8-73.3 1.4-11.4-2.6-22.4-6.3-32.8-11.1-5.2-2.4-7.5-8.6-5.1-13.8 1.8-3.9 5.7-6.1 9.7-6.1 38.7 0.5 85.9-2.3 108.6-38 2.3-4 4.5-8.2 6.9-12.2 16.6-28.3 35.6-55.5 59.1-78.5 24.5-26 63.8 6.9 43.2 35.7z"/>
				<path id="&lt;Path&gt;" class="s30" d="m446.2 1824.1c5.5-48.3 16.4-152.4 12.2-218.4-2.1-66.8 7.4-100.6 7.5-100.9 1.2-2.2 24.5-12.5 34.5-38 0.6-1.9 3.7-0.9 2.9 1.1-8.7 23.3-30.5 36.2-34.6 38.4-14.7 56 0.9 257.2-22.5 317.8z"/>
				<path id="&lt;Path&gt;" class="s29" d="m607.6 1467.3c-36.7 23.1-124.9 10.9-154.5 2.4-6.8-18.2 11.1-42.4 7.5-65.4-8.5-53.7 18.7-107 50.6-118.5 0-0.2 0-2.9 0-2.8l28.7 1.7c14.5 10.4 27.2 21.9 41.2 41.8 21.2 30.1 5.3 44.8 11.5 73.3 1.2 13.8 23.8 61 15 67.5z"/>
				<path id="&lt;Path&gt;" class="s31" d="m511.2 1285.8q0 0-0.1 0 0-0.3 0.1 0z"/>
				<path id="&lt;Path&gt;" class="s18" d="m893.9 1364.4c-19 87.2-134.5 67.8-171.3 47.2 6.6-8.6 2.8-22.4 2.8-22.4 127.7-3.9 112.1-113.9 179.4-136.7 0 0 4.2 62.6-10.9 111.9z"/>
				<path id="&lt;Path&gt;" class="s14" d="m972.3 1861.7l1.2-0.6c0 0.8 1.1 3.6 1.9 3.6l36 0.7c0.9 0 1.4-1.5 1.4-2.3l3.1-0.8c0-5.1-0.5-6.9-2.9-10.8-8.7-10.8 1.7-59.6 1.4-72.4 1.8-3.5-37.8-0.7-38.4-1.6-0.9 0-1.6 0.8-1.6 1.6-0.4 12.7 9.5 61.7 1.1 72.3-2.4 4-3.2 5.3-3.2 10.3z"/>
				<path id="&lt;Path&gt;" class="s14" d="m816.2 1866.6h71.7c6.2-0.3 6.3-6.1 5.1-10.9-4-16.7 3-55.1 4.3-72.3 0.4-3.1-2.3-5.9-5.7-5.9-52.2-0.1-36-5.6-31.5 49 2.2 20.3-20.6 21.6-34.2 24.3-5.7 1.3-11.7 3.4-14.4 7.4-2.6 3.5 0.1 8.4 4.7 8.4z"/>
				<path id="&lt;Path&gt;" class="s15" d="m895.7 1859.6c-0.2 3.4-2 7-6 7 0 0-74.4 0-74.4 0-18.6-5.4 8.7-29.7 42.1-27.8 2.6 0.6 19.6 2.4 34.4 0.5 0 0 4.9 8.3 3.9 20.3z"/>
				<path id="&lt;Path&gt;" class="s15" d="m1010.2 1866.6h-31.8c-15.4-1.7-4.6-27.7 15.9-27.8 21.3-0.2 31.1 26.3 15.9 27.8z"/>
				<path id="&lt;Path&gt;" class="s16" d="m833 1857.2c-0.5 0-1.1-0.4-1.4-0.9-2.8-6.6-8.1-8.7-8.2-8.7-1.9-0.7-0.8-3.6 1.1-2.9 0.2 0.1 6.6 2.5 10 10.3 0.4 1-0.4 2.2-1.5 2.2z"/>
				<path id="&lt;Path&gt;" class="s16" d="m845.3 1855.8c-0.6 0-1.2-0.4-1.4-1.1-2.5-7.5-9.7-11.1-9.7-11.2-1.8-0.8-0.5-3.6 1.3-2.7 0.3 0.2 8.4 4.1 11.3 13 0.3 0.9-0.4 2-1.5 2z"/>
				<path id="&lt;Path&gt;" class="s16" d="m859.3 1854.2c-0.6 0-1.2-0.4-1.4-1-3-8-9.8-12.3-9.9-12.3-1.7-1 0-3.7 1.7-2.6 0.3 0.2 7.7 4.9 11 13.8 0.4 1-0.3 2.1-1.4 2.1z"/>
				<path id="&lt;Path&gt;" class="s30" d="m893.9 1364.4c-14.7 65.9-83.6 64.4-83.6 64.4 0 0 23-10.1 29.9-50.3 6.9-40.2 33.1-80.5 33.1-80.5z"/>
				<path id="&lt;Path&gt;" class="s16" d="m1005.7 1847.7c-12-6.5-23 2-24.5-1-0.4-0.8 0-1.7 0.8-2 0.5-0.2 13.8-5.7 24.4 0.1 1.4 0.7 0.8 2.9-0.7 2.9z"/>
				<path id="&lt;Path&gt;" class="s17" d="m810.1 1859.6h85.6c-0.3 2.4-1 4.8-2.3 7h-78.1c-3.8 0-6.6-3.6-5.2-7z"/>
				<path id="&lt;Path&gt;" class="s17" d="m1010.2 1866.6h-31.8c-4.1 0-7.3-3.2-7.1-7h45.9c0.3 3.8-3 7-7 7z"/>
				<path id="&lt;Path&gt;" class="s16" d="m1019.5 1828.6c0 0-34 7.7-51.4-0.6-9.1-53.4-34.4-202.1-43.2-304-0.3 6-18.8 245.6-22.3 304-12.1 3.8-36.3 8.3-49.9-0.8-6.1-61.5-25.6-264 3.8-429.4 0 0 80.9 8.4 144-9.4 17.3 52.3 22 377.2 19 440.2z"/>
				<path id="&lt;Path&gt;" class="s32" d="m865.8 1821.9c-12.3-117.1-5.5-265.5 8-337.9 4 1.5-4.7 38.7-7.2 100.8-5.2 54.6-2 146.3-0.8 237.1z"/>
				<path id="&lt;Path&gt;" class="s32" d="m992.8 1821.9c-10.8-182.5-39.2-351.3-36.5-354 3.8 0.6 32.5 172.2 36.5 354z"/>
				<path id="&lt;Path&gt;" class="s14" d="m918.4 1247.5c-1.7-15.4 0.7-37.6 2.8-46.7 1.2-5 4.7-8.7 8.7-9.9 10.1-3.6 22.1 5.1 19 16.5-0.9-0.6-3.9 32.1-1.8 41.1 26.8 8.1-53.8 34.5-28.7-1z"/>
				<path id="&lt;Path&gt;" class="s19" d="m949.2 1205.9q-0.1 0.8-0.3 1.5c-0.7-0.4-2.5 17.6-2.5 30.7-12.3 5.5-25.9 3.3-28.5 2.8-0.4-18.2-1.2-45.6 12-50 9.5-4.1 21 4.6 19.3 15z"/>
				<path id="&lt;Path&gt;" class="s14" d="m1005.9 1486.8c0 0 0.4 6 0 11.1l14 5.1 7.5-3.1c0 0-0.7-5.7 1.8-12.4 2.5-6.7-23.3-0.7-23.3-0.7z"/>
				<path id="&lt;Path&gt;" class="s18" d="m1011.7 1480.1c-4.4 3.7-10.9 6.6-18.9 8.8-46 12.6-140.2 1.7-148-14.5-6.2-13-6.6-53.4 2.1-96.3 11.7-59.6 29.9-101.5 71.5-130.6-0.2 0.8-5.5 22.9 28.7 1l10.5 1.9c3.5 57.1 80.5 203.3 54.1 229.7z"/>
				<path id="&lt;Path&gt;" class="s32" d="m902.6 1828c0.1-0.1-4.4 1.5-10.5 2.6 0 0 17.1-237.8 19.6-269.5 2.6-31.7 13.2-37.1 13.2-37.1 0 0-22.6 298.9-22.3 304z"/>
				<path id="&lt;Path&gt;" class="s32" d="m903.3 1816.5c-0.5 6.8-0.7 10.9-0.7 11.5-12.1 3.8-36.3 8.3-49.9-0.8 0 0-0.4-3.8-1.1-10.7 0 0 23.8 10.2 51.7 0z"/>
				<path id="&lt;Path&gt;" class="s32" d="m1019.5 1828.6c0 0-34 7.7-51.4-0.6 0 0-0.8-4.1-2-11.5 0 0 23.9 6.2 53.8 0 0.1 7.2-0.6 11.5-0.4 12.1z"/>
				<path id="&lt;Path&gt;" class="s30" d="m559.2 1829.3c0 0 32.4 12 46.4 0.6 0 0 0.5-4 1.5-11.1 0 0-24.2 8.6-47.2-3.8q-0.3 7.2-0.7 14.3z"/>
				<path id="&lt;Path&gt;" class="s30" d="m438.9 1831.2c0 0 25.1 9.3 42.6 1.7 0 0 0.9-5 2.7-13.9 0 0-15.7 8.2-43.1-2-0.7 5.7-1.5 10.4-2.2 14.2z"/>
				<path id="&lt;Path&gt;" class="s30" d="m559.9 1815q-0.3 7.2-0.7 14.3c0 0 3.6 1.3 8.9 2.7-0.1-85.3 0-223-34.7-281.1 0 0 31.5 130.3 26.5 264.1z"/>
				<path id="&lt;Path&gt;" class="s30" d="m533.4 1552.5c-4.1-0.2 2.5-12.7 4.9-28.3 0.4-2 3.6-1.3 3.1 0.7-4 16-5 26.5-8 27.6z"/>
				<path id="&lt;Path&gt;" class="s14" d="m663.1 1396.2c13.4-7 27.6-5.5 48.6 2.1 7.3 0.9 12.3 14.6 0.5 16.8-17.2 3.3-39.3-1.2-39.3-1.2z"/>
				<path id="&lt;Path&gt;" class="s19" d="m685 1399.3c6.4-6.2 15.4-9.2 24.2-8.9 5.6-0.1 9.4 8.2 3.8 8.2-6.9-1.2-18.1 0.2-24 4.2-2.6 2.6-6.6-0.8-4-3.5z"/>
				<path id="&lt;Path&gt;" class="s19" d="m691.3 1415.3c-2.7 4.8-8.5 1.5-5.7-3.3 2.7-4.8 8.5-1.5 5.7 3.3z"/>
				<path id="&lt;Path&gt;" class="s19" d="m697 1415.8c-2.7 4.8-8.5 1.5-5.7-3.2 2.7-4.8 8.5-1.5 5.7 3.2z"/>
				<path id="&lt;Path&gt;" class="s19" d="m702.8 1416.4c-2.7 4.8-8.4 1.5-5.6-3.2 2.7-4.8 8.4-1.5 5.6 3.2z"/>
				<path id="&lt;Path&gt;" class="s19" d="m708.7 1416.4c-2.7 4.8-8.4 1.5-5.6-3.2 2.7-4.8 8.4-1.5 5.6 3.2z"/>
				<path id="&lt;Path&gt;" class="s33" d="m957.6 1250.4c0.2 13-33.3 24.5-35.2 24.5l-4-11.8c-5.1 1.3-9.6 8.5-9.6 8.5-14.8-14.7-1.3-26.1 9.6-24.1q0 0 0 0c-0.2 0.8-2.5 20.1 28.5 0.4 4-1.9 10.7 2.5 10.7 2.5z"/>
				<path id="&lt;Path&gt;" class="s34" d="m1109 1651.3l-158.3 22.8-16.6-115.3 158.3-22.9z"/>
				<path id="&lt;Path&gt;" class="s35" d="m950.7 1674.1l-9.1-5.2-16.7-115.4 9.2 5.3z"/>
				<path id="&lt;Path&gt;" class="s35" d="m924.9 1553.5l158.4-22.8 9.1 5.2-158.3 22.9z"/>
				<path id="&lt;Compound Path&gt;" class="s34" d="m1043.4 1536.5c-15.5-31.8-55.7-22.9-64.6 9.3-0.2 2.6 1.6 5 3.8 4.6 2.8-0.4 3.1-3.7 4.2-5.8 6.5-14.6 24.2-24.2 38.8-15.7 4.5 2.4 8.6 6.5 11.5 11.1 2.4 3.8 7 0.3 6.3-3.5z"/>
				<path id="&lt;Path&gt;" class="s36" d="m934.1 1558.8l87.4 46.2 70.9-69.1z"/>
				<path id="&lt;Path&gt;" class="s33" d="m1023.8 1614.9c-3.6 1.1-7.8-0.7-8.3-4.7-0.5-4.8-3.7-14 3.7-15 3.7-1.1 7.9 0.7 8.4 4.7 0.5 4.8 3.6 13.9-3.8 15z"/>
				<path id="&lt;Path&gt;" class="s14" d="m1005.9 1497.9c0 0-7.2 15.7-7.2 32.6l24 1.4c7.8-11.3 4.7-32 4.7-32z"/>
				<path id="&lt;Path&gt;" class="s30" d="m1011.7 1480.1c-4.4 3.7-10.9 6.6-18.9 8.8 1.8-23-1.9-59.5-18.1-100.5-16.2-41.1-15.5-83.3-15.5-83.3l12 0.9c21 58.8 59.7 157.7 40.5 174.1z"/>
				<path id="&lt;Path&gt;" class="s18" d="m957.6 1250.4c87.7 19.4 112.1 157.4 69.8 249.5 0 0-9.4 3.1-21.5-2 0 0-0.4-65.8-27-118.8-26.6-53.1-21.3-128.7-21.3-128.7z"/>
				<path id="&lt;Path&gt;" class="s21" d="m483.1 1861.5c-0.7 2.8-3.3 5.1-6.4 5.1h-31c-3.1 0-5.7-2.3-6.4-5.1z"/>
				<path id="&lt;Path&gt;" class="s21" d="m650.4 1861.5c-0.1 2.6-2.3 5.1-5.3 5.1h-78c-0.3-1.8-0.4-3.3-0.3-5.1z"/>
				<path id="&lt;Path&gt;" class="s28" d="m658.3 1421.8c-55.1 44.9-163.3 52.7-197.5-14.1-31.3-62.1-2.4-123.4 50.4-121.9 0 0 10.3 36.8 9 65.8l0.1 11.1c0.2 13.9 8.5 26.4 21.3 31.8 32 13.4 87.3 9.4 111.2 4.7 11.3 11.3 5.5 22.6 5.5 22.6z"/>
				<path id="&lt;Path&gt;" class="s29" d="m660.4 1420.7c-2.8 3.3-8.2 5.8-8.2 5.8 2.6-18.8-7.1-26-7.1-26 4.1-2 8.8-1.3 8.8-1.3 9.2 8.8 6.5 21.5 6.5 21.5z"/>
				<path id="&lt;Path&gt;" class="s19" d="m711.2 1403.9c-7-0.3-17.4-0.1-14.1-1.9 0.1 0 12.7 1.2 20.8 0.4 3.1 1.8-5.6 1.4-6.7 1.5z"/>
				<path id="&lt;Path&gt;" class="s19" d="m708.7 1408.9c-0.2 0-15 0-11.1-2 12.3 1.9 21.4 0 21.5 0 3 1.4-3.7 1.9-10.4 2z"/>
				<path id="&lt;Path&gt;" class="s14" d="m1004.9 1531.9c-2.5 4.8-8.3 1.7-5.7-3.1 2.6-4.9 8.4-1.7 5.7 3.1z"/>
				<path id="&lt;Path&gt;" class="s14" d="m1010.7 1532.3c-2.6 4.9-8.4 1.7-5.8-3.1 2.6-4.9 8.4-1.7 5.8 3.1z"/>
				<path id="&lt;Path&gt;" class="s14" d="m1016.5 1532.7c-2.6 4.9-8.4 1.7-5.7-3.1 2.5-4.9 8.4-1.7 5.7 3.1z"/>
				<path id="&lt;Path&gt;" class="s14" d="m1022.4 1532.5c-2.5 4.9-8.4 1.8-5.7-3.1 2.6-4.8 8.4-1.7 5.7 3.1z"/>
				<path id="&lt;Path&gt;" class="s28" d="m546.7 1289.7c-1.4 16.4-30.2 5.6-31.5 3.5-0.4-1.1-4.8-9.1-4-10.2l28.7 1.7c0 0 2.6 1.7 6.8 5z"/>
				<path id="&lt;Path&gt;" class="s27" d="m509.4 1168.2c35.2-5.5 69.5 38.3 49.6 77.8z"/>
				<path id="&lt;Path&gt;" class="s14" d="m539.9 1284.7c1.7-15.4-0.7-37.5-2.8-46.7-4.1-18-32.3-11.1-27.7 6.7 0.9-0.6 1.8 38.3 1.8 38.3 4.6 7.3 28.7 13.5 28.7 1.7z"/>
				<path id="&lt;Path&gt;" class="s19" d="m511 1275.7c12.3 5.6 26.9 2.7 29.4 2.2 3.9-60.8-26.4-68.9-29.6-8z"/>
				<path id="&lt;Path&gt;" class="s14" d="m489.8 1231.2c2.1 12.8 6.4 27.2 16.5 35.6 4.1 3.4 9.1 5.6 14.4 6.6 29.8 8.4 64.8-26.3 41.5-51.6-8.5-7.8-10.3-21.7-17-29.5-9.9-14.3-31.4-13.5-43.1-1.9-10.5 10.5-14.1 25-12.3 40.8z"/>
				<path id="&lt;Path&gt;" class="s25" d="m538.7 1223.3c1.1-2.2-2.4-4-3.5-1.8-1.2 2.2 2.4 4 3.5 1.8z"/>
				<path id="&lt;Path&gt;" class="s25" d="m554.9 1220.5c1.2-2.2-2.3-4-3.4-1.7-1.2 2.2 2.3 4 3.4 1.7z"/>
				<path id="&lt;Path&gt;" class="s25" d="m548.8 1237.4c-0.9-0.1-2.9 0.1-2.6-1.2 0.1-0.4 0.5-0.6 0.9-0.5 2.4 0.9 8.4-0.9 5.6-2.6-4.2-2.3-7-10.1-7.1-10.5-0.3-0.8 1.1-1.3 1.4-0.4 0 0 2.7 7.6 6.4 9.6 4.4 3.2-1.1 5.5-4.6 5.6z"/>
				<path id="&lt;Path&gt;" class="s19" d="m489.8 1231.2c2.1 12.8 6.4 27.2 16.5 35.6-5.6-6.9-9.1-22.5-9.1-22.5l2.7-6.9c44.4-14.3 40.7-50.1 40.7-50.1-6.6-5.8-15.7-6.9-24.2-4.7-20.8 5.4-29.2 27.9-26.6 48.6z"/>
				<path id="&lt;Path&gt;" class="s27" d="m535.9 1183.9c-2.3-1.5-24.4-14.6-26.5-15.7 0 0-17.7 11.9-16.1 14.5-11.5 9.8-15.5 28.4-8 43.3l14.3 7.8c39.8-14.4 36.3-49.9 36.3-49.9z"/>
				<path id="&lt;Path&gt;" class="s28" d="m545.1 1306.5c0 4-6.2 4-6.1 0-0.1-4 6.1-4 6.1 0z"/>
				<path id="&lt;Path&gt;" class="s28" d="m551.2 1319.7c0.1 3.9-6.2 3.9-6.1 0-0.1-4 6.2-4 6.1 0z"/>
				<path id="&lt;Path&gt;" class="s28" d="m557.3 1333.9c0.1 3.9-6.2 3.9-6.1 0-0.1-4 6.2-4 6.1 0z"/>
				<path id="&lt;Path&gt;" class="s19" d="m1004.4 1533.3c-1.4-0.2 0.4-7.4 1.5-12.6 0.1-0.3 0.4-0.5 0.8-0.4 0.3 0.1 0.5 0.4 0.4 0.8-1.8 5.3-1.4 11.8-2.7 12.2z"/>
				<path id="&lt;Path&gt;" class="s19" d="m1010.2 1533.3c-1.5-0.2 0.6-6.9 1.7-12.1 0.1-0.3 0.5-0.5 0.8-0.4 0.3 0.1 0.5 0.5 0.4 0.8-1.8 5.2-1.7 11.3-2.9 11.7z"/>
				<path id="&lt;Path&gt;" class="s19" d="m1016.5 1533.3c-1.6-0.3 1.3-6.1 1.1-11.9 0-0.3 0.3-0.6 0.6-0.6 0.4 0 0.6 0.3 0.6 0.6-0.1 5.2-1.6 11.2-1.7 11.5-0.1 0.2-0.3 0.4-0.6 0.4z"/>
				<path id="&lt;Path&gt;" class="s27" d="m534.5 1172.3c0 0-25.8-22.4-53-3.2-30.1 21.3-16.3 57.5-29.9 73.6-19.6 23.1-17.2 47.8 1.2 55.9 13.9 6.1 38 8.8 58.2 4.9 6.4-1.2 13-5.2 5.5-14.9-7.7-10.1-19.3-27.1-21.5-42.6l4.6-12.2z"/>
				<path id="&lt;Path&gt;" class="s14" d="m481.7 1237.6c3.3 14.6 20.8 10.9 17.9-3.8-3.3-14.5-20.8-10.8-17.9 3.8z"/>
				<path id="&lt;Path&gt;" class="s25" d="m486.3 1240.6c-0.3 0-0.6-0.2-0.7-0.5-3.3-9.2 1.7-13.1 7.8-10.6 0.9 0.3 0.4 1.7-0.5 1.4-5.4-2.1-8.6 0.9-5.9 8.8 0.2 0.4-0.2 0.9-0.7 0.9z"/>
				<path id="&lt;Path&gt;" class="s25" d="m493.2 1239.6c-1.4-0.2-2.1-5.5-7.7-6.1-0.5 0-0.8-0.4-0.7-0.8 0-0.4 0.4-0.7 0.7-0.7 5.6 0.4 9.9 7.4 7.7 7.6z"/>
				<path id="&lt;Path&gt;" class="s33" d="m489.7 1244.3c0 2.2 3.3 2.2 3.3 0 0-2.1-3.3-2.1-3.3 0z"/>
				<path id="&lt;Path&gt;" class="s37" d="m903.4 1171.2c0 0-5.6-23.2 14.4-32l13.6 8.9z"/>
				<path id="&lt;Path&gt;" class="s14" d="m969.8 1190.8c-1.3 13.1-4.8 28.1-14.5 37.4q-0.6 0.6-1.3 1.1 0 0 0 0c-14.5 11.1-35.6 11.1-51.2-0.2h-0.1c-12.4-10.3-17.1-24.9-11.6-36.7 3.6-7 10.8-13.4 12.3-21.2 9.3-47.5 71.5-31.5 66.4 19.6z"/>
				<path id="&lt;Path&gt;" class="s25" d="m919.5 1185.8c-1.3-2.2 2.1-4.2 3.4-2 1.3 2.2-2.1 4.2-3.4 2z"/>
				<path id="&lt;Path&gt;" class="s25" d="m902.7 1184c-1.3-2.2 2.1-4.2 3.4-2 1.4 2.2-2.1 4.3-3.4 2z"/>
				<path id="&lt;Path&gt;" class="s19" d="m969.8 1190.8c-1.3 13.1-4.8 28.1-14.5 37.4q-0.6 0.6-1.3 1.1c12.5-19.6 10.2-24.2 7.1-39-14.1-12.5-12-27.2-26.3-28.6-14.2-1.5-26.1-4.7-26.1-4.7 19.5-32.3 65.7-7.6 61.1 33.8z"/>
				<path id="&lt;Path&gt;" class="s25" d="m908.4 1200.8c-3.2-0.4-7.2-2.3-3.4-5.4 3.6-2.2 5.9-10.1 5.9-10.2 3.7-2.7-1 9-5.1 11.5-2.8 2 3.4 3.3 5.9 2.3 3.3 0.9-1.9 2.4-3.3 1.8z"/>
				<path id="&lt;Path&gt;" class="s37" d="m974 1173.2c-0.5-38.2-24-39.5-24-39.5-17.2-28.8-63.4-20.1-47.9 11.9 8.6 19.6 37.8 1.8 51.3 27.2 5.4 10.2 8.7 16.5 19.3 22.5 0 0 2.7-11.6 1.3-22.1z"/>
				<path id="&lt;Path&gt;" class="s14" d="m978.5 1196.8c-2 15-20.8 12.2-18.5-2.7 2.1-14.9 20.9-12.2 18.5 2.7z"/>
				<path id="&lt;Path&gt;" class="s25" d="m973.9 1200.2c-0.4-0.1-0.8-0.5-0.7-0.9 1.1-4.5 0.9-7.5-0.6-8.8-3.1-2.2-5.9 1.2-6.9-0.2-0.4-1.6 4.6-3 7.8-0.9 1.7 0.9 3.3 7.5 0.4 10.8z"/>
				<path id="&lt;Path&gt;" class="s25" d="m907.8 1211.6c-2.7-0.1-5-1.7-2.5-2.1 0.3 0.1 7.4 2.8 15.8-3.5 0.3-0.3 0.8-0.2 1 0.1-2.8 5.5-12.1 5.7-14.3 5.5z"/>
				<path id="&lt;Path&gt;" class="s25" d="m928.8 1181.6c-0.2 0-0.4-0.1-0.6-0.3-3.5-4.7-9.3-5-9.4-5.1-0.4 0-0.7-0.3-0.7-0.7 0-0.4 0.4-0.8 0.8-0.7 0.2 0 6.6 0.3 10.5 5.6 0.3 0.4 0.2 0.8-0.1 1.1q-0.2 0.1-0.5 0.1z"/>
				<path id="&lt;Path&gt;" class="s25" d="m903.1 1176.8c-0.2 0-0.5-0.2-0.6-0.4-0.2-0.3-0.1-0.8 0.2-1 0.2-0.1 4.3-2.7 9-1.4 0.4 0.1 0.7 0.5 0.6 0.9-0.1 0.4-0.6 0.7-1 0.5-4-1.1-7.7 1.2-7.8 1.2q-0.2 0.2-0.4 0.2z"/>
				<path id="&lt;Path&gt;" class="s25" d="m966.1 1199.3q-0.1 0-0.2-0.1c-0.4-0.1-0.6-0.5-0.5-0.9 0.1-0.2 2.1-6.2 9-6.7 0.4-0.1 0.7 0.2 0.8 0.6 0 0.5-0.3 0.8-0.7 0.9-5.9 0.4-7.6 5.6-7.7 5.7-0.1 0.3-0.4 0.5-0.7 0.5z"/>
				<path id="&lt;Path&gt;" class="s25" d="m529.6 1221.1q-0.2 0.1-0.4-0.1c-0.3-0.2-0.4-0.6-0.2-0.9 0.2-0.2 4.2-6.3 11.4-6.6 0.4 0 0.7 0.3 0.7 0.7 0.1 0.3-0.2 0.6-0.6 0.7-6.5 0.2-10.3 5.9-10.3 5.9-0.2 0.2-0.4 0.3-0.6 0.3z"/>
				<path id="&lt;Path&gt;" class="s25" d="m555 1213.7q-0.1 0-0.3 0c-4.3-2.4-8.8-0.1-8.8 0-0.4 0.1-0.8 0-0.9-0.3-0.2-0.3-0.1-0.7 0.2-0.9 0.2-0.1 5.2-2.7 10.1 0 0.4 0.2 0.5 0.6 0.3 0.9-0.1 0.2-0.3 0.3-0.6 0.3z"/>
				<path id="&lt;Compound Path&gt;" fill-rule="evenodd" class="s25" d="m543.9 1251c-1.6 0-3.3-0.9-4.5-2.4-1.8-2.4-1.7-5.7 0.4-7.2 2-1.6 5.2-0.9 7 1.6 1.8 2.4 1.7 5.6-0.4 7.1-0.7 0.6-1.6 0.9-2.5 0.9zm-1.6-8.9c-0.6 0-1.1 0.1-1.6 0.5-1.4 1-1.4 3.3-0.1 5.1 1.3 1.7 3.5 2.3 4.9 1.3 1.4-1.1 1.4-3.4 0.1-5.1-0.9-1.2-2.1-1.8-3.3-1.8z"/>
			</g>
		</g>
	</g>
</svg>