<svg version="1.2" xmlns="http://www.w3.org/2000/svg" viewBox="0 0 1430 180" width="1430" height="180">
	<title>footer</title>
	<defs>
		<linearGradient id="g1" x1="0" y1="181" x2="0" y2="181" gradientUnits="userSpaceOnUse">
			<stop offset="0" stop-color="#42A1F6"/>
			<stop offset="1" stop-color="#42A1F6"/>
		</linearGradient>
	</defs>
	<style>
		.s0 { fill: url(#g1) } 
	</style>
	<path id="&lt;Mesh&gt;" class="s0" d="m0 181q371.8 0 743.6 0c-0.1-19.8-32.8-31.6-75.3-41-258.6-5.6-490.6-18.4-668.3-18.4q0 29.7 0 59.4zm0-59.4c177.7 0 409.7 12.8 668.3 18.4-78.6-17.4-251.8-69.1-251.9-105.7-285.5-19.8-416.4 22.3-416.4 22.3 0 36.6 0 28.5 0 65zm743.6 59.4q343.2 0 686.4 0-0.1-29.7-0.3-59.4c-261.6 22.7-522.8 23.6-761.4 18.4 42.5 9.4 75.2 21.2 75.3 41zm-75.3-41c238.6 5.2 499.8 4.3 761.4-18.4q-0.2-54.8-0.4-109.6c-151.7 144.2-749.3 40.6-1012.9 22.3 0.1 36.6 173.3 88.3 251.9 105.7z"/>
</svg>