<svg version="1.2" xmlns="http://www.w3.org/2000/svg" viewBox="0 0 1430 480" width="1430" height="480">
	<title>fundo-home2</title>
	<style>
		.s0 { fill: #42A1F6 } 
		.s1 { fill: #000000 } 
	</style>
	<g id="OBJECTS">
		<g id="&lt;Group&gt;">
			<g id="&lt;Group&gt;">
				<g id="OBJECTS">
					<g id="&lt;Group&gt;">
						<g id="&lt;Group&gt;">
							<g id="&lt;Group&gt;">
								<path id="&lt;Path&gt;" class="s0" d="m1430 0v480h-0.4-1.3-2.1-2.8-3.6-4.4-5-19.1-7.6-8.2-8.7-29-10.6-11-60.1-12.9-26.3-13.4-13.6-13.6-82.8-13.7-13.5-13.5-26.3-12.8-60.1-11-10.6-29.1-8.7-8.1-7.6-19.1-5.1-4.3-3.6-2.9-2.1-1.2-0.4-5.8c1.5-32.4 11.2-64.8 28.2-94 23.8-38.1 59.1-71.3 101.1-96.9 35.3-20.3 73.1-40.4 95.1-71.6 12.5-20.1 19.2-41.7 27.1-63.1 8.7-23.9 16.4-48.2 30.3-70.6 10.8-16.8 23.3-33 38.2-47.6 8.3-7.3 29-26.7 45.2-36.2h11.2 0.2 0.5 0.7 1.1 1.3 1.7 1.8 2.2 4.9 2.9 3 3.2 3.4 3.7 3.7 4 4.1 17.6 4.7 9.7 4.9 5 10.1 5.1 20.6 5.1 10.1 5 5 9.6 4.7 17.7 4.1 3.9 3.8 3.6 3.4 3.2 3.1 2.8 5 2.1 1.9 1.6 1.3 1.1 0.8 0.4z"/>
								<path id="&lt;Path&gt;" class="s0" d="m230.9 480h-0.2-0.5-0.8-1.1-1.5-1.7-1.9-2.3-2.5-2.7-9.6-3.6-3.8-8.2-4.3-4.4-4.6-4.8-4.8-5-5-5.1-5.2-5.3-16.1-5.4-10.8-5.5-16-5.3-5.2-5.1-5.1-4.9-4.9-4.7-4.6-4.5-4.3-8.1-3.8-3.6-9.6-2.8-2.5-2.2-2-1.7-1.4-1.1-0.8-0.5-0.2v-156.7-9.3c20.1 17.9 45.3 30.4 70.7 40.5 21.7 9.1 45.3 13 67.4 21.2 23.8 9.4 48 20.3 66.3 37.8 18.3 17.1 30.1 39.4 33.9 63.4 0.1 0.6 0.3 1.7 0.4 3.1z"/>
								<path id="&lt;Path&gt;" class="s0" d="m836-0.2c-3.7 2-7.7 3.9-11.7 5.7-46.1 19.2-104.4 31.9-164.8 31.9-65-0.5-130.4-13.7-175.5-37.5q-0.1 0-0.3-0.1h12.8 0.2 0.7 1.1 1.6 2 2.4 2.8 3.2 3.5 3.9 4.1 4.6 9.8 5.4 11.5 6 6.3 20 6.9 14.3 7.4 7.4 15 7.6 30.5 7.6 15.1 7.4 7.3 14.3 7 20 6.2 6.1 11.5 5.3 9.9 4.5 4.2 3.9 3.5 3.2 2.7 2.4 2 1.6 1.2 0.7 0.2z"/>
							</g>
							<g id="&lt;Group&gt;">
								<path id="&lt;Path&gt;" class="s1" d="m1092.8 277.8c-4-2.3-4.4-6.9-6.4-10.3q-2.5-5.6-5-11.3c-4.4-10.4-9.2-20.6-13-31.1-2.5-6.8-5.6-13.4-8.4-20.1-1.7-5.5-7.9-13.5-0.2-17.5q0 0 0-0.1c-2.6 3.8-0.9 8.2 0.7 12.1 2.3 6.1 5.1 12 7.6 18 5.3 13.8 11 27.5 16.9 41.1 1.6 3.7 3.3 7.4 5 11.1 0.9 2.7 3.4 5.2 2.8 8.1q0 0 0 0z"/>
								<path id="&lt;Path&gt;" class="s1" d="m1192.7 323.2c-4.8-0.5-8.9-2.8-13.2-4.5-10.6-4.4-21-9.1-31.5-13.5-12.8-5.4-25.7-10.5-38.4-16.1-4.1-1.8-8.2-3.7-12-5.9-2.7-1.5-4.7-3.7-5.7-6.2 0-0.2-0.1-0.4-0.1-0.6q0-0.1 0-0.1c0.1 0 0.2 0.1 0.2 0.1q0 0 0 0-0.1 0-0.1 0 0 0 0 0c4.5 4.2 10.5 7.3 16.4 10 6.2 2.9 12.5 5.5 18.8 8.2 8.6 3.5 17.1 7.1 25.7 10.6 11.6 4.8 23.1 10.2 34.9 14.7 1.9 0.7 4 1.3 6.1 1.4 2 0.1 4 0.1 5.8 0.8-2 1.2-4.6 1.2-6.9 1.1z"/>
								<path id="&lt;Path&gt;" class="s1" d="m1194.2 322.6c3.3-1.4 6.7-2.8 10.2-4 3.6-1.3 7-2.7 10.5-4.1 7.1-2.9 14.2-5.8 21.4-8.4 4.8-1.8 9.6-3.5 14.4-5.4 11.9-4.8 23.4-10.2 35.1-15.4 6.2-2.7 12.2-5.2 18.3-8 3.8-1.7 7.6-3.5 11-5.7 0.3-0.2 0.6-0.4 1-0.6 0.1 1.3-0.4 2.7-1.8 3.5-2.9 1.7-6.2 3-9.4 4.4-6.3 2.9-12.8 5.6-19.2 8.4q0 0 0.1-0.1c-9.9 4.4-19.5 8.7-29.4 13-9.3 3.8-19 7.1-28.4 10.8-7 2.8-14 5.8-21 8.6-4 1.6-8.3 3-12.8 3z"/>
								<path id="&lt;Path&gt;" class="s1" d="m1057.4 190.8q0 0 0 0 0 0 0.1 0c0.7-6.7 9.6-8.5 16.2-10.3 7-1.9 14.1-3.6 21.2-5.1 11.6-2.6 23.2-5.4 34.9-7.8 17.4-3.4 34.8-6.5 52.4-9.1 2.8-0.3 5.6-0.8 8.4-0.9 2.7-0.2 5 0.2 6.8 2-2.3 0.3-4.6 0.1-6.9 0.2-3.7 0.2-7.6 0.7-11.2 1.2-26.5 3.8-52.9 8.6-78.7 14.9-7.1 1.7-14.6 3.2-21.6 5-4.9 1.3-9.8 2.4-14.2 4.4-1.8 0.9-3.5 1.9-5 3.1-0.9 0.7-1.6 1.6-2.4 2.4z"/>
								<path id="&lt;Path&gt;" class="s1" d="m1231.7 237.4c-3.3-2.1-3.9-6.8-5.6-9.9-4.9-10.5-8.9-21.2-13-31.9-4-9.3-8.8-32.9-20-37.1 2.7-0.5 6.6 1.9 8.1 3.8 3 3.9 4.9 8.4 6.8 12.7 3.5 8.7 6 17.6 9.5 26.3 2.5 7.2 5.4 14.3 8.7 21.4q2.3 5.1 4.6 10.3c0.8 1.4 1.3 2.9 0.9 4.4z"/>
								<path id="&lt;Path&gt;" class="s1" d="m1315.6 271.5c-0.7-1.2-1.6-2.3-2.2-3.6-1.6-2.2-4.4-3.6-7.1-4.9-7.9-3.6-16.4-6.5-24.7-9.3-9.9-3.4-20-6.5-30-9.7-7.1-2.1-14.1-4.4-20.5-7.7 4.8 0.3 9.2 2.3 13.5 3.8q10.7 3.5 21.6 6.7c8.3 2.7 16.5 5.6 24.8 8.3q7.3 2.5 14.2 5.4c2.3 1 4.6 1.9 6.6 3.3 2.4 1.5 7 5.4 3.9 7.7q0 0-0.1 0z"/>
								<path id="&lt;Path&gt;" class="s1" d="m1097.8 279.7c-3.5 0-0.2-1.8 1.4-2.3 4-0.9 8-2.1 11.9-3.3 12.2-3.9 24.7-7.4 36.8-11.6 16-4.9 31.8-10.2 47.6-15.5 11.7-3.8 24.1-9 36.1-10.8q0 0 0 0c-7.6 4.5-17.1 5.9-25.5 9.2-13.5 4.5-26.9 9.2-40.5 13.4-15.6 4.8-30.9 10.4-46.5 15-7.1 1.9-14 4.9-21.3 5.9z"/>
								<path id="&lt;Path&gt;" class="s1" d="m1099 278.3c-3.4-1.6-6.3-12.1-8.4-15.7-4.8-10.2-10-20.3-13.9-30.8-3.8-10-7.2-20.1-10.5-30.2-1.1-2.5-2.9-10.3-5.8-11.2-0.6-0.2-1.6-0.1-2-0.5 0.2 0.1 0.4 0 0.6 0 1.2-0.4 2.6-0.4 3.7 0.2 4.7 3.4 5.1 10.4 7 15 2.7 7.8 5.2 15.5 8 23.2 4.2 11.8 10.1 23.2 15.5 34.6 1.3 2.8 2.5 5.6 3.8 8.3 0.9 2.3 2.9 4.7 2 7.1z"/>
								<path id="&lt;Path&gt;" class="s1" d="m1063.1 192c-0.7-7.2 28.7-12.2 35.9-14 20.5-4.9 41.4-8.3 62.1-12.4 9.5-1.9 19-4.1 28.8-4.8 3.2-0.3 7-1 9.2 1.4-1.4 0.6-3 0.8-4.6 0.7-4.4 0.3-8.8 0.4-13.1 1.1-19 3.2-37.8 7.2-56.7 10.5-8.1 1.4-16.1 3.4-24 5.1-9.4 2.1-31.9 6.4-37.6 12.4q0 0 0 0 0 0 0 0z"/>
								<path id="&lt;Path&gt;" class="s1" d="m1198.3 321.7c-3.1-1.5-4.4-4.4-7.2-6.2-11.7-7-26.2-10.4-39.3-15.5-10.6-3.6-20.6-8.1-30.8-12.4-7.7-3.3-16.1-5.7-23.2-9.9 5.5 0.6 10.5 2.7 15.4 4.6 11.2 4.3 21.9 9.2 32.9 13.6 10.4 3.9 21 7.2 31.3 11.1 6.5 2.5 13.5 4.8 18.4 9.2 1.7 1.5 3.8 3.4 2.5 5.5q0 0 0 0z"/>
								<path id="&lt;Path&gt;" class="s1" d="m1193.8 317.7c1.9-3.3 9.8-4.6 13.8-6.3 9.1-2.9 17.9-6.4 26.6-10 26.9-10.1 52.7-21.9 78.7-33.4 0.8-0.2 1.6-0.6 2.4-0.7 0.1 0 0.1 0 0.1 0.1-0.6 0-1.1 0.8-1.6 1.2-5.5 4.4-12.8 6.8-19.5 9.7-14.8 6.8-30 12.9-45 19.4-13.1 4.9-25.7 10.7-39 15.1-2.6 1-5.1 2-7.7 2.9-2.9 1-5.6 2.9-8.8 2z"/>
								<path id="&lt;Path&gt;" class="s1" d="m1106.1 261.8c-3.8-1.6-4.6-7.4-6.1-10.5-2.9-7-5.6-13.8-8.5-20.7-2.8-6.3-5.8-12.6-8.4-19.1-1.7-4.7-6.3-13.6 0.4-16.1-4.4 5.2 5.1 22 7.3 28.1 3.7 7.7 6.6 15.5 10 23.1 1.4 3.1 2.5 6.1 3.6 9.1 0.8 2 2.2 4 1.7 6.1z"/>
								<path id="&lt;Path&gt;" class="s1" d="m1081.1 198.3q0 0 0 0c3.5-5.8 12.4-6.4 19-8.3 7.5-1.7 14.9-3.5 22.4-5.2 12.1-2.7 24.1-5.4 36.3-7.9 8.5-1.5 17.1-3.9 25.9-3.7 2.1 0.2 4.3 0.7 6 1.9 3.4 2.9-0.1 1.6-2.4 0.9-6.9-1.7-14.2 0.4-20.9 1.5-9.8 2-19.5 3.9-29.2 5.9-12.3 2.8-24.6 5.3-36.9 8.2-6.8 1.9-14.2 3.2-20.2 6.7z"/>
								<path id="&lt;Path&gt;" class="s1" d="m1106 260.7c-0.4-0.1-0.8-0.1-1-0.4-0.1 0-0.1-0.2 0-0.1 0.3 0.4 3.3-0.5 3.9-0.7 2.9-1 5.8-2.1 8.7-3 15.7-4.3 30.9-9.7 46.3-14.4 7.7-2.3 15.6-4.4 23.4-6.3 4.7-1.2 9.4-2.5 13.9-4.2 2.1-0.7 4.1-1.8 6.2-2.6 0.4-0.1 0.8-0.3 1.2-0.4q-0.2 0.7-0.5 1.4c-0.9 2.3-8.3 4.7-11.1 5.5-5.4 1.6-11 2.8-16.6 4.2-4.7 1.3-9.4 2.5-14.1 3.8-14.4 4.2-28.3 9.3-42.8 13.3-2.4 0.7-4.9 1.4-7.2 2.2-3.2 1.2-6.8 2.3-10.3 1.7z"/>
								<path id="&lt;Path&gt;" class="s1" d="m1207.4 230.3c-0.9-2.1 0.4-4.3-0.4-6.4-1.8-6.5-4-13-6-19.4-1.8-5.8-4-11.6-6.1-17.3-1.7-4-3.1-8.1-5.7-11.8-0.3-0.3-0.6-0.7-1.1-0.5 0.8-0.7 2.1 0.6 2.8 0.9 3.5 2.9 4.8 7 6.3 10.7 2.6 6.4 4.9 12.7 6.8 19.3q2 6.5 4.2 13c0.7 3.5 4.9 9.7-0.8 11.5q0 0 0 0z"/>
								<path id="&lt;Path&gt;" class="s1" d="m1146.1 226.3c-8.3-1-12.5-6.7-14.1-12.9-1.2-3.4-1.6-7-2.1-10.5 0-0.4-0.1-0.7-0.1-1 0.3 0.5 0.7 1 1.1 1.5 3.3 5.2 3.2 11.5 7 16.5 2.7 2.9 7.3 5.2 11.8 4.3 8.7-1.6 10-9.7 9.4-15.8-0.2-3.3-2.2-6.4-1.9-9.6 3.7 1.7 3.6 7.1 4.2 10.3 0.2 4-0.2 8.2-2.6 11.8-2.5 3.4-7.7 6-12.7 5.4z"/>
								<path id="&lt;Path&gt;" class="s1" d="m1161.1 212.1c0.2-2.1 2.3-3.5 3-5.5 1.1-1.7 1.4-9.8-2.5-5.8-0.6 1-1.5 2.1-1.2 3.2 0 0 0.1 0 0.1 0-0.6 0.1-0.6-0.7-0.8-1-0.2-1.8 0.2-4 2.3-5 8.2-2.2 5.5 14.5-0.9 14.1z"/>
								<path id="&lt;Path&gt;" class="s1" d="m1143.2 214.7c-2.3-1.1-1.6-3.4-0.9-5 0.7-1.9 0.8-3.9 1-5.8 0.2 0.3 0.5 1.1 0.7 1.7 2.3 4.3-0.9 6.8 1.1 7.5 0.7 0.3 1.4 0.5 2.1 0.6-0.7 1.2-2.6 1.5-4 1z"/>
								<path id="&lt;Path&gt;" class="s1" d="m1146 219.8c-0.7-0.2-1.9-0.3-2.1-0.9 0.8 0.4 2.1-0.1 3-0.3 2.5-0.3 6-6.3 6.1-3.2 0.2 2.7-3.8 4.9-7 4.4z"/>
								<path id="&lt;Path&gt;" class="s1" d="m1149.9 207.3c-2.9-0.8-1.5-5.2 1.6-4.2 2.2 1 1.2 4.7-1.6 4.2z"/>
								<path id="&lt;Path&gt;" class="s1" d="m1135.9 209.5c-3.8-0.6-1.2-5.9 1.9-3.6 1.1 1.1 0.5 4.3-1.9 3.6z"/>
								<path id="&lt;Path&gt;" class="s1" d="m1153.5 201.5c-5.4-0.2-12.7-0.9-14.3-5.7 4.7 3.5 11.7 3.9 17.8 3.7 1.1 0 2.2 0.2 3.2 0.5-0.7 0.7-1.8 1.2-3 1.4-1.2 0.1-2.5 0.1-3.7 0.1z"/>
								<path id="&lt;Path&gt;" class="s1" d="m1130.1 206.8c-0.9-5 6.5-6.9 8.7-10.8 0.1-0.1 0.2-0.4 0.3-0.4q0 0.2 0 0.3c0.2 4.7-4.8 8.2-9 10.9z"/>
								<path id="&lt;Path&gt;" class="s1" d="m1165.1 223.4c-1.8-0.1-3.9-0.5-5.2-1.6-0.5-0.4-0.9-0.8-1.3-1.3 1 0.1 2 0.1 2.9 0.3 2.2 0.7 4.6 0.9 6.9 0.3 2.1-0.4 4.3-0.9 6.4-1.5 3.8-1.3 6.5-4.2 8.6-7-12.4-6.7-6.7-15.3-15-23-3.4-3-8.5-4.6-13.5-3.9-3.1 0.2-6.2 0.6-9 1.8-1.7 0.8-3.4 1.6-4.8 2.7-0.6 0.5-1.3 1-1.4 1.6-0.4-2.7 2.7-5 5.4-6.2 2.2-0.9 4.6-1.4 7-1.6 4.2-0.5 8.7-0.7 12.7 1 4.2 1.8 7.5 4.9 9.2 8.5 1.4 2.5 1.9 5.2 2.6 7.9 1.2 4.6 4.1 7.3 8.7 9.9 1.4 0.9 0.1 2.2-0.6 3q-1 1.2-2.1 2.4c-2.5 2.5-4.3 4.1-8.3 5-3 0.6-6 1.6-9.2 1.7z"/>
								<path id="&lt;Path&gt;" class="s1" d="m1130 229.7c-2.4-0.2-4.6-0.9-6.8-1.5-2.1-0.7-8.1-1.8-7.7-4.1 0.7-1.6 0.7-3.2 1-4.8 0.3-2.1 0.5-4.1 0.3-6.2-0.3-6.4-1.9-14.4 5.1-18.9 4.8-3.4 10-5.3 16.3-3.3 0.3 0 0.5 0 0.8 0.1-1.4 0.4-3 0.3-4.5 0.6-2.5 0.3-4.9 0.8-7.1 1.9-6.2 2.7-8.4 6.2-8.5 11.8-0.1 4.7 0.8 9.4 0.1 14.2-0.1 1.6-0.5 3.3-1.2 4.8 1.5 1.1 3.6 1.5 5.4 2.1 1.9 0.5 3.7 1.1 5.7 1.4 4.5 0.7 7.3-0.4 11.2-2 0.6-0.1 1.3-0.3 2-0.5-0.4 0.9-1 1.6-1.9 2.2-2.9 1.7-6.7 2.5-10.2 2.2z"/>
								<path id="&lt;Path&gt;" class="s1" d="m1149 233.3c-2.8-1.9-1.7-5.3-2.7-7.8q0 0 0 0 0 0 0 0.1c2.1 1.9 5.1 5.2 2.7 7.7z"/>
								<path id="&lt;Path&gt;" class="s1" d="m1162.5 230.8c-3.7-1.2-5.5-6.5-4.3-9.4q0.1-0.1 0.3 0c-0.1 0-0.2 0-0.2 0.1-0.2 1.6 9.4 11 4.2 9.3z"/>
								<path id="&lt;Path&gt;" class="s1" d="m1154.7 234.5c-2.2-0.2-4.4-0.9-6-2.2 0 0 0 0.1 0 0.1-0.1-0.1-0.3-0.2 0-0.2q2.3 0.3 4.7 0.4c4.9 0.3 6.8-1.1 10.8-2.6 0.1 3.7-5.8 4.7-9.5 4.5z"/>
								<path id="&lt;Path&gt;" class="s1" d="m1151.9 240.3c-7.5-0.3-10.7-5.1-4.8-9.5 0.1-0.1 0.4-0.3 0.5-0.3-0.1 0.1-0.2 0.4-0.3 0.6-1.6 4.1-0.4 7 5.5 7.2 5.4 0.2 15.5-2.9 15.1-8.1-1.4-1.1-3.5-0.9-5.2-1.7-0.5-0.2-0.9-0.6-1.4-0.7q0.3-0.3 0.6-0.6c2.2-1.4 5.4-0.4 7.3 0.8 1.8 1.1 1.7 2.9 0.9 4.4-2.5 5.2-11.6 8.2-18.2 7.9z"/>
								<path id="&lt;Path&gt;" class="s1" d="m1185.4 236.9c-2.2-0.7-3.8-1.9-5.7-2.9-3.4-1.8-7-3.7-10.9-4.7 3.3-0.8 7.1 0.3 9.9 1.8 2.6 1.5 7 2.7 6.7 5.8z"/>
								<path id="&lt;Path&gt;" class="s1" d="m1138.6 252.6c-2.4-1.8-1.4-4.7-1.1-7 0.5-3.6 3.4-8.3 7.1-9.6-1.1 1.3-1.4 3-2.2 4.4-1 2.1-2 4.1-2.4 6.2-0.3 2.1 0 4.2-1.4 6q0 0 0 0z"/>
								<path id="&lt;Path&gt;" class="s1" d="m1092.1 212.2q0 0 0 0c20.2-7.9 17.2-0.3 0 0z"/>
								<path id="&lt;Path&gt;" class="s1" d="m1097.2 216.1c3.8-1.6 9.1-4.6 13.6-3.8-1.1 0.9-2.4 1.6-3.8 2-3.2 1-6.5 1.7-9.8 1.8z"/>
								<path id="&lt;Path&gt;" class="s1" d="m1100 221.9c-0.2 0-0.4-0.1-0.2-0.2 0 0-0.1 0.1 0 0.1 3.4-1.1 6.5-3.8 10.5-3.5-0.9 1.1-2.3 1.8-3.8 2.3-2.1 0.8-4.3 1.4-6.5 1.3z"/>
								<path id="&lt;Path&gt;" class="s1" d="m1185.1 226.7c3.4-1.6 6.9-3.2 10.6-4.3 2-0.6 4.2-1.1 6.3-0.7-1.1 1-2.5 1.7-4.1 2.1-4.1 1.4-8.3 2.7-12.8 2.9z"/>
								<path id="&lt;Path&gt;" class="s1" d="m1187.5 220c1.4-0.9 3-1.6 4.6-2.3 1.7-0.8 3.8-1.2 5.8-0.9-2.3 2.8-6.8 2.6-10.4 3.2z"/>
								<path id="&lt;Path&gt;" class="s1" d="m1134.8 279.4c3.4-5.2 23.5-10.4 30.9-13.8 11.5-4.6 23.2-8.8 35.1-12.5 9-2.9 17.9-6.3 27.4-8 7.4-1.3 6.2 0.8 0 2.1-6.7 1.4-13 3.2-19.3 5.4-12.2 3.8-24.3 7.9-36.1 12.4-12.5 5-25.7 9.2-38 14.4z"/>
								<path id="&lt;Path&gt;" class="s1" d="m1179.1 297.5c-9.9-0.8-18.7-5.2-27.8-7.9-5-1.8-18.1-4.9-15.1-10.8 0.3-0.3 0.8-0.6 1.2-0.5-0.3 0.1-0.5 0.3-0.6 0.6 0.2 5.1 14.2 8.1 19.1 10 8.4 2.6 17.3 7.2 26.5 6.5 13.6-2.6 25.9-8.4 38.7-12.7 11.4-4.2 22.9-8.2 34-12.9 3.9-1.5 7.7-3.2 11.7-4.8 2-1 5.1-1.6 6.4-3.2q0.1 0.1 0.1 0.1 0 0 0 0 0 0 0 0 0 0 0 0c-2.3-2.7-6.6-3.7-9.8-5.3-5.8-2.5-11.7-5.1-17.9-6.9-3.3-0.9-6.7-1.4-10.1-1.7-1.8-0.1-5.9-1.6-2.6-2.5 6.3-1 17.5 2.3 23.2 4.7 4.3 2 26.2 9.1 18.1 14.1-17.4 7.6-35.5 14.1-53.6 20.6-6.7 2.4-13.2 4.7-19.8 7.1-7 2.3-14 5.4-21.7 5.5z"/>
								<path id="&lt;Path&gt;" class="s1" d="m1170.8 294.3c-2.8-2.1 21-10.3 23.9-12 11.6-5.1 23.7-9.3 35.6-14 10.3-4.3 21.2-7.5 32-10.7 6.2-1.7 5.1 0.8 0.2 2.2-12.8 3.3-25.1 7.6-37.1 12.4-15.2 5.5-30 11.8-44.7 18-3 1.3-6.1 2.4-9.1 3.4-0.4 0.1-1.1 0.3-0.8 0.7z"/>
								<path id="&lt;Path&gt;" class="s1" d="m1155.1 289c2.6-2.5 6.9-3.7 10.4-5.3 6.6-2.9 13.3-5.7 20-8.5 11.2-4.8 22.4-9.7 34.1-13.7 10.1-3 19.9-6.6 30-9.3 5.7-0.8 1.8 1.6-1.1 2.4-16.1 4.9-32.3 9.5-47.5 16.1-9 3.8-17.9 7.5-26.9 11.3-6.1 2.7-12.3 5.5-19 7z"/>
								<path id="&lt;Path&gt;" class="s1" d="m1141.4 284.9c3.6-4 9.5-5.9 14.9-7.8 5.9-2.1 11.5-4.3 17.3-6.4 10.6-3.6 20.8-7.8 31.4-11.4 11.1-3.9 22.6-7.1 34-10.4 5.6-1.7 6.9 0 0.7 1.7-17.4 4.8-34.8 10.1-51.3 16.7-15.8 5.7-31.7 11.3-47 17.7q0 0 0 0c0 0-0.1 0 0-0.1z"/>
								<path id="&lt;Path&gt;" class="s1" d="m1193.3 293.2c-8.5-3.4-16.6-7.5-25.4-10.6-6.3-2.7-13.2-4.2-19.5-6.8-1-0.4-2.1-0.9-2.9-1.4 1 0.2 2.1 0.3 3.2 0.5 8.2 1.3 15.8 4.3 23.3 7.3 1.5 0.6 31.5 12.5 21.3 11z"/>
								<path id="&lt;Path&gt;" class="s1" d="m1207.9 287.3c-1.8-0.2-3.2-1.2-4.6-1.9q-6.7-3.5-13.6-6.6c-8.8-4.1-17.7-7.9-26.7-11.4 8 0.2 15.1 4.3 21.9 7.3 2.2 1 29.6 12.5 23 12.6z"/>
								<path id="&lt;Path&gt;" class="s1" d="m1225 281.3c-12.5-6.9-25.8-13-39.7-18-1.8-0.8-3.9-1.4-5.5-2.5 0.6 0.2 1.2 0.2 1.8 0.3 9.4 1.4 17.6 5.9 26 9.3 2.1 0.7 29.2 13.8 17.4 10.9z"/>
								<path id="&lt;Path&gt;" class="s1" d="m1239.4 274.3c-8.8-4.7-17.4-9.7-26.9-13.5-4.2-1.8-10.5-3.3-13.3-5.9q0 0 0 0c9.5 1.8 18.1 5.8 26.5 9.9 1.7 0.9 24.6 12.3 13.7 9.5z"/>
								<path id="&lt;Path&gt;" class="s1" d="m1256.9 268.6c-6.8-3.6-13.3-7.6-20.2-10.9-5.6-2.9-11.7-4.9-17.3-7.5-0.4-0.2-1.8-0.8-0.8-0.6 7.1 0.6 13.2 4 19.3 6.7 1.7 0.8 30.7 15.4 19 12.3z"/>
								<path id="&lt;Compound Path&gt;" fill-rule="evenodd" class="s1" d="m1304.3 193.6c-5.7-0.1-14.8 0.1-14.6-6.2-0.5-5.2-1-10.4-0.1-15.5 2-2.8 7.1-1.8 10.6-2.4 5-0.4 24.5-2.6 26.9 1.6 1.3 6 1.7 12.6-0.7 18.5-1.8 3.5-17.5 3.8-22.1 4zm-1.5-2.4c6 0.1 11.9-0.8 17.8-1.4 5.1-0.2 4.2-4.9 4.4-7.9-0.1-3.4-0.3-6.7-0.7-10q0 0 0 0c-7.2-1.3-14.8-0.5-22.1 0.1-4 0.2-8.4 1.3-12.3 0.4 2.6 4.7 2.6 10 2.9 15.1-0.4 4.3 6.4 3.6 10 3.7z"/>
								<path id="&lt;Path&gt;" class="s1" d="m1307.2 184.4c-5.6-2.2-13.8-7-16.5-11.6-0.4-0.9-0.1-1 0.8-0.6 0 0.1-0.2 0.1-0.3 0.1 5.7 3.1 10.6 7 16.6 9.9 4.8-3 8.3-7.1 12.7-10.4 1-0.7 2.3-1 3.6-1-0.3 2-2.4 3.1-4 4.5-2.9 1.8-9.8 9.6-12.9 9.1z"/>
								<path id="&lt;Path&gt;" class="s1" d="m1293.4 189.6c-1.7-4.6 5.1-6.9 8.4-9.6-1.1 2.8-4.9 8.7-8.4 9.6z"/>
								<path id="&lt;Path&gt;" class="s1" d="m1324.5 189.8c-5.6 0.1-8.1-8-12.9-9.6 4.6-0.1 8.2 3.3 10.7 6.1 1.3 0.9 2.1 2.2 2.2 3.5z"/>
								<path id="&lt;Compound Path&gt;" fill-rule="evenodd" class="s1" d="m1269.5 221.2c-2.9-0.5 0.3-11 0.4-13.3 1.2-3.4 0.8-9.2 4.1-11.5-6.8-5.2-8.5-13.4-8.2-20.7 1.2-13.7 15-25.9 31.5-28.8 13.1-2.2 29.2-1.4 39.9 5.5 8.9 6.5 12.7 18.1 12.7 27.5-0.7 10.5-7.4 21-18.1 27.1-13.5 6.8-27.4 5.7-41.4 0.4-5.4 3.7-10.8 7.4-15.9 11.3-1.5 0.9-3 2.7-5 2.5zm1.4-3.1c6.3-4.3 12.3-8.9 18.8-13 3.7-0.6 7 2 10.4 2.7 11.6 3.6 26 1.7 34.8-5.5 9.2-7.6 14.4-18.8 11.9-29.3-2-8.3-5.8-17.4-15.7-21.4-16.8-6.5-39.7-4.9-52.7 6.5-13.3 12-12.6 25.8-2.2 38.8 0.3 0.3 0.5 0.7 0.9 0.9-0.8-0.1-1.7-0.6-2.4-0.9 0.9 2.7-1 5.4-1.4 8.2-1.1 4.3-1.9 8.6-2.4 13z"/>
								<path id="&lt;Path&gt;" class="s1" d="m1168.6 126.8c-0.7-1.1-0.5-2.5-0.3-3.6 0.1-1.3 0-2.6-0.2-3.9-0.1 0.4-0.3-0.2-0.2-0.3 0.6-0.5 1.8 1.1 2.1 1.4 1.5 1.9 2.4 6.2-1.4 6.4z"/>
								<path id="&lt;Path&gt;" class="s1" d="m1165.2 126.7c-3.4-0.4-7.2-0.5-10.4-1.7-1.5-1.1 0.2-2.4 1.6-2.8 3.6-1.2 8-2.7 11.6-2.9q0 0 0 0c-2.8 1.9-5.8 3.4-9.1 4.6 2.5 0.5 5.3 0.4 7.8 1.1q1.1 0.3 2 0.9c-1 0.6-2.2 0.9-3.5 0.8z"/>
								<path id="&lt;Path&gt;" class="s1" d="m1256.7 128.4c-12.1-0.2-24.1-0.5-36.2-0.1-14-0.2-28-0.8-42-1-3.4 0.1-6.7-0.3-9.8-1.3 0.9-0.1 2-0.2 3-0.2 16.5-0.9 33.1 0.4 49.6 0.5 12.4-0.3 24.8-0.1 37.2 0 1.3 0.1 2.5 0.6 3.6 1.2-1.6 0.9-3.5 1-5.4 0.9z"/>
								<path id="&lt;Path&gt;" class="s1" d="m1259.9 128.2c-3.1-1 1.3-2.2 2.6-2.6 1.6-0.8 2.2-2.8 1.8-4.2-4.8-0.9-9.7-0.6-14.5-0.9-10.7-0.6-21.4-1-32.1-1.1-10.5 0-21.1 0-31.7 0.1-5.7 0.1-11.5 0.2-17.1-0.2 0 0 0.1 0 0.1 0.1-0.1 0-0.4-0.1-0.2-0.3 3.2-1.5 7.2-1.3 10.9-1.4 4.5-0.1 9-0.2 13.5-0.1 15.1-0.1 30.1-0.1 45.2 0.4 5.9 0.3 11.8 0.5 17.7 0.7 3.3 0.4 8-0.8 10.5 1.4 2.1 3.5-1.3 9.6-6.7 8.1z"/>
								<path id="&lt;Path&gt;" class="s1" d="m1269 127.6c-1.6 0-3.1-0.7-3.8-1.8 0.8-0.4 1.6-0.8 2.6-0.9 3.5 0.1 7.4 0.7 10.2-1.3q0 0 0-0.1c-2.3-0.8-4.9-0.9-7.3-1.3-1.7-0.2-3.6-0.7-5.2-0.4q0 0 0 0c3.8-2.2 9.8-1.7 13.9-0.1 1.8 0.8 1.8 2.9 0.2 3.8-3 1.9-6.9 2.3-10.6 2.1z"/>
								<path id="&lt;Path&gt;" class="s1" d="m1263 120.8c0.6-3.5-3-8.5-8-7.7-3 0.7-4.2 3.3-6.8 4.5-3.3 1.6-12.7 2.2-11.3-2.7 2.9 0.5 5.7 1.8 8.7 1 3.7-1.1 5.4-4.7 9.4-5.4 6.7-1.2 13.2 6 8 10.3z"/>
								<path id="&lt;Path&gt;" class="s1" d="m1236.7 126.7c-0.6-2.8-0.3-6-2.8-8.2 3.2 0.2 7.8 6.6 2.8 8.2z"/>
								<path id="&lt;Path&gt;" class="s1" d="m1187 126.4c-0.7-0.9-0.6-2-0.5-3.1 0.1-1.4-0.1-2.9-0.6-4.2 2.8 0.6 5 6.3 1.1 7.3q0 0 0 0z"/>
								<path id="&lt;Path&gt;" class="s1" d="m1195.4 126.2c-1.2-2.1 0.8-4.2 0.4-6.4-0.5-1.6 1.4 0.5 1.6 1 1.1 1.7 1.2 5.2-2 5.4z"/>
								<path id="&lt;Compound Path&gt;" fill-rule="evenodd" class="s1" d="m1235.4 94.2c-10.9 0.1-21.3-2.3-14.6-12.7 1.3-2.2 3.3-4 5.1-5.9 0 0.4-0.2 0.8-0.3 1.3 1.8-3.4 12.1-2 16.1-2.3 6.7 0.4 14.8-0.5 20.1 3.3 3.4 3.8-2.3 10.3-5.3 13.3-3 3-8 2.7-12.4 2.9-2.9 0-5.8 0.2-8.7 0.1zm2.1-2.4q0 0 0 0 0 0 0 0zm17.3-2.7c1.9-2.2 6-6.8 4.3-9.4-5.4-2.5-12.3-1.9-18.4-2.2-5.1-0.4-10.2 0.8-15.2 0.1-0.7 3.5-3 6.8-3.4 10.3 1.6 4.6 10.7 3.5 15.5 3.9 5.2-0.5 13.9 1.1 17.2-2.7zm-17.2 2.7q0 0 0 0 0 0 0 0zm0 0q0 0 0 0-0.1 0-0.1 0c0 0 0.1 0 0.1 0z"/>
								<path id="&lt;Path&gt;" class="s1" d="m1237.2 89.5c-5.1-0.2-12.4-0.6-15.7-3.6q0 0 0 0 0 0 0 0c11.3 0.7 28.7 4.7 34.1-6.3 0.9-1.1 2.6-3 2.7-0.5-0.7 8-12.7 10.7-21.1 10.4z"/>
								<path id="&lt;Path&gt;" class="s1" d="m1251.2 92.3c-1.7-1.3-0.9-3.4-2-4.9-0.1 0-0.2-0.1-0.2-0.2 0-0.3 0.6-0.2 0.8-0.1 2.3 0.6 4.6 4.5 1.4 5.2z"/>
								<path id="&lt;Compound Path&gt;" fill-rule="evenodd" class="s1" d="m1108.1 71.1c-4.1 0.1-8-0.4-11.9-0.9-0.4-0.1 1.4-0.6 1.8-0.7-0.5-2.9 2.3-5.5 3.4-8 2.2-4.1 4-8.3 6.1-12.4 2.9-5.2 5.6-14.3 10.9-17.9 5.7-1.6 12.2-1.7 18.1-2.3 9.5-1.3 18.9-2.6 28.5-2.3 14.3-0.2 8.7 2.6 5.7 10.5-2.9 7.2-6.4 14.3-9.7 21.5-4.4 9.6-6.8 11.9-19.9 11.2-11 0.5-22 1.8-33 1.3zm3.9-25.8c-3 6.1-5.8 12.3-8.9 18.4-1.1 1.8-1.8 3.9-3.5 5.4 4-0.8 8.1-0.3 12.2-0.3 8.9-0.1 17.8-0.5 26.7-1.2 15.8 0.5 15.8-0.5 21.1-12.3 4-8.7 7.6-17.5 11.8-26.1-6.7-0.3-13.6-0.4-20.4 0.2-6.2 0.7-12.3 1.9-18.6 2.3-4.3 0.5-8.9 0.6-13 1.7-3.8 3.3-5.1 7.9-7.4 11.9z"/>
								<path id="&lt;Path&gt;" class="s1" d="m1137 86.9c-3.5-2.7-6.2-6-9.1-9-2.4-2.4-5.1-5.4-6.4-8.1q0 0 0 0c4.5 2.3 7.7 5.7 10.8 9.1 1.9 2.2 4.2 4.1 6 6.3 0.8 1.7 1.7 3.2-1.3 1.7z"/>
								<path id="&lt;Path&gt;" class="s1" d="m1182.5 65.3c-3.2-0.9-4.8-3.4-6.7-5.4-3.6-4.3-8.6-8.9-9.9-13.9 4.4 2.4 7.1 6.3 10.1 9.8 2.1 3.1 6.5 5.7 6.5 9.5z"/>
								<path id="&lt;Path&gt;" class="s1" d="m1146.5 89.4c-3.6 0-7.4-1.6-9.6-3.6 3.7 0.3 7.4 0.9 11.1 1.1 6.2-0.2 12.2-2 17.3-4.7 6.7-3.6 14.2-8.5 15.6-15.2 0.1-1.4 0.2-2.5 0.8-3.7 2 0.7 2.3 2.6 1.8 4.2-2.3 11.1-23.5 22.3-37 21.9z"/>
								<path id="&lt;Path&gt;" class="s1" d="m1104.3 91c-1.6-1.4-1.5-3.3-1.7-5.1-0.6-3-1.7-5.9-2.9-8.8-0.9-2.2-2.4-6.1-1.3-8.1 1.3 2.3 3.7 4.4 4.6 7 1.3 3.6 5.6 12.3 1.3 15q0 0 0 0z"/>
								<path id="&lt;Path&gt;" class="s1" d="m1109.2 106.5c-1.2-1-1-2.7-1.4-4-0.4-2.1-1.1-4.2-2-6.2-0.3 2.9 0.9 7.8-1.6 10-0.9 0.6-2.3 0-2.2-0.9q0 0 0 0 0 0 0 0c-0.3-2.2 0.5-4.5 0.6-6.7-2.6 3.4-3 0.9-2.2-1.6 0.5-1.1 0.9-2.3 1.3-3.5 0.5-1.2 0.4-2.9 1.6-3.8 0.3-0.9 1.7-1.2 2.4-0.5 0.6 0.7 0.7 1.7 1 2.5 0.6 1.6 2.2 3 2.8 4.8 0.7 1.7 4.8 11-0.3 9.9z"/>
								<path id="&lt;Path&gt;" class="s1" d="m1302 75c-4.4-5.2-4.9-12.1-7.4-18-3.4-9.6-6.3-19.4-10.1-28.9-3.2-8.5-7.2-16.8-10.3-25.2q-0.5-1.5-1-2.9h3.2c0.4 1 0.6 1.6 0.7 1.8 4 10.5 8.7 20.8 12.3 31.3 2.8 8.7 5.8 17.2 8.7 25.8 1.1 5.4 4.8 10.7 3.9 16.1z"/>
								<path id="&lt;Path&gt;" class="s1" d="m1284.2 72c5.1-3.2 11.5-4.4 17.5-6.1 12.9-3.2 25.7-6.5 38.7-9.6 22.7-5 45.2-10.6 67.6-16.3 7.4-1.9 14.6-4 22-5.8v2.1c-12.2 3.3-24.3 6.8-36.6 9.6-9.6 2.4-19 5.1-28.7 7.2-16.2 3.6-32.4 7.3-48.4 11.4-6.5 1.7-13 3.3-19.5 5-2.4 0.6-4.8 1.4-7.3 1.8-1.8 0.3-3.6 0.4-5.3 0.7q0 0 0 0 0 0 0 0z"/>
								<path id="&lt;Path&gt;" class="s1" d="m1288 49.6c1.4-7.9 9.7-15.9 15.3-22.4 4.9-4.7 11.9-9.2 20-8.3 3.9 0.2 7 2.6 10.9 3.2 5.5 0.7 9.3-3.4 11.7-6.8 14.2-20.7 21.7-2.1 30.1-9.7 1.7-1.6 2.6-3.6 3.5-5.6h3.2c-1.5 3.3-3.7 7.1-5.2 7.7-8.1 6.3-14.9-4.2-23.1 1.8-3.7 2.9-5.6 7-8.7 10.4-3.2 3.7-9.2 5.8-14.5 4-22.3-10.5-31.6 15.5-43.2 25.8q0 0 0 0 0 0 0 0 0 0 0 0c0 0 0-0.1 0-0.1z"/>
								<path id="&lt;Path&gt;" class="s1" d="m1339 28.2c-2.3-0.5-1.9-3-2-4.4 1.4 0.5 4.3 3.6 2 4.4z"/>
								<path id="&lt;Path&gt;" class="s1" d="m1341.7 35c-1.8 0-2.1-2.8-1.5-3.6q0 0 0 0 0 0 0 0c1.1 0.9 2.9 2.4 1.5 3.6z"/>
								<path id="&lt;Path&gt;" class="s1" d="m1344.8 44.6c-2.7-0.9-3-4.3-2.2-6.1 1.7 1.7 3.8 4 2.2 6.1q0 0 0 0z"/>
								<path id="&lt;Path&gt;" class="s1" d="m1347.6 53.4c-1.9-1.1-2.3-3.5-1.8-5.1q0 0 0 0 0 0 0 0 0 0 0 0 0 0 0 0 0 0 0 0c1.7 1.4 3.8 3.4 2.5 5.4q-0.4-0.2-0.7-0.3c0 0 0 0 0 0z"/>
								<path id="&lt;Path&gt;" class="s1" d="m1373.2 16.8c-3.9-2.2-3.6-5.5-4.3-8.8q0 0 0 0c1.7 0.9 2.7 2.3 3.6 3.7 1 1.6 1.1 3.4 0.7 5.1z"/>
								<path id="&lt;Path&gt;" class="s1" d="m1376.2 24.2c-2.1-0.7-2.3-2.7-2.2-4.3q0 0 0 0c0.1-0.3 0.4 0 0.5 0.1 1.4 1 2.7 2.7 1.7 4.2q0 0 0 0z"/>
								<path id="&lt;Path&gt;" class="s1" d="m1380.2 35.2c-2.5-1.3-2.9-4.1-2.4-6.3 2 1.4 3.8 4.1 2.4 6.3z"/>
								<path id="&lt;Path&gt;" class="s1" d="m1384.2 45.5c-3.1-1.1-2.9-4.3-3-6.6 2 1.7 4.6 4.2 3 6.6q0 0 0 0z"/>
								<path id="&lt;Path&gt;" class="s1" d="m1302 62c-0.9-1.4-0.8-3-0.7-4.5q0.2-2.4 0.5-4.7 0.5-5 1-10c0.8-5.3 0.8-10.9 3.5-15.9 0.2-0.3 0.3-0.7 0.6-0.8 0.1 0 0.2 0 0.2 0.1q0 0 0 0-0.1 0-0.1-0.1 0 0 0 0c-0.2 0.6-0.1 1.3-0.2 2-0.2 1.6-0.5 3.2-0.8 4.8-0.9 4-1.4 8-1.8 12-0.3 3.8-0.7 7.5-0.9 11.2-0.2 2 0.1 4.2-1.3 5.9q0 0 0 0z"/>
								<path id="&lt;Path&gt;" class="s1" d="m1307.6 68.2c-1-1.4-0.9-3-0.7-4.6 0.3-3 0.5-6.1 0.8-9.2q0 0.1 0 0.1c0.6-7 1.7-14 2.6-21 0.4-3.1 0.6-6.3 1.7-9.4 0.1-0.3 0.3-0.8 0.5-1.1 0 0.7 0.1 1.5 0.1 2.2 0.3 4.1-0.6 8-1.2 12-0.7 4.4-1.3 8.8-1.8 13.2-0.2 3.1-0.5 6.3-0.7 9.4q-0.1 2.1-0.1 4.2c0 1.4-0.2 2.9-1.2 4.2z"/>
								<path id="&lt;Path&gt;" class="s1" d="m1314.5 64.4c-0.5-1-0.7-2.3-0.5-3.4 0.3-3.1 0.4-6.3 0.7-9.5 0.3-6.3 1-12.6 1.7-18.8 0.5-4 0.2-7.9 1.4-11.8 0.2-0.4 0.3-0.9 0.7-1.2-0.2 0.6-0.1 1.2-0.1 1.7 0.5 3.5 0.1 6.9-0.3 10.3-0.6 5.3-1.4 10.6-1.7 15.9q-0.2 4.8-0.3 9.7c-0.2 2.4 0.4 5.1-1.6 7.1q0 0 0 0z"/>
								<path id="&lt;Path&gt;" class="s1" d="m1322.5 61.5c-0.5-1.1-0.8-2.2-0.6-3.4 0.1-1.6 0.2-3.2 0.3-4.8 0.2-2.6 0.4-5.3 0.7-7.9 0.5-4.7 0.7-9.5 0.9-14.2 0.2-3.2 0.5-6.5 1.8-9.6 0.5 4.1 0.1 8.1-0.2 12.2-0.4 4.7-0.8 9.4-1.2 14.2-0.2 3.1-0.3 6.2-0.4 9.3 0 1.5 0 3.1-1.3 4.2z"/>
								<path id="&lt;Path&gt;" class="s1" d="m1330.5 60.9c-1-1.4-1-3-0.9-4.6 0.2-5 0.8-9.9 1.1-14.8 0.3-3.9 0.4-7.7 0.4-11.6 0.1-2.3 0.2-4.7 1.2-6.9 0-0.1 0.1-0.2 0.2-0.3q0 0.1 0 0.1c0 1.9 0.5 3.7 0.5 5.5-0.1 5-0.6 9.9-0.9 14.8-0.3 3.3-0.5 6.5-0.5 9.7-0.3 2.7 0.7 5.7-1.1 8.1z"/>
								<path id="&lt;Path&gt;" class="s1" d="m1337.3 57.1c-0.4-0.8-0.7-1.6-0.8-2.5 0-0.8 0.2-1.6 0.3-2.4q0.4-3.8 0.8-7.5c0.3-4.6 0.3-9.4 2.2-13.8 0.5 4.6-0.5 9.1-0.6 13.6-0.2 3-0.2 5.9-0.4 8.9 0.1 1.3-0.5 2.6-1.5 3.7q0 0 0 0z"/>
								<path id="&lt;Compound Path&gt;" fill-rule="evenodd" class="s1" d="m1252.9 27.2c-3-2.1-2.5-7.7-1.4-10.5 0.8-2.6 4.4-4.5 7.3-2.7 0.5-0.6 1.6-0.7 2.2-0.2 1.1 1.1 0.3 2.7 0.1 4 0.2 1.9 0.5 3.8 1.5 5.5 0.1 0.1 0.2 0.2 0.2 0.2 1 0.2 1.9-0.3 2.7-0.8 0.8-0.6 1.6-1.1 2.5-1.5 0 0.4-0.2 0.8-0.3 1.3-0.7 1.8-2.9 3.3-5.3 2.9-1.7-0.2-2.4-1.6-2.7-2.8-1 2.1-3.3 6.4-6.8 4.6zm1.7-1.6c2-0.8 3-3.4 3.5-5q0.3-1.3 0.5-2.6c-0.1-1.1-0.2-2.3 0-3.5-5.8-1-6.7 8.7-4 11.1z"/>
								<path id="&lt;Compound Path&gt;" fill-rule="evenodd" class="s1" d="m1379.7 74.6c-1.6-0.7-1.8-2.3-2.1-3.5-0.2-0.6-0.3-1.5-0.4-2.2-1.5 1.9-3.3 3.7-5.4 5.1 1.4-2.7 3.2-5.3 5.1-7.8-0.1-1.7-0.3-3.5-0.4-5.2-0.1-2.9 0-9.8 4.7-10.1 1.9-0.1 3.6 1.1 3.9 2.6 1 3.7-3.6 9.3-5.7 12.6q0 0.1 0 0.1 0 0.1 0 0.1c1.2-1.1 2.6-2.2 4.5-2.4 2-0.2 3.9 1.2 3.9 2.8 0.4 2.9-3.8 9.5-8.1 7.9zm1.4-1.6c2.2-0.3 3.8-2.8 4.3-4.4 1.1-5-4.3-1.9-5.7 0.5 0.3 1.3 0.3 2.8 1.2 3.9q0.1 0 0.2 0zm-0.2 0q0 0 0 0 0 0 0 0 0 0 0 0zm0 0q0 0 0 0 0 0 0 0zm0 0q0 0 0 0 0 0 0 0 0 0 0 0zm-1.8-9.9c1.5-2.6 4.1-6.1 3.9-9.1-0.1-0.8-1.4-1.7-2.3-1-1 0.7-1.2 1.8-1.4 2.8-0.6 2.4-0.5 4.9-0.2 7.3z"/>
								<path id="&lt;Path&gt;" class="s1" d="m1395.6 6.5c-2.6-1.6-3.5-4-3.9-6.5h2.7c1.3 2 2.1 4.2 1.2 6.5z"/>
								<path id="&lt;Path&gt;" class="s1" d="m1400.3 18.8c-3.5-1.6-3.6-5.4-3.6-8.2q0 0 0 0 0 0 0 0c1.9 2.4 5.3 5.1 3.6 8.2z"/>
								<path id="&lt;Path&gt;" class="s1" d="m1405.6 33.6c-3.4-2-3.7-6.3-3.4-9.2q0 0 0 0 0 0 0 0 0 0 0 0c2.2 2.7 5.2 5.9 3.4 9.2z"/>
								<path id="&lt;Path&gt;" class="s1" d="m1408 39.8c-1-0.2-1-1.4-0.8-2.1 0.3 0.6 1.7 1.5 0.8 2.1z"/>
								<path id="&lt;Path&gt;" class="s1" d="m1402.6 19.5c-2.3-3.4 0-7.6 0.3-11.2 0.5-2.7 0.7-5.6 1.3-8.3h1.7c0 2.5-0.3 5-0.7 7.6-0.9 3.9-0.4 8.2-2.6 11.9z"/>
								<path id="&lt;Path&gt;" class="s1" d="m1405.9 32.1c-0.8-1.2-0.9-2.6-0.8-4 0.1-1.4 0.2-2.8 0.3-4.2 0.5-6.4 2.3-12.7 3.8-19q0.5-2.5 1.3-4.9h1.7v0.3c-1 5.4-2.7 10.7-3.6 16.1-0.7 3.6-1.1 7.3-1.4 10.9-0.2 1.6-0.2 3.4-1.3 4.8q0 0 0 0z"/>
								<path id="&lt;Path&gt;" class="s1" d="m1409.3 40.6c-0.9-1.4-0.7-3.1-0.5-4.7 0.3-3.4 1-6.8 1.8-10.2 1.8-6.7 3.9-13.4 5.6-20 0.5-1.9 1.1-3.8 1.8-5.7h1.1c0 1.3-0.3 2.6-0.6 3.9-2.1 7.4-4.5 14.7-6.2 22.1-0.6 3.2-1.2 6.4-1.6 9.6-0.2 1.7-0.2 3.6-1.4 5z"/>
								<path id="&lt;Path&gt;" class="s1" d="m1416.4 40.6c-0.9-1.8-0.3-3.6 0.1-5.3 0.5-2.2 1.1-4.5 1.7-6.6q0.5-2.1 1.1-4.3 0 0.1 0 0.1c1.5-5.7 3.2-11.5 4.9-17.2 0.8-2.5 1.5-4.9 2.6-7.3h1.5c-0.7 2.4-1.5 4.8-2.3 7.2-1.8 5.3-3.3 10.8-4.6 16.2q-1.2 4.9-2.3 9.7-0.4 1.8-0.8 3.7c-0.2 1.3-0.8 2.7-1.9 3.8z"/>
								<path id="&lt;Path&gt;" class="s1" d="m1425.1 38.5c-0.7-1.7-0.2-3.4 0.4-5.1q0.8-2.4 1.6-4.8 1.4-4.3 2.9-8.6v5.5q-0.4 1.2-0.7 2.4-0.7 2.6-1.5 5.1c-0.6 1.9-0.9 4-2.7 5.5z"/>
								<path id="&lt;Compound Path&gt;" fill-rule="evenodd" class="s1" d="m1379.1 139.2c-17.7 0.3-24.5-11.9-12-22 6.4-3.6 16-3.7 22.7-0.5 6.2-0.9 9.8 5.7 8.8 10-1.7 7.3-10.8 12.1-19.5 12.5zm0.6-2.1c8.3-0.6 18.1-6.5 15.6-14-2.9-5.4-13.3-6.7-19.9-6-6.6 0.6-11.2 5.3-11.7 10.5-1 6.9 8.9 9.9 16 9.5z"/>
								<path id="&lt;Path&gt;" class="s1" d="m1395.7 122.2q0 0 0 0 0 0 0 0c1.3-1.2 1.9-3.1 3.8-4 2.5-1.3 8-2.1 8.9 1-2.5 1-5.2 0.7-7.8 1.5-1.7 0.3-3.2 1.5-4.9 1.5z"/>
								<path id="&lt;Path&gt;" class="s1" d="m1421.3 127.7c-7.1-0.4-13.9-3.5-15.1-9.6 0.5-5 3-10.2 7.8-13.6 4.4-3 10.5-3.9 16-2.8v2.3q-0.9-0.1-1.8-0.2c-9.3-1.4-17.2 4.6-18.6 11.8-1.4 6.7 6.9 10.2 14.2 10 2.1 0.2 4.2 0 6.2-0.5v2.2c-2.7 0.6-5.7 0.7-8.7 0.4z"/>
								<path id="&lt;Path&gt;" class="s1" d="m1361.7 126.9c-0.1-5 3.6-9.5 5.9-14.1 2.6-5.3 18.4-39.3 26.6-23.3 0.9 1.6-0.4 3.6-2.4 4.2-0.6-0.9-0.7-1.9-0.8-2.9-1-8.3-10.5 4.2-12.1 6.8-6 9.6-9.7 20.2-17.1 29.2 0.1-0.1 0 0.2-0.1 0.1z"/>
								<path id="&lt;Compound Path&gt;" fill-rule="evenodd" class="s1" d="m1311.7 115.3c-9.1-1.9-5.1-13.3 3.1-13.3 4.7 0.2 8.8 4.2 7.8 7.9-1.1 3.7-6.4 6.3-10.9 5.4zm2-2.2c7.4-0.5 7.8-7.9 0.3-8.2-4.7-0.1-6.7 8.3-0.3 8.2z"/>
								<path id="&lt;Compound Path&gt;" fill-rule="evenodd" class="s1" d="m1321.6 132.6c-5.6-3.1 0.6-10.7 6.3-8.3 9 3.7 0.1 11.6-6.3 8.3zm3-1.5c6.6-1.3 3.6-4.7-1.7-4.5-1 1.6-0.9 4.2 1.7 4.5z"/>
								<path id="&lt;Path&gt;" class="s1" d="m1400.6 193.1c-1.2-0.8-1.8-2-3-2.7-1.4-1-2.9-1.9-4.3-2.8-1.8-1.1-2.2-2.3-0.5-3.6 3.7-3.1 7.5-6.2 10.9-9.5 6.2-6.1 12.5-12.1 18.8-18.2 2.6-2.3 4.9-4.8 7.5-7.1v3.7c-2.4 2.6-5.3 5-7.8 7.5-5.3 5.3-10.9 10.3-16.2 15.6-3.4 3.3-7.2 6.4-10.8 9.7 2.5 1.5 5.3 2.7 7 4.9 2.4-1.6 4.5-3.5 6.7-5.3q2.9-2.4 5.8-4.8c3.8-3.2 7.8-6.3 11.6-9.5 1.2-1 2.4-1.9 3.7-2.8v3.3c-1.3 1-2.6 2-3.8 3-1.8 1.6-3.7 3.2-5.8 4.7-3 2.3-5.8 4.7-8.8 7.1-1.9 1.5-3.8 3.2-5.7 4.7-1.5 0.9-3.2 2.9-5.3 2.1z"/>
								<path id="&lt;Path&gt;" class="s1" d="m1386.1 199.3c-1.5-1.3 0.5-3.1 1-4.5 1.7-3.4 3.5-6.8 6.9-9.4q0 0 0 0 0 0 0 0c-0.8 3.5-1.9 7-3.7 10.3 3.6-1.4 6.5-4 10.3-4.9 4.8-0.3-2 3.8-3.6 4.3-2.2 0.7-9.4 5.4-10.9 4.2z"/>
								<path id="&lt;Path&gt;" class="s1" d="m1381.8 203.4c-1.7-1.3 1.1-3.2 2.6-3.8 0.3-0.2 1.7-0.9 1.7-0.3q0 0 0 0c0 0 0-0.1 0-0.1-0.9 1.6-1.5 4.3-4.3 4.2z"/>
								<path id="&lt;Path&gt;" class="s1" d="m1399.2 187.9c2.5-5.2 8.5-8.5 13-12.5 5.3-4.3 10.4-8.7 15.5-13.2 0.3-0.3 1.2-1 2.3-1.9v2.8c-10 8.5-19.6 17.3-30.7 24.8q0 0 0 0c0.2 0-0.1 0.1-0.1 0z"/>
								<path id="&lt;Path&gt;" class="s1" d="m1338 244.3c-6.5-1.5-11.6-8.6-13-13.7-0.1-0.1-0.3-0.4 0-0.4 3.9 2.1 5.8 5.6 8.5 8.4 1 1.2 9.9 6 4.5 5.7z"/>
								<path id="&lt;Path&gt;" class="s1" d="m1324 247.3c0.3-3.3 4.5-5.1 5.8-8.1 1.9-3.1 3-6.4 4.9-9.4q0 0 0 0c0.8 3.8 0.2 7.6-2.1 11-1.8 2.7-4 6.7-8.6 6.5z"/>
								<path id="&lt;Path&gt;" class="s1" d="m1342.1 231.6c-5-2.3 5.7-8.3 2.7-11.3-0.7 0.1-1.6 1.3-1.2 1.8 0.1 0 0.2-0.1 0.2-0.1-0.8 0.8-1.3-0.7-1.3-1.2 0.3-4.8 11.7-2.6 1.8 8.5 11.7-2.6 4.4 3.2-2.2 2.3z"/>
								<path id="&lt;Path&gt;" class="s1" d="m1396.8 310.9c-6.4-0.6-12.3-2.8-18.5-4.2-9.2-2.3-20.3-4.4-26.3-11-2.4-5.1 5.5-17.1 7.5-22.7q0 0 0 0c3.2-7.1 6.3-14.3 9.6-21.4 4-7.7 8.5-26.1 18.9-28.5 7.3-1.3 13.9 2.2 20.7 3.6 7.3 1.3 14.6 2.9 21.3 5.5v2.6c-3.4-0.8-7.1-2.1-10.1-2.9-5.4-1.6-11.1-2.2-16.6-3.6-5.8-1.6-14.3-5-18.8 0.1-5.4 6.7-8.2 14.7-11.6 22-5.2 11.3-10 22.6-15.2 33.8-1.2 3.4-3.7 6.9-2.9 10.5 4.6 4.8 12.7 6.8 19.7 8.6 7.2 0.9 23.9 8.6 29 3.7 5.7-5.4 8.5-12.4 11.7-18.9 2.8-5.9 6.1-11.8 8.8-17.6 2.2-4.8 4-9.7 6-14.5v7.6c-3.6 8.1-7.6 16-11.7 23.8-3.8 6.9-9.7 25.2-21.5 23.5z"/>
								<path id="&lt;Path&gt;" class="s1" d="m1400.9 314.9c-3.4 0-6.6-1-9.8-1.8-5.1-1.3-10.1-2.8-15.2-3.9-6.5-1.5-13-2.7-18.3-6.4-3.7-2.3-4.5-4.5-4.9-8.2-0.1-0.1-0.1-0.2-0.1-0.2 0.2-0.2 0.9 0.5 0.9 0.6 1.4 1.5 2.6 3.1 4.2 4.4 2 1.8 4.4 3 7 4.2 3.5 1.4 7.2 2.1 10.9 3 5 1 9.8 2.4 14.7 3.8 4.1 0.9 8.3 2.5 12.7 1.9 4.4-0.4 6.5-4 8.5-6.8 2.4-3.8 4.6-7.8 6.7-11.8 2-3.9 3.8-8 5.9-11.9 1.9-3.6 3.4-7.2 4.9-10.9q0.5-1.3 1-2.7v7.7q-0.5 1.2-1 2.3c-0.9 2.1-2 4.1-3.1 6.1-2.9 6-5.7 12.1-9.1 18-3.5 5.5-6.7 12.6-15.9 12.6z"/>
								<path id="&lt;Path&gt;" class="s1" d="m1407.3 298.6c-9-1.4-17.6-4-26-6.7-7.4-2-15.2-3.1-21.6-6.7-1.1-0.5-2.2-1.6-3.2-1.8 0.1-0.4 1.2 0 1.6 0 4.4 0.8 8.2 2.2 12.3 3.4 8.2 2.1 16.3 4 24.3 6.5 2.2 0.7 24.6 4.7 12.6 5.3z"/>
								<path id="&lt;Compound Path&gt;" fill-rule="evenodd" class="s1" d="m1378.9 301.7c-10.5-0.5-10.3-10.3-1.5-7.8 7.2-1.6 14.3 8.6 1.5 7.8zm2-2.4c0.6-0.1 1.3-0.2 1.9-0.5-1.4-1.6-4.2-1.9-5.5-3.5-7.3 1-0.2 4.5 3.6 4z"/>
								<path id="&lt;Compound Path&gt;" fill-rule="evenodd" class="s1" d="m1422 255.5c-8.8-2.3-17.4-5.2-26.2-7.5-9.8-2.7-16-4.3-8.5-13.1-1 0.7-0.7-1.9-0.1-2.3 1.5-1.4 4-0.4 5.8-0.1 7.8 2.4 15.5 4.9 23.2 7.4 3.8 1.3 7.9 2.2 11.3 4.1 2.3 1.3 1.1 3.6 0.2 5.2-1.2 1.9-2.8 6.2-5.7 6.3zm0.1-2.2c1.6-1.3 2.4-3.1 3.2-4.7 0.1-0.9 1.5-2.4 0.2-3-2.6-1.2-5.5-1.8-8.2-2.9-5.4-1.9-11-3.6-16.5-5.2-4.1-1.1-8.3-3.2-12.5-3.1 0.1 2.4-0.7 4.8-1.4 7.1q0 0 0 0c1.6 3.2 10.6 4.3 14.4 5.7 7.1 1.8 13.9 4.1 20.8 6.1zm-35.2-11.8q0 0 0 0z"/>
								<path id="&lt;Compound Path&gt;" fill-rule="evenodd" class="s1" d="m1411.2 270.5c-5.1-1.5-10-3.3-15.1-4.7-5.1-1.5-10.4-2.6-15.4-4.5-4.5-1.3-4.4-3.3-2.7-6.5 1-1.6 0.5-3.6 2.2-5.1 2.3-2.6 7.4 0.2 10.4 0.7 6.4 1.6 12.6 3.8 19 5.5 2.7 1 10.7 2 9.9 5.2-1.6 3.4-3 9-8.3 9.4zm0.4-2.1c3.3-1.6 4-5.1 5.2-7.8-3.3-1.6-7.3-2.1-10.8-3.2-7.7-2.5-15.5-4.8-23.5-6.4-0.7 0.5-1 1.4-1.7 1.9 0 1.9-0.2 3.7-0.8 5.4 3.7 2.1 8.4 2.9 12.6 4.2 6.6 1.6 12.8 3.6 19 5.9z"/>
								<path id="&lt;Compound Path&gt;" fill-rule="evenodd" class="s1" d="m1409.1 284.8c-7.6-2.7-18.3-2.2-23.3-8.3-1.3-1.8-0.3-3.9 0.9-5.6 0.3-0.3 0.4-0.8 0.5-0.1 4.1-2 10.8 1.3 15.2 2.1 3.3 1.1 6.9 1.7 10.1 3 5.9 1.6 2 9.8-3.4 8.9zm1.2-2.4c5.6-4.1-0.8-4.9-5-6.1-4.1-1.1-8.1-2.3-12.2-3.2-2-0.4-4.2-0.4-5.8-1.5-0.9 8.4 15.9 8.3 23 10.8z"/>
								<path id="&lt;Path&gt;" class="s1" d="m1368.4 283.4c-1.1 0-2.1-0.7-2.1-1.7 0-0.9 1-1.7 2.1-1.7 1.2 0 2.1 0.8 2.1 1.7 0 1-0.9 1.7-2.1 1.7z"/>
								<path id="&lt;Path&gt;" class="s1" d="m1374.7 285.4c-1.1 0-2.1-0.8-2.1-1.7 0-0.9 1-1.7 2.1-1.7 1.2 0 2.1 0.8 2.1 1.7 0 0.9-0.9 1.7-2.1 1.7z"/>
								<path id="&lt;Path&gt;" class="s1" d="m1381.9 287.4c-1.2 0-2.1-0.8-2.1-1.7 0-0.9 0.9-1.7 2.1-1.7 1.1 0 2.1 0.8 2.1 1.7 0 0.9-1 1.7-2.1 1.7z"/>
								<path id="&lt;Path&gt;" class="s1" d="m1298.6 376.1c-12.7 0-30.6-2.6-33.2-14.6-1.2-8.8 5.8-16.5 14.4-21.1 1.7-0.9 4.7-1.9 6.3-1.7-4.1 2.4-7.6 5.6-11.2 8.5-5.1 4.4-8.5 11.5-5 17.2 9 12.4 34.2 9.9 49.1 7.6 11.2-2 21.8-6 30.4-12.2 16.1-11 7.5-24.8-12.3-25.6q-10-0.5-20.1 0c-3.8 0.3-7.5 0.8-11.1 1.6-1.5 0.6-7.8 1.2-4.3-0.9 9.9-3.8 25-3.3 35.9-2.9 9.2-0.1 19.6 3.4 23 10.9 1.8 6.6-2 13.5-8.2 17.8-14.3 10.9-34.5 15.1-53.7 15.4z"/>
								<path id="&lt;Compound Path&gt;" fill-rule="evenodd" class="s1" d="m1297.2 346.5c-6.3-1.1-13.1-4.7-14.5-10.1-1.5-4.4 4-13.1 9.8-7.7 4.1 3.3 9.9 6.5 10.4 11.6 0.2-0.7 1.1 0.8 1.3 1 1.8 3.3-3.2 6.3-7 5.2zm2.3-2.1c0.7 0 1.3-0.4 1.8-0.8-1.7-5.7-6.8-9.9-11.9-13.8-2.7-1.9-4.5 4.7-3.6 6.2 1.5 4.6 8.1 7.9 13.7 8.4z"/>
								<path id="&lt;Compound Path&gt;" fill-rule="evenodd" class="s1" d="m1298.6 327.7c-3.2-0.7-5-3.7-4.8-6.2-4.7-3.2 1.4-10.7 6.3-6.4 2.7 2.2 4.6 5.1 4.4 8.2-0.3 2.3-2.7 5.1-5.9 4.4zm1.1-2.4c5.3-1.7-3.7-14.2-4.8-6.6 0.3 2 2.2 5.1 4.2 6.5q0.3 0.1 0.6 0.1z"/>
								<path id="&lt;Path&gt;" class="s1" d="m1274.8 370c-5-4.8 1.1-12.8 7-15.2 4.8-1.8 10.6-1.9 15.7-0.7 2.9 0.8 5.3 2.4 8.2 3 4.2 0.9 9.6 0.1 12-3 2.4-2.7 3.9-6 7.2-8 7.9-5 16-1.2 22.6 3.2 3.6 2.2 6.8 2.6 11.2 2.7-1.6 3.6-7.5 1.8-10.5 0.3-6.9-3.7-14.1-9.7-22.3-4.1-3.3 2.6-4.6 6.3-7.7 8.8-3.6 2.4-8.7 2.9-13.1 2.1-3-0.5-5.4-2.1-8.2-2.9-3.9-1-7.9-0.9-11.9-0.1-5.3 1.5-8.5 6.1-9.6 10.3-0.1 1.1-1.1 2.8-0.1 3.6 0 0.1 0.2 0 0.2 0.1-0.3 0-0.5 0-0.7-0.1z"/>
								<path id="&lt;Path&gt;" class="s1" d="m1282.1 365.5c-0.5-1.9 1.5-3.9 3.2-5.1 1.9-1.3 4.5-1.2 6.9-1.2 2.4 0.1 4.2 1.6 6.3 2.4 1.3 0.5 2.8 0.8 4 1.6 0.3 0.2 0.6 0.3 0.9 0.5-0.6 0.4-1.4 0.7-2.3 0.8-1.4 0-2.8-0.5-4-1-2.6-1.3-5.2-2.5-8.4-1.8-2.4 0.7-5.4 1.7-6.6 3.7q0 0 0 0 0 0 0 0.1 0 0 0 0z"/>
								<path id="&lt;Path&gt;" class="s1" d="m1313.6 398.8c-3.8 0.1-7.5-0.5-11-1.5-3.6-0.9-7.2-1.8-10.6-3.3-5.6-2.3-10.4-5.5-14.9-9-2.1-1.7-4-3.5-5.5-5.5-2-2.4-3.8-5.1-4.9-7.8-1.3-3.6-3.1-7.3-2.3-11.1q0.2-1 0.7-2c0.2-0.3 0.3-0.8 0.8-1q0 0 0 0 0 0-0.1 0.1c-0.1 0.1-0.1 0.4-0.1 0.6 0.1 1 0.3 2.1 0.6 3.1 0.4 1.6 0.8 3.2 1.2 4.7 1.2 3.6 2.6 7.2 5 10.4 2.3 3.3 5.4 6.3 8.9 8.8 6.5 4.9 13.6 8.2 22.2 10 2.8 0.8 5.7 1.4 8.7 1.5 3.1 0.1 6.2 0.2 9.2 0.4 1.1 0.1 2.1 0.4 3 0.8-1.1 0.5-2.3 0.8-3.5 0.8q-3.7 0.1-7.4 0z"/>
								<path id="&lt;Path&gt;" class="s1" d="m1340.9 394.4c1.7-2.4 5.1-3.6 7.3-5.6 5.7-5 8.8-11.5 10.9-18 2.1-6.4 4.3-13.3 2.4-20-1-3.3-2.1-6.5-3.3-9.8 0-0.1-0.1-0.2 0-0.2q0.1 0 0.1 0-0.1 0-0.1 0 0 0 0 0 0 0 0 0c2.2 1.8 4 4.1 4.9 6.5 2.5 5.8 2.1 12.1 0.5 18-2.2 7.3-4.2 14.9-9.6 21.1-2.2 2.6-4.6 5.1-8 6.5-1.6 0.8-3.2 1.4-5.1 1.5z"/>
								<path id="&lt;Path&gt;" class="s1" d="m1320.7 403.5c-2.8-0.2-6.2-0.5-7.8-2.6-0.8-1 0.1-2.7 1.7-2.5-0.8 0.2-1 1.3-0.4 1.7q0-0.1 0-0.1 0 0 0 0c6 2.3 14.3 1.4 20.5-0.3 5.1-1.6 10.8-3 14.6-6.4 0.5-0.4 0.5-1.1 0.8-1.7 1.5 0.4 2 1.9 1.3 3-2.4 2.8-6.8 4.1-10.5 5.5-6.3 2.2-13.2 3.9-20.2 3.4z"/>
								<path id="&lt;Path&gt;" class="s1" d="m1356.3 380.4c1.5-2.1 4.2-2.8 6.6-3.9 2.5-1.1 4.5-2.2 6.6-3.6 6.6-4.4 14.2-12.9 11.8-20-2.4-3.5-8-3.6-11.7-1.5-2.1 0.8-4.2 1.9-5.8 3.3-0.1 0-0.1 0.2 0 0.2q0 0 0 0c-0.3 0-0.2-0.3-0.2-0.4 0.8-2.5 2.9-4.5 5.7-5.6 5.2-2.6 13.4-0.9 14.9 4.2 1.2 9.7-7.2 18.4-16.6 23.8-3.4 1.6-7 4.6-11.3 3.5z"/>
								<path id="&lt;Path&gt;" class="s1" d="m1360.5 372.6c-0.6 0.1-0.1-0.5-0.1-0.8 1.2-2.2 4.3-3.1 6.3-4.7 1.6-1.1 3.1-2.4 4.3-3.8 7.5-9-0.5-9.9-7.7-3.6-0.2 0.2-0.4 0.4-0.5 0.6 0.5-2.4 2.1-5.3 5-6.5 6.9-2.1 11.2 2.2 7.8 7.4-1.9 3.7-9.8 11.6-15.1 11.4z"/>
								<path id="&lt;Path&gt;" class="s1" d="m1350.3 393.2c-1-0.7 0-1.8-0.7-2.6-0.2-0.3 0.9 0.1 1 0.2 0.9 0.6 1 2.3-0.3 2.4z"/>
								<path id="&lt;Compound Path&gt;" fill-rule="evenodd" class="s1" d="m1410.8 353.3c-3.6-1.3-4.2-5.2-1.7-7.5-0.3 0.1-0.6 0.2-0.8 0.3q0.2-0.8 0.6-1.5c0.4-0.9 1.2-1.6 2.2-2 2.6-1.1 5.9 0 7.4 1.9 2.2 2.6 2.2 6.7-1.6 8.3-1.9 0.7-4.1 1.2-6.1 0.5zm2.5-1.9c1.8-0.2 3.7-1.1 3.7-2.7 0-1.3-0.6-2.6-1.9-3.4-0.9-0.5-2.1-0.8-3.1-0.5-1.6 1.9-2.9 6.5 1.3 6.6z"/>
								<path id="&lt;Path&gt;" class="s1" d="m1425.3 387.3c-13.7-2.7-8.3-19.2 4.7-17.3v1c-2.5 0.8-5 1.7-7.1 3.2-2.6 2.1-3.8 5.8-1.6 8.5 1.6 2.3 5.6 3.5 8.7 2.4v2.1c-1.6 0.3-3.2 0.4-4.7 0.1z"/>
								<path id="&lt;Path&gt;" class="s1" d="m1315.4 330.4c-7.7-5.7 1.2-13.8 3.5-19.8 0.2-3.4-2.2-6.4-4-9.3 3.4 1.6 6.6 5.3 6.6 8.9-0.5 3.9-3.9 7.1-5.3 10.7-1.8 3.1-0.5 6.3-0.8 9.5z"/>
								<path id="&lt;Path&gt;" class="s1" d="m1325 338c-5-2.5-2.7-10.7-0.7-14.3 2.1-3.3 6.3-5.8 6.3-9.8 0-0.8 0-1.5 0.1-2.2 1 1.9 2 4.1 1.2 6.2-0.7 2.7-3.5 4.5-5 6.8-3 4.1-1.6 8.9-1.9 13.3z"/>
								<path id="&lt;Path&gt;" class="s1" d="m1225.3 480c1.1-2.6 2.6-5 4.8-7.2 6.7-6.6 17.9-8 26.1-13.2 8.5-4.7 15-12.4 16.1-20.7 0.7-7.1-0.7-14.7-6.8-20.1-11.7-9.8-30.7-14.1-46.7-9.5-13.4 3.7-23 14.7-21.8 26.3 0.9 9 6.8 17.7 4.9 26.9-0.7 5.7-8.1 12.1-9.8 17.5h-2.4c-0.2-5.8 9.7-13.4 9.3-19.9 0.4-8.9-5.3-17.3-5.4-26.2-0.7-14 13.4-26 30-28.3 16.9-2.4 35.9 2.9 46.3 14.1 7.4 9.6 6.9 22.7-0.6 32.2-5.3 7.4-14.7 12.1-23.9 16-5.5 1.8-11 4.2-14.3 8.4-1 1.1-1.7 2.4-2.3 3.7z"/>
								<path id="&lt;Path&gt;" class="s1" d="m1223.7 475.3c-8.1-1.1-22.3-4.7-22.2-12.8 0-0.1 0.1-0.1 0.2-0.1q0 0 0 0c0.3 1.2 2.1 2.3 3.2 3.2 3.9 2.6 8.1 5.1 13 6.3 3.7 1.2 7.8 0.6 11.2 2.2-1.4 1.2-3.5 1.5-5.4 1.2z"/>
								<path id="&lt;Path&gt;" class="s1" d="m1209.6 480c-6.1-2.5-11.2-6.7-12-11.8q0 0 0 0c4.8 4.6 10.4 9.4 17.7 11.3q1 0.4 2 0.5z"/>
								<path id="&lt;Path&gt;" class="s1" d="m1196 480c-1.5-1.5-2.6-3.1-3.1-4.7 0 0-0.1-0.3 0-0.3q0.1 0 0.1 0 0 0 0 0 0 0 0 0 0 0 0 0 0 0 0 0 0 0 0 0 0 0 0 0 0 0 0 0 0 0 0 0c0.1 0.4 0.9 0.8 1.3 1.1 1.1 0.8 2.3 1.5 3.5 2.3 0.9 0.5 1.7 1.1 2.5 1.6z"/>
								<path id="&lt;Compound Path&gt;" fill-rule="evenodd" class="s1" d="m1221.6 473.6c-1.4-6.1 13.6-21.3 18.9-26-1.2-1-2-2.3-2.4-3.7-3.8 1.4-9 0.2-9.9-3.4q-0.4 0.2-1 0.3-0.8 0.3-1.6 0.6c-3.4 9.5-9.8 18.3-15.8 26.8 0.4-0.3-0.1 0.6-0.3 0.1-0.3-3.7 2-7.2 4-10.4 3.4-5.3 6.6-10.4 8.7-16-8.6-0.2-14.2-10.3-7.3-15.1 9.1-5.8 13.7 6.5 11.4 12.1q0.7-0.3 1.4-0.6c-3.5-20.7 23.6-12 3 1 0.4 3 4.3 3.7 7.2 2.4 1.1-20.5 25.6-9.1 2.8 1.2 0.1 1.2 0.6 2.3 1.6 3.2 3.7-2.7 7.4-6.3 12.6-6.8 2.7 0 6.1 2 5.3 4.5-2.4 5.2-10.8 7.1-16.8 5.2-5.4 4.6-10.1 9.4-14.2 14.8-2.8 3-3.5 7.7-7.6 9.8zm27.6-26c13.2-2 8.9-11.7-3.8-0.2q1.9 0.4 3.8 0.2zm-8.4-7.4q-0.1 0.1-0.1 0.3c13.8-6.9 2.5-13.5 0.1-0.3zm-17.9-0.5q0 0 0.1 0c0.7-2.5 1-5 0.4-7.6-0.5-2.5-4-6.1-6.8-3.1-4.6 3.7 0 11 6.3 10.7zm7.4-4.5q0 0.8 0 1.6c2-1.8 8.8-7.4 3.4-8.6-3.5 0.8-3.3 4.6-3.4 7zm3.4-7q0.1 0 0.1 0 0 0-0.1 0 0 0-0.1 0 0.1 0 0.1 0z"/>
								<path id="&lt;Path&gt;" class="s1" d="m1163.6 443.7c-2.8-0.8 0.3-2.3 1.9-2.6 4.7-0.8 9.6-0.1 14.2-0.4-2.2 2.8-11.8 3.9-16.1 3z"/>
								<path id="&lt;Path&gt;" class="s1" d="m1182.4 422.5c-19.3-2.7-14.6-13.1 0.2 0 0 0-0.2 0-0.2 0q0 0 0 0z"/>
								<path id="&lt;Path&gt;" class="s1" d="m1210.4 399.9c-3.2-2.4-4.7-5.8-6.1-9.1-2-3.7 0.3-6.7 3.1-1.9 1.8 3.7 2.9 7.4 3.5 11.3q0-0.1 0.1-0.1 0 0 0 0 0 0 0 0 0 0 0 0c-0.1 0.3-0.5-0.1-0.6-0.2z"/>
								<path id="&lt;Path&gt;" class="s1" d="m1243.5 396.7c-1.2-3.8 0.1-7.7 1.4-11.3 1.3-3.2 4.2-4.1 3.8 0.1-1 4.1-3.1 7.9-5 11.7q0 0 0 0 0 0 0 0 0 0 0 0 0 0 0 0c-0.1 0-0.2-0.4-0.2-0.5z"/>
								<path id="&lt;Path&gt;" class="s1" d="m1276.1 411.8c2.9-2.4 5.4-7.1 10.4-6.3-0.7 3.8-6.6 5.1-10.4 6.3z"/>
								<path id="&lt;Path&gt;" class="s1" d="m1296.1 437.8c-1.3-0.2-4-0.3-4.6-0.7 5.3-1.2 11.1-3.2 16.8-2.3 6.2 2.8-10.1 3.6-12.2 3z"/>
								<path id="&lt;Path&gt;" class="s1" d="m1290.5 469.5c-3.5-1.4-7.8-3.6-9.3-6.2 3.9 1.1 7.9 2.1 11.5 3.8 3.9 2.3 1.5 3.5-2.2 2.4z"/>
								<path id="&lt;Compound Path&gt;" fill-rule="evenodd" class="s1" d="m1133.2 402.7c-4.3-0.7-8.9-4.3-7.9-8 0.8-2.2 2.8-4.5 5.8-4.7 2.8-3.3 9.3-1.4 12.2 0.9 6.2 5.3-2.3 13.4-10.1 11.8zm2.3-2.1c5.5-0.4 9.6-6.4 3.4-8.6-2.5-1.3-5.2-0.2-7.9-0.7-1.3 1.3-2.6 3.3-2.6 5.1 0.9 2.4 3.9 4.3 7.1 4.2z"/>
								<path id="&lt;Path&gt;" class="s1" d="m1113.2 386.7c-4.8-1.5-8.7-5.6-10.2-9.3q0 0 0 0c2 1.4 4.4 2.4 6.3 3.9 1.7 1.1 3.2 3.1 5.5 3 12.8-3.9 23.5-8.6 36.9-3 1.9-2.1 3.5-4.6 4.3-7-11.8-6.9-36-3.5-47.1 3.3-4.6 2.1-4.2-0.3-1.5-2.4 4.6-2.5 9.6-4.4 14.9-5.6 8.6-1.9 32.8-3.6 36.6 4.5-0.2 2.2-4.1 8.7-6.6 9.5-9.1-2.1-14.2-4-24-0.9-5.1 1.1-9.8 4.1-15.1 4z"/>
								<path id="&lt;Compound Path&gt;" fill-rule="evenodd" class="s1" d="m1093.4 367.5c-3.1-0.9-7-3.2-6.7-6.1 1-2 3-3.6 4.8-5.2 6.5-4.6 15.3-7.1 23.6-8.8 11.7-2 23.7-3 35.5-0.8 6.7 1.3 14 2.2 19.5 5.8 3.9 2.3 0.7 4.7-1.2 6.9-1.6 1.7-2.8 4.1-5.3 4.7-5-1.1-9.9-3.1-15.1-3.8-13.3-2.1-27.2-1.1-40 2.2-5.3 1.2-9.8 4.8-15.1 5.1zm3.4-2.2q0 0 0 0c7.7-5.7 18.5-6.8 28.4-8 12.9-1.5 26.1 0.1 38.1 4.1 2.1-2 4.1-4.2 5.7-6.5-7.3-5.7-26.3-7.8-36.3-7.5-14.1 1.1-35.6 3.5-42.8 14.6 1.5 2 4.3 2.7 6.9 3.3z"/>
								<path id="&lt;Path&gt;" class="s1" d="m1050.9 315.6c-17.6-8.8-34.5-18.4-51.2-28.3-13.2-7.7-26.5-15.3-39-23.8-1.5-1.2-3.3-2.6-4.1-4.1 1.3 0.3 2.6 0.9 3.8 1.4 8.1 4.1 15.2 9.4 22.9 14 13.8 8.2 27.6 16.3 41.4 24.4 1.6 1.3 42.1 21.4 26.2 16.4z"/>
								<path id="&lt;Path&gt;" class="s1" d="m991.9 373.1c-12.1-6.2-23-13.7-35.1-19.9-9.5-4.9-19.2-9.5-28.8-14.5-11.5-6.2-23-12.5-34.8-18.4-2.5-1.3-4.4-3.2-6.5-4.8 2.5 0.1 5.1 1.3 7.4 2.3 12.1 5.8 23.5 12.4 35.1 18.8 14 7.6 28.9 14 42.3 22.3 2 1.3 34 18.9 20.4 14.2z"/>
								<path id="&lt;Path&gt;" class="s1" d="m994.5 373c-2.8-0.2 1.8-3.4 2.7-4 5.7-5.2 10.1-11.3 14.5-17.3 8.5-12.1 21.9-34.4 41.4-35 0.2 0 0.5 0 0.6 0.1 0.1 0 0.1 0.1 0 0.1-2.3 1.1-4.5 2.3-6.8 3.4-17.7 7.8-25.8 23.7-35.9 37-3.4 3.7-10.8 15.8-16.5 15.7z"/>
								<path id="&lt;Path&gt;" class="s1" d="m888.8 316.2c1.6-2.7 5.7-4.4 8.6-6.4 6.4-4.1 11.9-9.1 17-14.2 7.4-7.5 13.4-15.9 21.8-22.7 4.2-3.2 8.1-6.6 12.8-9.3 2.1-1 4.1-2 6.3-2.9 4.6-1 4.2 0.9 0.8 2.5-5.1 1.8-9.3 4.7-13.3 7.8-4.2 3-8.1 6.1-11.5 9.7-11.9 12.6-23.3 29.5-42.3 35.5 0.2 0.1-0.1 0.1-0.2 0z"/>
								<path id="&lt;Path&gt;" class="s1" d="m969.8 361.5c-17.3-2.9-35-3.2-52.2-6.4-5.3-0.7-1.2-5.4-0.6-7.9 1.5-4.2 2.9-8.4 5-12.4 0-0.7 0.5 0 0.4 0.3 0.9 6.1-2.1 12.1-4.3 17.8 12.1 2.6 24.8 2.8 37.1 4.2 5.3 0.8 10.7 1.4 15.9 2.3 4.4 1.5 2.3 2.4-1.3 2.1z"/>
								<path id="&lt;Path&gt;" class="s1" d="m1039.7 369.5c-8.4-0.9-17-1.1-25.5-1.8-3.8-0.3-7.5-0.7-11-2-0.1-0.1 0.2-0.1 0.3-0.1 5.2-1 10.6 0 15.9 0.2 6.7 0.1 13.5 0.8 20.3 1.3 10.1-16.4 14.1-34.7 21.2-52 2.7-5.7 3.6-11.9 7.3-17.2-13.9-0.1-27.4-2.8-41-4.7-6.5-0.9-13-2-19.5-2.7-1.1-0.1-2.2-0.2-3.2-0.6-0.9-0.4-3.9-1.5-1.7-1.7 3.1-0.8 6.3 0 9.5 0.3 3.7 0.5 7.4 1.1 11.2 1.7 15.4 2.3 30.8 4.9 46.5 5.8 3.7 1.1-0.7 4.2-1 6.1-3.1 8.8-7 17.5-9.9 26.4-3.3 10.4-6.7 21-12.1 30.8-1.7 2.6-3.3 10-7.3 10.2z"/>
								<path id="&lt;Path&gt;" class="s1" d="m919.1 345.1c-0.6-1.9 0.2-3.9 0.7-5.8 0.6-1.8 1.6-3.9 2.9-5.3 0.3 2 0 4-0.7 5.9-0.6 1.8-1.1 3.8-2.9 5.2z"/>
								<path id="&lt;Path&gt;" class="s1" d="m914.4 317c4.1-3.8 9-7 12.4-11.2 4.7-6.3 6.8-13.8 13.5-19.1 3.1-2.5 6.7-4.7 10.5-6.5 4.1-1.8 5.8-1.3 1.5 1.5-6.2 3.6-12.4 7.4-15.8 13-5 8.5-9.9 19.1-22.1 22.3z"/>
								<path id="&lt;Path&gt;" class="s1" d="m921.9 321.9c2-0.5 3.9-1.8 5.7-2.8 2.4-1.3 4.5-2.8 6.3-4.6 2.7-2.8 4.8-5.9 6.6-9.1 2.1-3.1 4.4-6.4 7.1-9.2 2.5-2.5 5.3-4.7 8.8-6.2 2.5-1 5-2.7 7.9-2.7-1 1.3-2.6 2.1-4.2 2.9q-2.4 1.2-4.6 2.5c-3.8 2.3-6.8 5.4-9.2 8.6-2.6 3.3-4.3 6.9-6.7 10.3-2.9 3.6-6.3 7.4-11.3 9.3-2 0.6-4.2 1.2-6.4 1z"/>
								<path id="&lt;Path&gt;" class="s1" d="m951.1 317.9c0.7-2.9 2.2-5.6 3.8-8.1 1.7-2.6 3.4-5.1 5.4-7.5 4.6-5.5 11.6-9.4 19-12.1 0.8-0.2 1.7-0.4 2.6-0.4-1 1.2-2.3 2-3.7 2.7-7.9 4.2-13.2 7.1-18.1 13.9-1.6 2.1-3 4.3-4.6 6.4-1.3 1.8-3 3.4-4.4 5.1z"/>
								<path id="&lt;Path&gt;" class="s1" d="m959.1 341.5c4.1-5.1 9.3-9.3 13.1-14.5 5.4-7.4 11.6-14.8 20.6-19.6q2.6-1.4 5.3-2.6c1.9-0.8 3.8-1.7 5.9-1.5-1 1.3-2.7 2.1-4.4 2.9-8.4 4-15.5 9.6-20.6 16.4-3.4 4.4-7 8.7-11 12.8-1.2 1.2-2.4 2.5-3.9 3.5-1.5 1-3.3 1.8-5 2.6z"/>
								<path id="&lt;Path&gt;" class="s1" d="m971.9 347.2c1.9-6 17.6-24.5 25.1-25.4-2.1 3.5-6.5 5.7-9.2 8.8-5.5 5.4-9.6 11.7-15.9 16.6z"/>
								<path id="&lt;Path&gt;" class="s1" d="m984.6 351.7c1.8-6 7.1-10.6 11.1-15.7 5.3-6.2 16.6-16.2 26-17.2-1.4 2-4 2.9-6.2 4.2-4 2.2-7.8 4.7-11.1 7.6-7.4 6.6-12.5 14.5-19.8 21.1q0 0 0 0z"/>
								<path id="&lt;Compound Path&gt;" fill-rule="evenodd" class="s1" d="m1019.3 259.5c-6.5-0.2-10.8-4.5-8.2-9.7 1-4.9 7.9-8.5 13.7-6.3 2.9-0.8 5.4 0.9 7 2.6 5.1 6.5-4.1 14.2-12.5 13.4zm1.5-2.4c6.2 0 13.3-6.8 7-10.6 0 0.1 0.1 0.2 0.2 0.2-1-0.5-2-1-3.2-1.2-2.9-0.4-6.5 0.3-8.8 1.9-4 4.5-3.4 10.1 4.8 9.7z"/>
								<path id="&lt;Compound Path&gt;" fill-rule="evenodd" class="s1" d="m1015.2 229.5c-3.7 0-6.1-3.9-3.9-6.4-0.8-2.8 3.7-4.4 6.6-3.4 6.9 2.5 5.5 10.2-2.7 9.8zm0.8-2.1c4.4-0.2 4.4-3.7 1-5.2-1.6-0.5-3 0.5-4.4 1-0.6 1.8 0.9 4.2 3.4 4.2z"/>
								<path id="&lt;Path&gt;" class="s1" d="m1049.5 480q0.3-0.2 0.5-0.4 2.4-1.9 4.2-4.1c2.1-2.6 4.2-5.3 5.6-8.2 1.5-3.8 2.4-7.8 2.8-11.8 0.4-4.6-0.2-9.2-1.5-13.6-2.3-8-9.1-14.7-17.1-19.3-3.4-2-7.5-2.9-11.4-3.6-6.5-1.2-13.2-0.6-19.6 0.3-5.3 0.9-10.3 2.6-15.1 4.4-3 1.3-5.7 2.9-8.3 4.7-6 4.1-10.1 9.8-12.3 15.9-2.1 5.4-1.5 11.2-0.2 16.7 0.8 3.4 2 6.7 3.9 9.8 1.6 2.8 3.9 5.3 6.5 7.5q1 0.8 1.9 1.7h-3.9q-1.1-0.9-2-1.8c-6.9-6.7-9.7-15.5-10.5-24.1-0.5-6.5 1.5-13.1 5.7-18.7 2.4-3.2 5.3-6.5 8.9-8.9 2.1-1.4 4.3-2.7 6.6-3.9 3.4-1.7 7.2-2.7 11-3.8 5.1-1.6 10.5-2.3 15.9-2.6 5.4-0.5 10.9 0.2 16.1 1.5 9.4 2 17.2 8.6 22.1 15.1 4.9 6.5 6.2 14.2 6 21.7-0.4 5-1.4 10.1-3.6 14.8-1 2-2.4 3.9-3.8 5.7-1.2 1.7-2.7 3.5-4.4 5z"/>
								<path id="&lt;Path&gt;" class="s1" d="m1004.7 467c-2.7-0.9-3.4-3.3-4.4-5.2-1.9-3.5-3.4-7-3.9-10.8 2.7 2 4.1 5.5 5.7 8.2 1 2.5 3.7 5 2.6 7.8z"/>
								<path id="&lt;Path&gt;" class="s1" d="m1006.3 469.2c-2.2 0-3.4-2.6-2.2-3.6 3.3 1.6 8.5-0.7 12.2-1.1 5.1-1.1 10.1-2.2 15-3.9 0.3-1 1.6-1.2 2.5-1.7 1.1-0.6 5.1-3.1 2.3-3.5-2.1-0.4-6.4 2.1-6.6-0.8 0.7-2.1 5-2.5 5-4.9-1.2-3.2-8.9 1.5-8.3-2.6 0.7-1.6 3.1-2.4 3.9-4-2.7-0.6-5.9 0-8.4 1-1.1 0.3-2.1 1.3-3.4 1-2.9-1.1 0.3-3.6 0.8-5.2 0.9-2.8 2.9-7.2-0.6-9.1q0.1 0 0.1-0.1c-4.2 0.4-4.3 10.1-7.3 12.8-3.5 5.4-13.8 5.3-13 10.3-5.6-6.6 9.2-7.4 11.1-12.6 2.2-3.4 2.2-7.6 4.6-10.9 1.9-2.3 6.5-2.6 8 0.1 2.2 3.3 1.4 7.4 0 10.9 4.8-1.8 15.1-1.2 10.2 4.8 4.8-0.1 7.5 3.9 4.3 7 3.6-0.1 4.9 3.4 2.9 5.5-4.8 5.5-24.7 9.4-33.1 10.6z"/>
								<path id="&lt;Compound Path&gt;" fill-rule="evenodd" class="s1" d="m1101.4 480c0.9-2.7 1.5-5.4 2.1-8.2 1.8-10 2.1-21-3.9-30.1 4.2 10.3 3.9 27.7-3.6 38.3h-3.1c6.7-12 8.9-24.1 4-37.2-0.9 1.7-2.8 6.7-5.4 6.6-1.3-0.1-1.5-1.4-1.1-2.2 2.1-6.6 2.3-13.5 1.3-20.2-0.1-0.8 0.6-1.6 1.7-1.4 2.5 0.9 3.8 3.7 5.7 5.3 3.8 4.4 8.3 8.6 10.5 13.7 0.2 2.8-3.5 1.8-5.1 0.6 3.4 8.7 3.6 18.2 1.8 27.2-0.7 2-1 4.9-1.8 7.6zm3.8-37.5c-2.8-4.4-6.6-8.3-10.2-12.2 0.2 3.1 0.2 6.2-0.1 9.3 0.9-3.4 3.9-2.7 4.3 0.4 1.5-1.8 3.7 1 4.8 1.7 0.4 0.3 0.9 0.6 1.2 0.8z"/>
								<path id="&lt;Path&gt;" class="s1" d="m895.4 425.8c-2-1.3-0.7-3.6-0.7-5.4 0.1-1.3 0.9-2.7 2.3-3.5 1.2 2.2 0 4.5 0 6.8 8.6-1 17.2-2.6 25.8-1.7-7.9-4.8-14.7-10.6-20.2-17.2-0.5 1.8 1.3 9-1.8 8.8-10.9-3.1-20.9-14.3-27.6-21.7-9.3-11-15.9-23.8-16.5-37.3-3.3 4.1-4.9 9-8.5 12.9q0 0 0.1 0 0 0 0 0c-0.1-5 2.8-10.1 6.1-14.4 1.2-1.2 2.5-5 4.9-3.2 0.8 1.6 0.1 3.5 0.5 5.3 0.3 3.4 1.1 6.8 1.9 10.3 3.5 15.4 21.3 37.9 38.5 45.5 0.1-2.9-0.2-5.8-0.1-8.6 1-3.5 4.2 0.4 5.3 1.8 2 2.3 4.3 4.8 6.6 6.9 4.5 4 9.5 7.5 15.1 10.6 0.6 0.3 1.4 0.7 1.4 1.4-0.1 2.6-8.8 0.8-11.1 1.2-6 0.1-11.9 1.3-17.9 1.7-1.3 0-2.9 0.5-4.1-0.2z"/>
								<path id="&lt;Path&gt;" class="s1" d="m896.2 417.8c-10.5-3.6-18-11-25.3-17.8-10.1-9.6-19.1-20.7-22.3-33.2-0.2-1.2 0.2-2.4 1.1-3.4 1.8 1.7 1.7 4 2.5 6 5.2 14.5 17.2 26.6 29.9 37.3 3.1 2.5 6.4 4.8 9.9 7 1.9 1.1 3.1 3.1 5 4 0 0 0.1 0 0.1 0-0.2 0.2-0.6 0.1-0.9 0.1z"/>
								<path id="&lt;Path&gt;" class="s1" d="m908.5 480q0.3-0.3 0.1-0.8c-2.4-2.8-7.5-1.5-11-2.3-3.3-1 0-5.4 0.8-7.1 1.2-2.2 3.7-3.1 6.5-2.2 1.3 0.9 12.1 0.7 8.3-1.6-3.6-1.4-7.7-1.5-11.7-1.6-2.2-0.1-2-2.1-1-3.2 1.6-3.1 4.7-6.3 4.4-9.7-7-0.3-5.9 10.5-9.7 11.1-2.8 0.1-9.1-1.1-10.3-3.3-0.2-1.9 1.5-3.6 1.7-5.5 0.2-1.5 1-3.4-0.4-4.5q0 0 0 0-0.1 0.1-0.3 0.1 0.1 0 0.1 0 0 0 0.1-0.1c-3.3 1.8-5.3 7.2-7 10.1-1.6-2.4 1.2-9.9 5.3-11.9 7.5-2.4 5.3 8.1 3.6 11.1 2 0.8 4.2 1.4 6.4 1.6 2.2-4.1 3.1-10.8 10-10.9 7.5 0.6 0.1 9.7-1 12.8 20.5-0.1 16.3 11.9-1.4 7.9q0 0 0 0c-1.6 1.2-1.9 3.1-2.6 4.8 3.7 0.6 8.2-0.1 10.9 2.4 1.1 1 1.4 1.9 1.2 2.8z"/>
								<path id="&lt;Compound Path&gt;" fill-rule="evenodd" class="s1" d="m891 474.3c-8.2-0.8-14-2.3-7.1-9.1 0.7-1.4 3.2-1.3 4.7-0.8 2.4 0.9 6.8 0.6 8.1 2.4 0.6 1.6-1.1 3-1.7 4.5-0.8 1.3-1.7 3.3-4 3zm0.4-2.5c0.7-1 1.4-2.2 1.9-3.4-3-0.4-6.6-0.6-8.8-2.4q0 0-0.1 0-0.2 0-0.4 0 0.2 2.2 0 4.3c2 1.3 4.9 1.2 7.4 1.5z"/>
								<path id="&lt;Path&gt;" class="s1" d="m871.6 480c-0.2-1 0-2 0.3-3-3.9 0.1-8.2-0.4-11.2-2.6-3.4-2.4 0-5.6 3.7-5.8 3.4-0.5 6.7 1.2 10.1 1 0.8-1.2 1.4-2.4 1.7-3.7-3.8-0.7-8.2-1.2-10.9-3.7-1.2-1.2-1.3-3-0.2-4.2 3.5-2.6 9.1-0.6 12.5 1.2 0.6-0.5 1.8-2.3 2.4-2.5q0 0 0 0-0.1 0-0.1 0 0 0 0 0 0 0 0 0c-0.6 1.4-0.1 3.4-1.7 4.4-3.5 0.6-7-2.3-10.6-1.4-0.1 0.1-0.1 0.3-0.1 0.3 0.3 2.6 5 2.7 7.5 3.4 1.6 0.2 3.8 0.3 4.1 1.9-1.6 13.3-10.7 3.1-16.8 7.1 1.8 2.1 5.6 2.4 8.6 2.5 1.1-0.1 2.3-0.3 3.1 0.3 1.3 1.3 0.7 3.4-0.6 4.8z"/>
								<path id="&lt;Path&gt;" class="s1" d="m889 480c-1.8-0.5-3.8-0.3-5.6 0h-3.5c1.9-3 7.8-3.5 11.1-1.8 0.8 0.4 1.3 1.1 1.6 1.8z"/>
								<path id="&lt;Compound Path&gt;" fill-rule="evenodd" class="s1" d="m842.8 435.1c-12-1.5-7.4-15.3 3.8-13.1 4 1.1 7.5 5.1 5.8 8.5-1.6 2.8-5.8 5.1-9.6 4.6zm1.5-2.4c9.5-2.4 4.6-9.3-3.9-7.8-1.7 3-1.6 8.1 3.9 7.8z"/>
								<path id="&lt;Compound Path&gt;" fill-rule="evenodd" class="s1" d="m815.8 454.9c-5.2-1.2-5.3-9.5 1-8.8 3.2-1.6 6.3 1.5 7 3.9 1.3 3.6-4 6.8-8 4.9zm2.7-1.8c2.9-0.2 2.3-3.1 0.4-4.1-1-0.6-1.7-1.5-2.7-2.1-0.3-0.1 0.3-0.5 0.4-0.6-2.5 1.1-1.9 4.1-0.7 5.9 0.7 0.5 1.7 0.9 2.6 0.9zm-2.6-0.9q0-0.1-0.1-0.1 0.1 0 0.1 0.1 0 0 0 0z"/>
								<path id="&lt;Path&gt;" class="s1" d="m1341.1 480c3.6-16 13.8-31.3 27.2-43.1 16.8-14 38.1-25.5 61.7-30.3v2.6c-31.6 7.3-60.3 25.1-75.7 48.6-4.5 7-7.9 14.6-10.2 22.2z"/>
								<path id="&lt;Path&gt;" class="s1" d="m1426 480c-2.8-2.4-4.8-5.6-7.7-7.8-7.3-7.2-14.5-14.4-21.3-21.9-4.2-4.6-8.6-9-13-13.5-1.6-1.7-5.7-5.6-5.2-7.5 10.6 7.4 19.1 17.8 27.7 27 5.3 5.6 10.7 11.2 16.2 16.6 1.9 2.4 5.1 4.5 6.5 7.1z"/>
								<path id="&lt;Path&gt;" class="s1" d="m1430 478.3c-0.7-1.9-1.3-3.8-2.2-5.6-3.5-8.6-6.7-17.4-9.6-26.1-2.4-6.7-4.5-13.3-6.8-20-1.1-3.7-2.8-7.9-2.3-11.5 3.2 3.9 4.4 8.6 6 13.1 3.1 8.7 5.8 17.5 8.7 26.2 1.5 4.4 3 8.7 4.7 13.1 0.4 1.3 0.9 2.7 1.5 4.1z"/>
								<path id="&lt;Path&gt;" class="s1" d="m1423 480c-8-5.2-14.5-11.7-21.5-17.7-9.5-8.8-19.6-17.1-29.5-25.6 10.3 1.9 25.8 20.1 34.4 26.8 4.6 4 8.8 8.2 13.8 11.8 2 1.7 4.5 3.1 6.8 4.7z"/>
								<path id="&lt;Path&gt;" class="s1" d="m1398.6 480q-3-0.8-5.8-1.6c-9.7-2.7-19-6.1-28.5-9.1-3.5-1.2-7-2.3-10.4-3.5-1.9-0.8-3.6-1.7-5.4-2.5 0 0-0.2 0-0.1-0.1 0.1-0.1 0.3-0.1 0.4-0.1 4.7 0.1 9 1.8 13.1 3.2 6.7 2.3 13.5 4.6 20.2 6.9q6.7 2.3 13.6 4.2 4.4 1.3 8.7 2.6z"/>
								<path id="&lt;Path&gt;" class="s1" d="m1387.7 437.8c-2.3-0.9 0.5-14.6 2.2-13.8 0 0-0.1-0.1-0.2-0.1-0.3 4 1 10.6-2 13.9z"/>
								<path id="&lt;Path&gt;" class="s1" d="m1392.9 443.8c-2.2-3.7 0.4-8.2 0.6-12.1 0.7-3.8 1.4-8.6 3.9-11.5-0.3 5-1.5 9.9-2.1 14.8-0.7 3 0.3 6.4-2.4 8.8q0 0 0 0z"/>
								<path id="&lt;Path&gt;" class="s1" d="m1398.5 448.7c-1.4-4.1 0.9-8.3 1.4-12.3 2-6.7 1.8-14.1 5.7-20.3-0.3 7.7-2.7 15.3-4 22.9-1 3.2-0.5 7-3.1 9.7z"/>
								<path id="&lt;Path&gt;" class="s1" d="m1404.7 457.3c-1.5-3.5 0.7-7.4 1.1-11q1.2-5.5 2.4-11.1c1.1-4.7 1.5-9.8 4.2-14.2 0.1 5.4-1.5 10.7-2.6 15.9-0.8 3.8-1.6 7.6-2.3 11.4-0.8 3-0.4 6.5-2.8 9q0 0 0 0z"/>
								<path id="&lt;Path&gt;" class="s1" d="m1411.9 463.2c-1.8-3.9 0.7-8.1 1.1-12.1 1.3-5.1 1.7-10.5 4.3-15.3 0.4 5.8-1.6 11.6-2.3 17.4-0.9 3.3-0.2 7.3-3.1 10z"/>
								<path id="&lt;Path&gt;" class="s1" d="m1417.9 472.7c-2.4-3.4 1.3-16.7 3.2-20.6 0.5 4.4-0.7 8.7-1.3 13.1-0.4 2.5 0 5.4-1.9 7.5z"/>
								<path id="&lt;Path&gt;" class="s1" d="m1423.8 477.8c-2.5-4-0.1-9.6 1.5-13.6 0 4.5 0.9 9.5-1.5 13.6z"/>
								<path id="&lt;Path&gt;" class="s1" d="m1427.1 480c-1-2.4 0.3-5.1 1.1-7.4 0.3 2.3 1.4 5.1 0.1 7.4z"/>
								<path id="&lt;Path&gt;" class="s1" d="m1199.5 322.4c-0.3-1.5 0.6-2.9 1.1-4.3 0.7-1.7 1.5-3.4 2.6-4.9q-0.6 2.9-1.7 5.7c-0.4 1.2-0.7 2.6-1.9 3.5q-0.1 0-0.1 0z"/>
								<path id="&lt;Path&gt;" class="s1" d="m1204.2 320.5c-0.1-1.1 0.5-2.1 1.1-3 0.5-1 1-1.9 1.6-2.8 0.6-0.8 1.2-1.6 1.9-2.3 0 0 0.1-0.1 0.2-0.1 0 0 0 0.1 0 0.1q0 0-0.1 0 0 0 0 0c-0.7 1.5-1.2 3.2-2.1 4.7-0.7 1.2-1.1 2.6-2.6 3.4z"/>
								<path id="&lt;Path&gt;" class="s1" d="m1210.2 317.3c-0.2-1.7 1.2-3 2-4.4 0.7-1 1.5-2 2.4-2.9 0.1-0.1 0.3-0.3 0.5-0.3q0 0 0 0 0 0 0 0c-0.9 1.3-1.4 2.9-2.3 4.3-0.7 1.2-1.3 2.5-2.6 3.3z"/>
								<path id="&lt;Path&gt;" class="s1" d="m1215.6 314.8c0-1 0.6-2 1.3-2.8 1.2-1.6 2.4-3.4 4.3-4.4-1.4 1.6-2.2 3.5-3.4 5.1-0.6 0.8-1.2 1.6-2.2 2.1z"/>
								<path id="&lt;Path&gt;" class="s1" d="m1221.4 311.9c0.1-0.8 0.5-1.6 1-2.2 1.2-1.3 2.5-2.5 3.8-3.7-0.7 1.4-1.6 2.8-2.6 4.1-0.5 0.7-1.2 1.4-2.2 1.8z"/>
								<path id="&lt;Path&gt;" class="s1" d="m1225.5 311.5c-0.1-1.2 0.9-2.1 1.7-2.9 1.3-1.6 2.8-3 4.5-4.3-0.8 1.4-1.9 2.9-3 4.1-1 1.1-1.7 2.5-3.2 3.1z"/>
								<path id="&lt;Path&gt;" class="s1" d="m1233.4 307.6c-0.1-1.1 0.7-2 1.4-2.8 1.3-1.6 2.5-3.3 4.4-4.5-1.1 1.5-1.9 3.1-3.1 4.5-0.8 1-1.4 2.2-2.7 2.8z"/>
								<path id="&lt;Path&gt;" class="s1" d="m1240.7 303.9c0.1-1 0.7-1.9 1.5-2.7 1.3-1.6 2.9-3.2 4.9-4.2-1.2 1.4-2.3 2.8-3.5 4.2-0.9 1-1.6 2.1-2.9 2.7z"/>
								<path id="&lt;Path&gt;" class="s1" d="m1247 301.6c0.2-1.6 1.6-2.7 2.7-3.9 1.2-1.3 2.5-2.5 4-3.4-1.2 1.7-2.6 3.4-4.1 5.1-0.7 0.8-1.5 1.7-2.6 2.2z"/>
								<path id="&lt;Path&gt;" class="s1" d="m1253.3 299.3c0.1-1 0.8-1.9 1.5-2.7 1.5-1.7 3-3.3 4.9-4.6-1.2 1.8-2.5 3.5-3.9 5.2-0.7 0.8-1.4 1.6-2.5 2.1z"/>
								<path id="&lt;Path&gt;" class="s1" d="m1261 297.4c0.1-1 0.9-1.8 1.6-2.6 1.9-2.1 3.7-4.3 6.4-5.9-0.7 0.6-1.1 1.4-1.6 2-1 1.2-2 2.3-3.1 3.5-1.1 1-1.9 2.3-3.3 3z"/>
								<path id="&lt;Path&gt;" class="s1" d="m1268.4 294.3c0.1-1.6 1.5-2.8 2.4-4.1 1.2-1.4 2.4-2.7 4-3.8-0.9 1.3-1.7 2.7-2.7 3.9-1.2 1.4-2 3.1-3.7 4z"/>
								<path id="&lt;Path&gt;" class="s1" d="m1274.3 291.7c0.1-1.1 0.9-1.9 1.7-2.7 1.6-1.8 3.1-3.6 5.4-4.8-1.3 1.4-2.4 3-3.7 4.4-1 1.1-1.9 2.5-3.4 3.1z"/>
								<path id="&lt;Path&gt;" class="s1" d="m1281.5 287.6c0.1-1 0.8-1.9 1.6-2.7 1.3-1.5 2.7-3 4.4-4.2-0.9 1.4-1.8 2.8-2.9 4.1-0.9 1-1.7 2.2-3.1 2.8q0 0 0 0z"/>
								<path id="&lt;Path&gt;" class="s1" d="m1287.7 285.4c0.1-0.8 0.5-1.5 1.2-2.1 1.6-1.6 3.3-3.2 5.4-4.4q-1.7 2.2-3.7 4.3c-0.8 0.8-1.7 1.8-2.9 2.2z"/>
								<path id="&lt;Path&gt;" class="s1" d="m1294.7 282.4c0.1-0.8 0.5-1.6 1.1-2.2 1.4-1.7 2.9-3.4 5-4.6-1 1.2-1.8 2.5-2.9 3.8-0.9 1-1.7 2.3-3.2 3q0 0 0 0z"/>
								<path id="&lt;Path&gt;" class="s1" d="m1302.4 278.5c0.1-1.1 1-1.9 1.7-2.7 1.2-1.1 2.4-2.3 3.9-3.2-1.1 1.3-2 2.7-3.2 4-0.6 0.8-1.3 1.5-2.4 1.9z"/>
								<path id="&lt;Path&gt;" class="s1" d="m1309.2 275.2c0-1 0.8-1.9 1.6-2.6 0.8-0.7 1.7-1.5 2.7-2.1-1.3 1.7-2 3.9-4.3 4.7z"/>
								<path id="&lt;Path&gt;" class="s1" d="m1345.3 165.4c0 0 0 0 0.1 0 3.2-2.5 6.9-4.6 10.6-6.7 0.8-0.5 1.8-0.9 2.8-1-0.6 0.9-1.6 1.4-2.6 2q-3 1.8-6 3.6c-1.5 0.8-3.1 1.7-4.9 2.1z"/>
								<path id="&lt;Path&gt;" class="s1" d="m1348.2 169.6c0 0 0-0.1 0-0.1 2-2.3 5.1-3.9 7.9-5.4 0.5-0.2 1-0.4 1.5-0.4q-0.5 0.6-1.1 1.1-2.2 1.3-4.3 2.7c-1.3 0.8-2.8 1.4-4.1 2.2q0 0 0 0 0 0 0 0 0 0 0 0 0.1 0 0 0c0 0 0 0 0.1-0.1z"/>
								<path id="&lt;Path&gt;" class="s1" d="m1349.1 174.2c0 0 0.1 0 0.1 0 1.6-1.5 3.5-2.8 5.5-3.9q1.4-0.8 2.7-1.5c1-0.6 2-1.2 3.1-1.3-0.8 1.1-2.2 1.7-3.4 2.5-2.6 1.5-5 3.2-8 4.2z"/>
								<path id="&lt;Path&gt;" class="s1" d="m1349.6 181.7c1.6-1.9 4-3.3 6.2-4.7 0.6-0.4 1.3-0.7 2-0.8-0.4 0.7-1 1.3-1.7 1.7-1.2 0.8-2.4 1.6-3.6 2.3-0.9 0.6-2 1-2.9 1.6q0 0 0 0 0 0 0 0 0 0 0 0 0 0 0 0c-0.1 0 0 0 0-0.1z"/>
								<path id="&lt;Path&gt;" class="s1" d="m1348.6 188q0 0 0 0c0.6-0.8 1.5-1.5 2.3-2.1 0.8-0.7 1.8-1.4 3-1.5-1 1.8-3.4 2.5-5.3 3.5q0 0.1 0 0.1 0.1 0 0 0z"/>
								<path id="&lt;Path&gt;" class="s1" d="m1345.4 194.5c0.8-0.8 1.8-1.5 2.6-2.1 0.8-0.6 1.8-1.2 2.9-1.4-1.1 1.8-3.5 2.6-5.5 3.5z"/>
								<path id="&lt;Path&gt;" class="s1" d="m1343.8 161.3c1.7-1.4 3.4-2.8 5.2-4.1 1.6-1 2.8-2.4 4.6-3-0.4 1-1.4 1.7-2.3 2.4-2.2 1.8-4.6 3.7-7.5 4.7z"/>
								<path id="&lt;Path&gt;" class="s1" d="m1340.9 157.1c0.1-1.7 4.5-4.6 6.1-5.8 0.5-0.4 1.2-0.7 1.8-0.8-0.4 0.9-1.3 1.6-2.2 2.3-1.2 0.9-2.3 1.8-3.6 2.7-0.7 0.5-1.6 0.9-2.1 1.5q0.1 0.1 0.1 0.1c0 0-0.1 0-0.1 0z"/>
								<path id="&lt;Path&gt;" class="s1" d="m1337.7 153.1c0.5-1.6 2.2-2.8 3.6-3.9 0.9-0.7 1.8-1.5 3-1.8-0.2 0.4-0.5 0.8-0.8 1.2-1.7 1.6-4.2 2.8-5.7 4.5 0.1 0 0 0-0.1 0z"/>
								<path id="&lt;Path&gt;" class="s1" d="m1333 150.9c-0.4-0.7 1.2-2 1.8-2.5 0.9-0.8 1.8-1.6 3.2-1.9-0.5 0.9-1.6 1.6-2.5 2.3-0.4 0.4-2.8 1.6-2.4 2.1 0 0-0.1 0-0.1 0z"/>
								<path id="&lt;Path&gt;" class="s1" d="m1325.7 149c-0.1-0.1 0-0.2 0-0.3 0.4-0.8 1.1-1.3 1.7-1.9 1.1-0.9 2.2-1.8 3.7-2.2-0.6 1.2-2.1 2-3.3 2.8-0.6 0.4-1.4 0.8-1.9 1.3-0.1 0.1-0.1 0.2-0.1 0.3 0.1 0 0.1 0 0.1 0 0 0-0.1 0-0.2 0z"/>
								<path id="&lt;Path&gt;" class="s1" d="m1319.2 147.4c-0.2-0.7 0.7-1.4 1.2-1.8 0.5-0.5 1.2-0.9 2-0.9-0.4 0.9-1.7 1.4-2.5 2-0.3 0.2-0.6 0.4-0.6 0.7q0 0 0 0 0 0-0.1 0z"/>
								<path id="&lt;Path&gt;" class="s1" d="m1310.5 147.2c0.8-1.2 2.1-2.1 3.3-2.9q0.7-0.4 1.6-0.6c-0.2 0.4-0.5 0.7-0.9 1-0.8 0.7-1.7 1.2-2.6 1.7-0.5 0.3-1.2 0.5-1.4 1q0 0 0 0c0 0 0.1 0 0.1 0-0.2 0.1-0.2-0.1-0.1-0.2z"/>
								<path id="&lt;Path&gt;" class="s1" d="m1173.5 125.2c-1-1-0.2-2.7 0.2-3.7 0.2 1.2 1.1 2.7-0.2 3.7z"/>
								<path id="&lt;Path&gt;" class="s1" d="m1176.3 126.9c-0.8-1-0.5-2.3-0.2-3.3 0.2-0.6 0.4-1.3 0.7-1.9 0 1.7 1.3 3.8-0.5 5.2z"/>
								<path id="&lt;Path&gt;" class="s1" d="m1180.8 126.3c-1.1-1.5 0.1-3.2 0.1-4.8 0.3 0.7 0.5 1.5 0.6 2.3 0.2 0.9 0.2 1.9-0.7 2.5z"/>
								<path id="&lt;Path&gt;" class="s1" d="m1184.1 126.4c-0.4-0.6-0.2-1.3 0.2-1.9 0.3-0.6 0.6-1.2 1.1-1.7-0.3 1.2 0.1 2.8-1.3 3.6z"/>
								<path id="&lt;Path&gt;" class="s1" d="m1204.2 127.1c-0.9-1.6 0.1-3.3 0.4-4.8q0 0 0 0c0.3 0.6 0.4 1.5 0.5 2.3 0.1 0.9-0.1 1.8-0.9 2.5z"/>
								<path id="&lt;Path&gt;" class="s1" d="m1208.3 126c-0.5-0.6-0.3-1.4 0-2.1 0.3-0.5 0.6-1.2 1.1-1.6-0.2 1.2 0.5 2.9-1.1 3.7z"/>
								<path id="&lt;Path&gt;" class="s1" d="m1212.4 126.8c-0.4-0.9-0.1-1.9 0.4-2.8 0.4-0.7 0.8-1.6 1.3-2.3-0.1 1.1-0.2 2.2-0.5 3.2-0.1 0.7-0.5 1.4-1.2 1.9z"/>
								<path id="&lt;Path&gt;" class="s1" d="m1218.5 126.9c-0.8-1.7 0.5-3.5 1.2-5.2 0 1.8 0.5 3.9-1.2 5.2z"/>
								<path id="&lt;Path&gt;" class="s1" d="m1223.5 128c-0.6-1.9 0.9-3.7 1.3-5.5 0.4 1.8 0.4 4.2-1.3 5.5z"/>
								<path id="&lt;Path&gt;" class="s1" d="m1229 126.1c-0.5-0.9 0.4-1.8 0.9-2.5-0.1 0.8 0.2 2-0.9 2.5q0 0 0 0z"/>
								<path id="&lt;Path&gt;" class="s1" d="m1232.4 129.4c-0.3-1.5 0.6-2.9 1.1-4.2 0.2-0.5 0.6-1.1 0.4-1.6q0 0 0 0c0 0 0.1 0 0.1 0 0.4 0.8 0.2 1.6 0.1 2.3-0.3 1.3-0.5 2.6-1.7 3.5q0 0 0 0z"/>
								<path id="&lt;Path&gt;" class="s1" d="m1243.5 125.3c-0.9-0.7 0-1.8 0.1-2.6 0.4 0.7 0.9 2-0.1 2.6z"/>
								<path id="&lt;Path&gt;" class="s1" d="m1247.1 126.8c-1-1.5 0.8-3 1.5-4.3 0 0.7-0.1 1.5-0.2 2.2-0.1 0.8-0.4 1.6-1.3 2.1q0 0 0 0z"/>
								<path id="&lt;Path&gt;" class="s1" d="m1253.4 124.1c-0.4-0.7 0.4-1.5 0.9-2-0.2 0.7 0.1 1.7-0.9 2z"/>
								<path id="&lt;Path&gt;" class="s1" d="m1161.6 68.5c-0.8-0.9-0.8-2.1-0.8-3.2q0-1.6-0.1-3.2c0-2.1-0.1-4.1 0.4-6.2 0-0.1 0-0.2 0.1-0.3 0 0 0-0.1 0.1 0q0 0 0 0 0 0 0 0c0.1 1.3 0.6 2.6 0.6 3.9 0.1 1.1 0.1 2.1 0.2 3.2-0.1 1.9 0.6 4-0.5 5.8z"/>
								<path id="&lt;Path&gt;" class="s1" d="m1165.2 69.2c-0.6-1-0.6-2-0.6-3 0-3 0-6 0.1-9 0-2.3-0.2-4.9 0.7-7.1 0.1 0.9 0.3 1.9 0.3 2.8q0 0 0 0 0 0 0 0c0.1 4 0 8.1 0.1 12.2-0.1 1.3 0.3 2.8-0.6 4.1z"/>
								<path id="&lt;Path&gt;" class="s1" d="m1168.8 72c-0.6-0.9-0.6-2-0.7-3-0.2-2.8-0.2-5.6-0.2-8.4q0-4.4-0.1-8.8-0.2-2.9 0.3-5.8c0.9 2.3 0.7 4.9 0.7 7.3q0.1 2.9 0.1 5.8c0 2.8 0.1 5.6 0.2 8.4 0 1.5 0.5 3.1-0.3 4.5q0 0 0 0z"/>
								<path id="&lt;Path&gt;" class="s1" d="m1173 75.3c-0.3-0.6-0.6-1.2-0.6-1.8-0.2-3.1-0.1-6.1-0.2-9.2q-0.2-3.2-0.4-6.4c-0.1-1.8-0.3-3.6 0.2-5.2 1 4 0.9 8.1 1.2 12.2 0.1 2.1 0.2 4.2 0.4 6.3 0 1.4 0.3 2.8-0.6 4.1q0 0 0 0z"/>
								<path id="&lt;Path&gt;" class="s1" d="m1176.4 73.5c-0.7-1-0.7-2.1-0.6-3.2q0-1.6 0-3.1c0-2.8-0.3-5.7 0.4-8.4 0.8 3.1 0.6 6.3 0.7 9.4-0.1 1.8 0.6 3.7-0.5 5.3z"/>
								<path id="&lt;Path&gt;" class="s1" d="m1180.6 73.2c-0.8-1.1-0.7-2.5-0.9-3.7-0.3-2.4-0.7-4.9-0.1-7.3 0.6 2.5 0.9 4.9 1.2 7.4 0.1 1.2 0.4 2.4-0.2 3.6z"/>
								<path id="&lt;Path&gt;" class="s1" d="m1371.4 138.4c-0.5-1.1-0.2-2.2 0.1-3.3q0.7-2.8 1.4-5.6 0 0.1 0 0.1c0.7-2.9 1.6-5.8 2.4-8.6 0.2-1.1 2.8-7.3 2-2.7-0.8 3.5-2.1 6.9-3 10.4q0-0.1 0-0.1c-0.6 2.4-1.1 4.8-1.7 7.3-0.1 0.9-0.4 1.8-1.2 2.5z"/>
								<path id="&lt;Path&gt;" class="s1" d="m1375.5 138.4c-0.7-1.7 0.3-3.4 0.7-5.1 1.1-3.6 2.1-7.3 3-10.9q0 0 0 0 0 0 0 0 0 0 0 0c0.6-2.1 1.1-4.1 2.1-6.1q0.1-0.1 0.1-0.2c0 0 0.2 0 0.2 0.1 0.1 2.2-0.7 4.3-1.3 6.5-0.5 2-1.1 4.1-1.7 6.1q0 0 0.1 0 0 0 0 0-0.2 0.7-0.4 1.5c-0.4 1.5-0.9 3.2-1.3 4.8-0.3 1.2-0.5 2.4-1.5 3.3z"/>
								<path id="&lt;Path&gt;" class="s1" d="m1382 129.4c-0.3-1 0.2-2 0.5-3q0.5-1.4 1-2.8c0.5-1.6 1.2-3.2 1.9-4.7 0.2-0.4 0.4-0.8 0.4-1.2q0 0 0 0 0 0 0 0 0 0 0 0 0 0 0 0 0 0 0 0c0.1-0.1 0.1 0.1 0.1 0.2 0.3 2.1-0.6 4.2-1.4 6.2q-0.4 1.4-1 2.7c-0.3 0.9-0.6 1.9-1.5 2.6z"/>
								<path id="&lt;Path&gt;" class="s1" d="m1417.2 128.6c-0.3-0.8-0.1-1.7 0.1-2.6q0.4-1.5 0.9-3.1c0.8-2.8 1.7-5.7 2.6-8.5 0.9-2.8 1.6-5.5 2.4-8.3 0.4-1.1 0.8-2.3 1.5-3.4 0.2-0.2 0.3-0.6 0.6-0.6q0.1 0 0.1 0 0 0 0 0c-0.1 0-0.2 0.1-0.2 0.2-0.3 0.7-0.3 1.6-0.5 2.4-0.9 3.7-2.2 7.4-3.3 11.2-0.9 2.8-1.7 5.7-2.5 8.6-0.5 1.4-0.5 3-1.7 4.1z"/>
								<path id="&lt;Path&gt;" class="s1" d="m1422.2 125.4c-0.2-1.9 0.9-3.8 1.4-5.7q1-3.1 1.8-6.2 0.9-3.2 1.7-6.5c0.3-1.5 0.8-2.9 1.5-4.2 0.1-0.2 0.2-0.4 0.4-0.6q0 0 0.1 0 0 0 0 0-0.1 0-0.1 0c-0.3 0.9-0.2 1.9-0.4 2.9-0.7 3.2-1.6 6.4-2.5 9.6q-0.8 3.2-1.8 6.5c-0.6 1.4-0.7 3.1-2.1 4.2z"/>
								<path id="&lt;Compound Path&gt;" fill-rule="evenodd" class="s1" d="m1108.9 294.1c-2.4-0.3-3.1-2.1-1.5-3.5 1.5-1.4 3.6-2.5 6-2.8 0.2 0 0.4 0 0.6 0.1 2.9-0.3 5.4 1.7 3.2 3.8-0.9 0.7-2 1.3-3.2 1.6-1.6 0.4-3.3 1-5.1 0.8zm0.8-1.3c1.2-0.1 2.3-0.4 3.3-0.8 1-0.3 2-0.7 2.7-1.3 0.4-0.5 0.6-0.9-0.2-1.2-0.9-0.3-1.9-0.2-2.8-0.6-1.5 1.1-3.5 1.9-4.4 3.4 0.2 0.4 0.9 0.4 1.4 0.5z"/>
								<path id="&lt;Compound Path&gt;" fill-rule="evenodd" class="s1" d="m1120.6 297.6c-2.3-0.2-3.2-1.7-1.7-3.2 1.6-1.5 4.5-2.3 6.9-1.6 2.4 0.8 2.3 3.3-0.1 4.1-1.6 0.5-3.4 0.9-5.1 0.7zm0.7-1.3c1.2 0 6.5-1.2 3.4-2.2-0.9-0.2-1.9 0-2.8-0.1-0.6 0.6-1.6 1.2-1.9 2 0.3 0.2 0.9 0.2 1.3 0.3z"/>
								<path id="&lt;Path&gt;" class="s1" d="m1097.3 364c-2.7-0.5-3.3-3.1-5.4-4.3q0 0 0 0 0 0 0 0.1c0 0 0-0.1 0-0.1 0.7 0 1.4 0.5 2.1 0.8 1.5 0.9 3.2 1.9 3.3 3.5z"/>
								<path id="&lt;Path&gt;" class="s1" d="m1100.3 363.3c-1.4-0.4-2.2-1.5-2.9-2.5-0.8-1.1-1.6-2.2-2-3.4 1 1 2.1 1.8 3 2.7 1 0.9 1.9 2 1.9 3.2z"/>
								<path id="&lt;Path&gt;" class="s1" d="m1103.4 361.8c-1.4-0.4-2.3-1.4-3-2.4-0.4-0.6-0.9-1.3-1.2-2-0.1-0.2-0.3-0.6-0.1-0.8 0 0.2 0.3 0.5 0.5 0.7 1.4 1.4 3.5 2.6 3.8 4.5z"/>
								<path id="&lt;Path&gt;" class="s1" d="m1107.8 361.1c-1.3-0.4-2.3-1.3-3-2.2-0.7-0.9-1.5-1.8-1.7-2.7 1.5 1.6 4.3 2.7 4.7 4.9z"/>
								<path id="&lt;Path&gt;" class="s1" d="m1112.5 359.9c-1.8-0.6-2.8-2.1-3.8-3.4-0.3-0.5-0.7-1.1-0.9-1.6 0-0.1-0.1-0.2 0-0.2q0 0 0 0 0 0 0 0 0 0 0 0 0 0 0 0 0 0 0 0c1.5 1.7 4.3 3 4.7 5.2z"/>
								<path id="&lt;Path&gt;" class="s1" d="m1117.2 359.3c-1.4-0.2-2.4-0.9-3.2-1.7-0.8-0.9-1.8-1.7-2-2.8 0.3 0.5 0.9 0.8 1.3 1.1 1.5 1 3.4 1.8 3.9 3.4z"/>
								<path id="&lt;Path&gt;" class="s1" d="m1120 357.3c-0.9-0.7-1.8-1.7-1.9-2.8 0.2 0.2 0.3 0.4 0.5 0.6 0.7 0.5 1.6 1 2.2 1.7q0.2 0.3 0.3 0.7-0.6 0-1.1-0.2z"/>
								<path id="&lt;Path&gt;" class="s1" d="m1124.9 356.9c-1.1-0.9-1.9-2.1-2.2-3.3 0.1 0 0.2 0.2 0.3 0.3 0.8 0.8 1.9 1.6 2.7 2.5 0.3 0.3 0.5 0.7 0.6 1.1q-0.8-0.1-1.4-0.6z"/>
								<path id="&lt;Path&gt;" class="s1" d="m1115.5 383.8c-1-0.2-1.7-1-2.4-1.6-1.6-1.3-3.3-2.7-4.4-4.4l-0.1-0.2q0 0 0 0c0.6 0.6 1.5 1 2.2 1.5q2.4 1.8 4.8 3.6c0.4 0.4 0.6 0.8 0.9 1.3-0.4 0-0.7-0.1-1-0.2z"/>
								<path id="&lt;Path&gt;" class="s1" d="m1119.8 382.6c-1.4-0.2-2.4-1-3.3-1.9-1-0.9-2.1-1.9-2.8-3q0 0 0 0 0 0 0 0 0 0 0 0 0 0 0 0c1.1 0.7 2.3 1.3 3.4 2.1 1.1 0.8 2.4 1.6 2.7 2.8z"/>
								<path id="&lt;Path&gt;" class="s1" d="m1124.9 382.8c-1.4-0.3-2.2-1.2-3-2-1.3-1.3-2.7-2.6-3.3-4.2 1.5 1.4 3.4 2.5 4.8 4 0.7 0.6 1.3 1.4 1.5 2.2z"/>
								<path id="&lt;Path&gt;" class="s1" d="m1128.1 381.3c-1.4-0.2-2.2-1.1-3-2-0.7-0.9-1.6-1.9-1.7-3 1.3 1.8 4.1 2.9 4.7 5z"/>
								<path id="&lt;Path&gt;" class="s1" d="m1132.9 379.7c-1.5-0.2-2.4-1.3-3.1-2.3-0.7-0.8-1.4-1.7-1.5-2.8 1.3 1.8 3.9 3 4.6 5.1z"/>
								<path id="&lt;Path&gt;" class="s1" d="m1136 378.3c-1.6-0.5-2.7-2.7-3-4 1 1.4 2.8 2.4 3.7 3.9 0 0 0.1 0.1 0.1 0.2q-0.4 0-0.8-0.1z"/>
								<path id="&lt;Path&gt;" class="s1" d="m1140.9 378.1c-1.5-0.2-2.3-1.8-2.3-2.8 0.6 1 2.1 1.7 2.3 2.8z"/>
								<path id="&lt;Path&gt;" class="s1" d="m1132.5 400.9c-1.4-1.2-2.4-2.6-3.5-3.9 1.5 0.7 3.1 1.9 4.4 3 0.5 0.4 0.7 1 0.9 1.6-0.7-0.1-1.3-0.4-1.8-0.7z"/>
								<path id="&lt;Path&gt;" class="s1" d="m1135.6 400.3c-1.1-0.3-3.5-3.4-3.2-4.2q0 0 0 0 0 0 0 0 0 0 0 0c0.8 1.2 2.4 2 3.4 3 0.4 0.4 0.6 0.9 0.8 1.4-0.3 0-0.7-0.1-1-0.2z"/>
								<path id="&lt;Path&gt;" class="s1" d="m1139.4 398.8c-2-0.3-2.7-2.1-3.7-3.2q0 0 0 0 0 0 0 0c0.9 0.3 1.7 1 2.5 1.5 0.6 0.4 1.1 1 1.2 1.7z"/>
								<path id="&lt;Path&gt;" class="s1" d="m1141.7 397.2c-1-0.2-1.2-1.2-1.4-2 0.5 0.6 1.5 1.2 1.4 2z"/>
								<path id="&lt;Path&gt;" class="s1" d="m1328.7 378.7c-0.8-0.9-0.8-2-1-3.1-0.2-1.4-0.3-2.8-0.6-4.1 1.2 1.6 2.4 5.4 1.6 7.2q0 0 0 0z"/>
								<path id="&lt;Path&gt;" class="s1" d="m1332 380.9c-0.7-1.3-0.5-2.7-0.6-4.1-0.1-2.2-0.6-4.4-0.8-6.7 1.3 2.1 1.6 4.4 1.9 6.7 0 1.4 0.3 2.8-0.5 4.1q0 0 0 0z"/>
								<path id="&lt;Path&gt;" class="s1" d="m1336.3 388.4c-0.4-0.9-0.4-1.9-0.4-2.8 0-2.1 0.1-4.2 0-6.3-0.1-3.1-1-6.1-1.5-9.1q-0.1-0.5-0.2-1c0.1 0.1 0.1 0.2 0.2 0.2 1.1 1.8 1.6 3.8 1.9 5.8 0.4 2.7 0.5 5.4 0.4 8.1-0.1 1.7 0.3 3.4-0.4 5.1q0 0 0 0z"/>
								<path id="&lt;Path&gt;" class="s1" d="m1339.8 388.8c-0.5-1.1-0.3-2.3-0.2-3.4 0.1-1.7 0.3-3.4 0.3-5 0.1-3.7-0.7-7.3-1.5-10.9q-0.1-0.7-0.2-1.3 0 0 0.1 0 0 0 0 0c1.2 2 1.6 4.3 1.9 6.5 0.2 2.1 0.4 4.2 0.3 6.3q0 2.2-0.1 4.4c-0.1 1.2 0 2.4-0.6 3.4q0 0 0 0z"/>
								<path id="&lt;Path&gt;" class="s1" d="m1343.4 388.6c-0.4-0.9-0.2-1.9-0.1-2.8 0-0.6 0.1-1.3 0.1-1.9 0.3-2.9 0.5-5.9 0.3-8.8q0 0 0 0 0 0 0 0c-0.1-1.6-0.3-3.2-0.6-4.8-0.2-1.4-0.5-2.7-0.6-4.1 0.1-0.1 0-0.4 0.1-0.4q0 0 0 0c0.4 1.3 1.1 2.6 1.3 3.9 0.5 3.4 0.7 6.7 0.5 10.1q-0.1 3-0.3 6c-0.1 1-0.1 2-0.7 2.8z"/>
								<path id="&lt;Path&gt;" class="s1" d="m1347.1 380.1c-0.2-0.7-0.3-1.4-0.1-2.2 0.3-1.6 0.5-3.3 0.5-5 0-2.1-0.3-4.2-0.7-6.2-0.3-1.2-0.2-2.4-0.6-3.5q0 0 0 0c-0.1 0-0.1 0.1-0.1 0.1 0-0.1 0.1-0.2 0.2-0.1 1.2 1.5 1.4 3.5 1.7 5.3 0.2 2.3 0.4 4.5 0.2 6.8-0.2 1.6 0 3.4-1.1 4.8q0 0 0 0z"/>
								<path id="&lt;Path&gt;" class="s1" d="m1351.3 375.3c-0.4-0.9-0.3-1.7-0.2-2.6 0.2-1.3 0.3-2.6 0.1-3.8-0.2-2.4-1-4.7-1-7.1q0-0.3 0-0.7c0.1 0.2 0.1 0.3 0.2 0.5 1.2 3.2 1.8 6.5 1.8 9.9-0.1 1.3 0 2.7-0.9 3.8z"/>
								<path id="&lt;Path&gt;" class="s1" d="m1354.7 368.9c-0.6-1-0.4-2.1-0.5-3.2q-0.1-1.3-0.3-2.6c-0.2-1.7-0.8-3.6-0.2-5.3 0.4 2.2 1.1 4.4 1.3 6.7 0.1 1.4 0.6 3.1-0.3 4.4q0 0 0 0z"/>
								<path id="&lt;Path&gt;" class="s1" d="m1356.7 363c-0.5-0.8-0.5-1.7-0.5-2.6 0-1.5 0-3 0.3-4.4q0.7 2.4 0.7 4.9c0 0.7-0.1 1.5-0.5 2.1q0 0 0 0z"/>
								<path id="&lt;Path&gt;" class="s1" d="m1269.6 457.1c0.4-1.1 1.2-1.9 2-2.8q1.5-1.8 2.8-3.7c3.5-4.7 4.2-10.1 4.5-15.4 0-0.5 0.1-1 0-1.4 0.3 0.3 0.3 0.7 0.5 1 1.2 4.4-0.5 12-3.3 15.8-1.2 1.5-2.6 3-3.9 4.5-0.7 0.7-1.5 1.6-2.6 2z"/>
								<path id="&lt;Path&gt;" class="s1" d="m1256.6 465.8c0.8-0.8 1.8-1.2 2.8-1.7q3.1-1.7 6-3.6c-1.2 1.7-2.9 3.3-5.1 4.3-1.1 0.6-2.3 1.1-3.7 1z"/>
								<path id="&lt;Path&gt;" class="s1" d="m1367.9 431.8c1.1-2 3.3-3.5 5.5-4.8q2.6-1.6 5.2-3.1c6.7-3.7 13.5-7.3 20.3-10.8 0.6-0.3 1.2-0.5 1.8-0.5-0.5 0.6-1.2 1.1-2 1.5-10.4 5.7-21.4 10.9-30.8 17.7z"/>
								<path id="&lt;Path&gt;" class="s1" d="m1409.9 408.8c-0.1 0-0.2-0.1-0.1-0.1 0 0 0 0 0 0q0 0 0 0c1.4-0.4 2.5-1.2 3.9-1.6 2.2-0.8 4.5-1.6 6.7-2.3 1.1-0.4 2.2-0.7 3.3-0.6-0.8 0.8-2.1 1.1-3.2 1.5-3.5 1-6.8 2.8-10.6 3.1z"/>
								<path id="&lt;Path&gt;" class="s1" d="m1409.3 221.6c-0.3-0.1-0.2-0.4-0.3-0.6-0.1-2 0.8-3.9 1.7-5.8 0.5-1 0.8-2.1 1.7-3 0.4 1.2 0 2.5-0.4 3.7-0.3 1.1-0.8 2.2-1.5 3.3-0.4 0.7-0.9 1.3-1.2 2.1-0.1 0.1-0.1 0.2 0 0.3 0 0 0 0 0 0z"/>
								<path id="&lt;Path&gt;" class="s1" d="m1401.5 219.2c-1.2-1-1.9-2.5-2.3-3.8-0.2-1.4-0.6-2.9-0.1-4.2 0.3 0.4 0.6 0.8 0.8 1.3 0.6 1.7 1.2 3.5 1.3 5.3 0.1 0.4 0.1 0.9 0.3 1.3q0.1 0.1 0.2 0.1-0.1 0-0.2 0z"/>
								<path id="&lt;Path&gt;" class="s1" d="m1103.2 166.1c-1.9-2-1.1-6.6-1-9.1 0-0.8 0.3-1.6 0.8-2.2 0.3 0.4 0.5 0.8 0.6 1.3 0.3 1.4 0.2 2.8 0.2 4.2-0.1 1.3-0.1 2.6-0.4 3.9-0.1 0.6-0.5 1.5 0 2 0.2 0.1-0.2 0-0.2-0.1z"/>
								<path id="&lt;Path&gt;" class="s1" d="m1095.1 166.5c-1.8-1.1-2.8-2.8-3.7-4.4-0.8-1.4-1.9-2.7-1.9-4.3 0.7 0.4 1.3 0.9 1.8 1.4 0.9 1.1 1.8 2.2 2.4 3.4 0.8 1.3 0.8 2.8 1.4 3.9z"/>
								<path id="&lt;Path&gt;" class="s1" d="m1084.9 169.3c-3.5-0.3-5.9-2.7-8.2-4.7-0.2-0.3-0.5-0.7-0.6-1.1q0.9 0.3 1.7 0.7c1.8 1.4 3.9 2.3 5.7 3.6 0.7 0.5 1.3 1.3 2.2 1.4q0.1 0.1 0.2 0.1 0 0 0 0-0.5 0.1-1 0z"/>
								<path id="&lt;Path&gt;" class="s1" d="m1309.9 359.4c0-0.1 0.2-0.3 0.4-0.3 0.2 0 0.4 0.1 0.4 0.3 0 0.2-0.1 0.4-0.4 0.4-0.2 0-0.4-0.2-0.4-0.4z"/>
								<path id="&lt;Compound Path&gt;" fill-rule="evenodd" class="s1" d="m1114.4 249.8c-0.8-0.3-0.8-1.3-1.2-2-0.8-1.6-1.6-3.2-2-5 0 0-0.1-0.1 0-0.1 0-0.2-0.1-0.3-0.1-0.4q0-0.1 0-0.1c0.3-0.2 0.4 0.1 0.6 0.3 1.3-0.6 2.7-0.1 4.1-0.1 1.5 0 3-0.2 4.5-0.2 0.6 0 1.3-0.1 1.7 0.3 0.2 0.3 0.2 0.6 0 0.9-0.5 0.6-1.3 1.1-1.8 1.7-1.3 1.1-2.5 2.4-3.7 3.6-0.5 0.5-1.1 1.4-2.1 1.1zm-0.8-5c0.4 0.5 0.8 1.1 1.1 1.7q0.3 0.6 0.6 1.3c1.3-1.4 2.5-2.8 3.9-4.1-2.1 0.2-4.3 0.4-6.4-0.1q0.4 0.6 0.8 1.2z"/>
								<path id="&lt;Path&gt;" class="s1" d="m1059.3 341.5c-0.3-1 0.1-2.1 0.3-3.1q0.3-1.4 0.7-2.9c0.9-3.9 2.1-7.8 3.4-11.7 1-2.9 1.9-5.8 2.9-8.7 0.8-2.2 1.5-4.5 3.3-6.2 0.3-0.3 0.6-0.6 0.9-0.8q0 0.1-0.1 0.1c-1.6 3.2-2.6 6.6-3.7 9.9-1.3 4-2.6 7.8-4 11.7q-1 3-1.8 5.9-0.4 1.5-0.7 3c-0.3 0.9-0.4 2-1.2 2.8z"/>
								<path id="&lt;Path&gt;" class="s1" d="m1051.9 358.3c-0.1-1.2 0.6-2.2 1.1-3.2 1.2-2.3 2.2-4.8 4-6.8-0.3 2.2-1.2 4.3-2.4 6.3-0.8 1.3-1.2 2.8-2.7 3.7z"/>
								<path id="&lt;Path&gt;" class="s1" d="m871.9 373.5c-0.9-0.8-1.3-1.8-1.7-2.7q-1.1-2.6-2.2-5.2c-2-4.6-3.2-9.4-4.1-14.3q-0.5-2.6-0.9-5.3c-0.2-1.9-0.5-3.7 0-5.6 0.1-0.3 0.1-0.8 0.5-0.9q0 0.1 0.1 0.1 0 0 0 0-0.1 0-0.1 0c-0.3 0.4 0 1.1 0.1 1.6 0.2 1.1 0.4 2.2 0.4 3.3 0.7 5.1 1.6 10.3 3.1 15.3 1.1 3.6 2.5 7.2 4 10.7 0.4 1 0.9 1.9 0.8 3z"/>
								<path id="&lt;Path&gt;" class="s1" d="m880.7 388.9c-1.3-0.6-1.9-1.6-2.6-2.6-1.7-2.3-3.5-4.5-4.3-7.1 1.7 1.6 3.2 3.4 4.4 5.3 0.9 1.4 2.4 2.8 2.5 4.4z"/>
								<path id="&lt;Path&gt;" class="s1" d="m1123 26.8c-1.3 0-2.6-0.2-3.8-0.2q-0.1 0-0.1 0 0.8-0.3 1.5-0.5c2.7-0.6 5.5-0.4 8.2-0.4 3.2 0 6.3-0.2 9.5-0.3q3.6-0.1 7.1-0.3c2.1 0 4.3-0.5 6.4 0-1.3 0.5-2.7 0.4-4 0.5q-1.7 0.1-3.5 0.2c-7.1 0.5-14.2 1-21.3 1z"/>
								<path id="&lt;Path&gt;" class="s1" d="m1158.3 25.4c0-0.3 0.3-0.4 0.6-0.5 0.3-0.2 0.7-0.3 1-0.1 0 0.1-0.2 0.2-0.4 0.3-0.4 0.1-0.9 0.1-1.2 0.3z"/>
								<path id="&lt;Path&gt;" class="s1" d="m1216.8 79.4c-0.2-0.9 0.5-1.7 1-2.4 1.1-1.3 2.8-2.1 4.5-2.6 2.1-0.6 4.3-1.5 6.4-1-1.2 0.7-2.6 0.8-4 1.3-2.3 0.7-4.5 1.7-6.3 3-0.7 0.5-1.4 1-1.6 1.7z"/>
								<path id="&lt;Path&gt;" class="s1" d="m1223.4 205.5c-1.3-1.6-1.4-3.5-2-5.2q-1.7-5.4-3.7-10.7c-1.3-3.4-2.6-6.7-3.9-10.1-0.7-2.1-1.6-4.3-1.5-6.6 0.5 1.4 1.3 2.7 1.8 4.1 1 3.1 2.1 6.1 3.3 9.2 1.7 4.3 3.3 8.6 4.6 13q0.4 1.3 0.8 2.7c0.3 1.2 0.9 2.4 0.6 3.6z"/>
								<path id="&lt;Path&gt;" class="s1" d="m1228.9 218.9c-0.9-0.7-1.3-1.7-1.8-2.7-1-2-2-4-2.3-6.1 1.3 1.6 2.3 3.3 3.1 5.1 0.4 1.2 1.2 2.4 1 3.7z"/>
								<path id="&lt;Path&gt;" class="s1" d="m965.4 449.5c0.2-1 1-1.8 1.8-2.6q1-1.1 2.1-2.2 2.3-2.3 4.5-4.6c2-1.8 3.7-3.9 6.2-5.2 0.1-0.1 0.4-0.1 0.2 0 0 0 0.1 0 0 0q0 0 0 0c-0.8 0.7-1.3 1.7-2.1 2.4-1.9 2-3.9 3.9-5.8 5.9q-2.1 2.1-4.3 4.3c-0.7 0.7-1.5 1.6-2.6 2z"/>
								<path id="&lt;Path&gt;" class="s1" d="m964.7 459.6c0.1-1 0.9-1.9 1.6-2.8q1-1.2 1.9-2.5c1.8-2.2 3.4-4.5 5.2-6.7 0.6-0.7 1.3-1.4 1.8-2.1 0.1-0.1 0.1-0.2 0.1-0.3q-0.1 0-0.1 0 0 0 0 0c0.2-0.1 0.2 0.2 0.2 0.3-0.4 1.9-1.7 3.6-3 5.1q-1.9 2.5-3.8 5c-1.3 1.3-2 3.1-3.9 4z"/>
								<path id="&lt;Path&gt;" class="s1" d="m966.3 466.5c0-0.8 0.2-1.6 0.7-2.3 0.8-1.6 1.8-3 2.7-4.4 1.8-2.8 3.3-5.6 5.4-8.1-0.7 3-2.7 5.7-4.3 8.4-0.7 1.3-1.5 2.6-2.3 3.8-0.6 1-1.2 1.9-2.2 2.6z"/>
								<path id="&lt;Path&gt;" class="s1" d="m968.7 472.4c-0.1-1.1 0.4-2.1 1-3q0.8-1.4 1.6-2.8c1.2-2.1 2.5-4.2 4.3-6-1 2.6-2.5 5.1-3.9 7.6-0.9 1.4-1.3 3.2-3 4.2z"/>
								<path id="&lt;Path&gt;" class="s1" d="m969.5 480c0-1 0.6-2 1.1-2.9q0.7-1.4 1.5-2.7c1.4-2.7 2.7-5.4 4.8-7.8-0.8 2.9-2.5 5.6-3.9 8.4q-0.9 1.6-1.8 3.3c-0.3 0.6-0.7 1.2-1.2 1.7z"/>
								<path id="&lt;Path&gt;" class="s1" d="m975.6 480c-0.1-0.9 0.3-1.8 0.7-2.7 0.8-1.7 1.8-3.4 3.2-4.8-0.6 1.8-1.3 3.6-2.2 5.3-0.3 0.8-0.7 1.6-1.4 2.2z"/>
								<path id="&lt;Path&gt;" class="s1" d="m981.2 480c0.6-0.8 1.4-1.6 2-2.3q-0.3 1-0.8 2l-0.1 0.3z"/>
								<path id="&lt;Path&gt;" class="s1" d="m972.5 439.1c0.4-0.9 1.2-1.6 2.1-2.3q1.1-1 2.3-1.9c2.3-1.9 4.6-3.8 7.2-5.4-1.1 1.5-2.5 3-4.1 4.2q-2.5 2-5 3.9c-0.7 0.6-1.5 1.2-2.5 1.5z"/>
								<path id="&lt;Path&gt;" class="s1" d="m1023.4 469.8c-0.4-0.1-0.4-0.3-0.1-0.5 0 0.1-0.2 0.3 0 0.3 0.9-0.1 1.6-0.4 2.4-0.7q1.2-0.5 2.4-0.9c2.4-0.8 4.8-1.6 7-2.6 1.1-0.5 2.1-1.2 3.3-1.6 0.4-0.1 0.7-0.2 1.1-0.3q-0.4 0.7-1.1 1.2c-3 1.8-11.3 5.5-15 5.1z"/>
							</g>
						</g>
					</g>
				</g>
			</g>
		</g>
	</g>
</svg>